<svg width="202" height="60" viewBox="0 0 202 60" fill="none" xmlns="http://www.w3.org/2000/svg">
<path d="M197.262 1H5.23085C3.41846 1 1.94922 2.46751 1.94922 4.27778V55.0833C1.94922 56.8936 3.41846 58.3611 5.23085 58.3611H197.262C199.075 58.3611 200.544 56.8936 200.544 55.0833V4.27778C200.544 2.46751 199.075 1 197.262 1Z" stroke="black" stroke-width="2"/>
<path d="M48.5519 28.3016C48.5139 23.7641 52.2728 21.5525 52.4478 21.4536C50.3172 18.3527 47.0148 17.9271 45.8506 17.8967C43.0733 17.6079 40.3872 19.5536 38.9719 19.5536C37.5337 19.5536 35.3574 17.9271 33.0062 17.9727C29.9853 18.0183 27.1623 19.7664 25.6176 22.4721C22.4217 27.9976 24.8034 36.1146 27.8699 40.5836C29.3994 42.7725 31.1876 45.2123 33.5313 45.1286C35.8216 45.0374 36.6815 43.6693 39.4436 43.6693C42.183 43.6693 42.9895 45.1286 45.3789 45.0754C47.8366 45.0374 49.3889 42.8789 50.8651 40.6749C52.6381 38.1668 53.3458 35.6966 53.3762 35.575C53.3153 35.537 48.5976 33.7358 48.5519 28.3016ZM44.0396 14.9554C45.2723 13.4125 46.1169 11.3224 45.881 9.19434C44.1005 9.2703 41.8633 10.4256 40.585 11.9305C39.4512 13.2605 38.4316 15.4342 38.6979 17.4787C40.6915 17.6231 42.7536 16.4678 44.0396 14.9554Z" fill="black"/>
<path d="M81.7446 44.8021H78.5411L76.7834 39.2994H70.6883L69.0143 44.8021H65.8945L71.9363 26.0597H75.6648L81.7446 44.8021ZM76.2583 36.9889L74.668 32.0944C74.5006 31.5927 74.181 30.4147 73.7244 28.5602H73.6712C73.4886 29.3583 73.1842 30.5363 72.7809 32.0944L71.221 36.9889H76.2583ZM97.2527 37.8782C97.2527 40.1735 96.6283 41.99 95.3805 43.3277C94.2615 44.5133 92.8692 45.1061 91.2104 45.1061C89.4145 45.1061 88.1289 44.4677 87.3454 43.1908V50.2819H84.3394V35.7273C84.3394 34.2833 84.3017 32.8012 84.2254 31.2887H86.8729L87.041 33.432H87.0935C88.0985 31.8208 89.6204 31.0075 91.6591 31.0075C93.2573 31.0075 94.5888 31.6384 95.6545 32.9C96.7194 34.1617 97.2527 35.8261 97.2527 37.8782ZM94.1934 37.9922C94.1934 36.6774 93.8964 35.5905 93.3032 34.7393C92.6559 33.85 91.7814 33.4092 90.6853 33.4092C89.9478 33.4092 89.2701 33.66 88.6687 34.1464C88.0682 34.6405 87.6719 35.2865 87.4898 36.0769C87.4061 36.3734 87.3602 36.6849 87.3528 36.9889V39.2462C87.3528 40.2267 87.6572 41.0551 88.2585 41.7392C88.8591 42.4156 89.6434 42.7576 90.609 42.7576C91.7428 42.7576 92.6256 42.3168 93.2573 41.4504C93.8734 40.5687 94.1934 39.421 94.1934 37.9922ZM112.821 37.8782C112.821 40.1735 112.197 41.99 110.949 43.3277C109.83 44.5133 108.438 45.1061 106.779 45.1061C104.983 45.1061 103.697 44.4677 102.913 43.1908V50.2819H99.9075V35.7273C99.9075 34.2833 99.8698 32.8012 99.7935 31.2887H102.442L102.609 33.432H102.662C103.667 31.8208 105.188 31.0075 107.228 31.0075C108.826 31.0075 110.158 31.6384 111.223 32.9C112.281 34.1617 112.821 35.8261 112.821 37.8782ZM109.754 37.9922C109.754 36.6774 109.458 35.5905 108.864 34.7393C108.217 33.85 107.342 33.4092 106.247 33.4092C105.508 33.4092 104.831 33.66 104.222 34.1464C103.621 34.6405 103.225 35.2865 103.043 36.0769C102.951 36.4493 102.899 36.7533 102.899 36.9889V39.2462C102.899 40.2267 103.203 41.0551 103.804 41.7392C104.405 42.4156 105.188 42.7576 106.163 42.7576C107.296 42.7576 108.179 42.3168 108.811 41.4504C109.442 40.5687 109.754 39.421 109.754 37.9922ZM130.223 39.5503C130.223 41.1464 129.668 42.446 128.557 43.4416C127.34 44.5361 125.627 45.0833 123.443 45.0833C121.427 45.0833 119.807 44.6957 118.581 43.9128L119.273 41.4124C120.59 42.1952 122.043 42.5828 123.618 42.5828C124.752 42.5828 125.635 42.3244 126.266 41.8151C126.898 41.3059 127.217 40.6219 127.217 39.7707C127.217 39.0107 126.951 38.3722 126.434 37.8478C125.916 37.331 125.056 36.8445 123.847 36.4038C120.56 35.1801 118.916 33.3864 118.916 31.038C118.916 29.5026 119.494 28.241 120.658 27.2606C121.815 26.2801 123.352 25.7861 125.27 25.7861C126.974 25.7861 128.397 26.0825 129.531 26.6753L128.778 29.1227C127.712 28.545 126.517 28.2638 125.17 28.2638C124.113 28.2638 123.276 28.5222 122.682 29.039C122.18 29.5026 121.929 30.0651 121.929 30.7339C121.929 31.4711 122.219 32.0868 122.797 32.5656C123.299 33.0064 124.204 33.4928 125.521 34.0097C127.134 34.6633 128.321 35.4157 129.082 36.2898C129.843 37.1638 130.223 38.2506 130.223 39.5503ZM140.191 33.546H136.873V40.1051C136.873 41.7772 137.459 42.6056 138.632 42.6056C139.171 42.6056 139.613 42.56 139.97 42.4688L140.054 44.7489C139.461 44.9693 138.685 45.0833 137.718 45.0833C136.531 45.0833 135.603 44.7185 134.933 43.9965C134.264 43.2744 133.929 42.0583 133.929 40.3559V33.546H131.958V31.2963H133.929V28.8187L136.882 27.9294V31.2963H140.199L140.191 33.546ZM155.113 37.939C155.113 40.0139 154.52 41.724 153.332 43.054C152.092 44.4296 150.441 45.1137 148.379 45.1137C146.393 45.1137 144.81 44.4525 143.63 43.1452C142.451 41.8304 141.866 40.1659 141.866 38.167C141.866 36.0693 142.474 34.3592 143.692 33.0216C144.909 31.6839 146.545 31.0227 148.607 31.0227C150.593 31.0227 152.191 31.6839 153.393 32.9988C154.534 34.268 155.113 35.9173 155.113 37.939ZM151.994 38.0074C151.994 36.7686 151.727 35.7045 151.186 34.8229C150.555 33.7512 149.657 33.2116 148.486 33.2116C147.283 33.2116 146.355 33.7512 145.731 34.8229C145.191 35.7121 144.924 36.7914 144.924 38.0682C144.924 39.307 145.191 40.3711 145.731 41.2604C146.378 42.3319 147.291 42.8716 148.463 42.8716C149.612 42.8716 150.509 42.3244 151.164 41.2376C151.72 40.3179 151.994 39.2462 151.994 38.0074ZM164.891 33.9336C164.579 33.8804 164.259 33.85 163.94 33.85C162.882 33.85 162.068 34.2453 161.49 35.0433C160.988 35.7501 160.737 36.6393 160.737 37.711V44.8021H157.731V35.5449C157.731 34.1237 157.708 32.7099 157.647 31.2887H160.265L160.371 33.8728H160.454C160.774 32.9836 161.269 32.2692 161.962 31.7296C162.585 31.2583 163.354 31.0075 164.137 31.0075C164.419 31.0075 164.662 31.0303 164.891 31.0607V33.9336ZM178.337 37.407C178.344 37.863 178.306 38.319 178.23 38.7674H169.206C169.236 40.1051 169.677 41.1235 170.514 41.8304C171.275 42.4612 172.257 42.7728 173.467 42.7728C174.806 42.7728 176.023 42.56 177.119 42.1344L177.591 44.2168C176.312 44.7717 174.798 45.0529 173.056 45.0529C170.956 45.0529 169.312 44.4373 168.11 43.206C166.915 41.9748 166.314 40.3179 166.314 38.243C166.314 36.2061 166.869 34.5112 167.988 33.1584C169.152 31.7143 170.735 30.9923 172.721 30.9923C174.669 30.9923 176.145 31.7143 177.15 33.1584C177.933 34.3061 178.337 35.7197 178.337 37.407ZM175.468 36.6317C175.491 35.7425 175.293 34.9749 174.882 34.3212C174.364 33.4852 173.558 33.0672 172.485 33.0672C171.504 33.0672 170.705 33.4776 170.088 34.2908C169.586 34.9369 169.289 35.7197 169.198 36.6242L175.468 36.6317Z" fill="black"/>
<path d="M69.8192 19.4401C68.9823 19.4401 68.2594 19.4021 67.6582 19.3337V10.2665C68.5029 10.1373 69.3551 10.0689 70.2074 10.0765C73.6543 10.0765 75.2447 11.7713 75.2447 14.5302C75.2371 17.7148 73.3652 19.4401 69.8192 19.4401ZM70.329 11.2393C69.8649 11.2393 69.4693 11.2698 69.1421 11.3381V18.224C69.3171 18.2544 69.6595 18.262 70.1389 18.262C72.3988 18.262 73.6848 16.9776 73.6848 14.5759C73.6771 12.425 72.513 11.2393 70.329 11.2393ZM80.1907 19.5084C78.2503 19.5084 76.9871 18.0568 76.9871 16.0883C76.9871 14.0362 78.2731 12.577 80.2972 12.577C82.2147 12.577 83.5009 13.9602 83.5009 15.9819C83.5009 18.0568 82.1767 19.5084 80.1907 19.5084ZM80.2439 13.6562C79.1786 13.6562 78.4938 14.6518 78.4938 16.0503C78.4938 17.4184 79.1939 18.414 80.2287 18.414C81.2712 18.414 81.9637 17.3499 81.9637 16.0199C81.9712 14.6671 81.2864 13.6562 80.2439 13.6562ZM94.5797 12.7138L92.5025 19.3564H91.148L90.2882 16.4759C90.0749 15.7691 89.8927 15.0547 89.7557 14.3327H89.7254C89.6187 15.0547 89.4128 15.7843 89.1921 16.4759L88.279 19.3564H86.9097L84.9539 12.7138H86.4757L87.2289 15.8679C87.4044 16.6203 87.5562 17.3272 87.6785 18.0036H87.7088C87.8155 17.4412 87.9976 16.7495 88.2568 15.8831L89.2003 12.7138H90.4022L91.3079 15.8147C91.5286 16.5671 91.7034 17.3044 91.8404 18.0036H91.8781C91.9774 17.3195 92.1218 16.5975 92.3277 15.8147L93.1342 12.7138H94.5797ZM102.242 19.3564H100.766V15.5411C100.766 14.3631 100.317 13.7778 99.4267 13.7778C98.5522 13.7778 97.9508 14.5302 97.9508 15.4043V19.3564H96.4749V14.6138C96.4749 14.0287 96.4593 13.3978 96.4215 12.7138H97.7227L97.7908 13.7398H97.8286C98.2248 13.033 99.0313 12.577 99.937 12.577C101.329 12.577 102.25 13.6411 102.25 15.3815L102.242 19.3564ZM106.313 19.3564H104.837V9.66602H106.313V19.3564ZM111.708 19.5084C109.768 19.5084 108.505 18.0568 108.505 16.0883C108.505 14.0362 109.791 12.577 111.815 12.577C113.732 12.577 115.019 13.9602 115.019 15.9819C115.019 18.0568 113.687 19.5084 111.708 19.5084ZM111.762 13.6562C110.696 13.6562 110.012 14.6518 110.012 16.0503C110.012 17.4184 110.711 18.414 111.746 18.414C112.789 18.414 113.481 17.3499 113.481 16.0199C113.481 14.6671 112.804 13.6562 111.762 13.6562ZM120.847 19.3564L120.74 18.5888H120.702C120.254 19.2044 119.592 19.5008 118.755 19.5008C117.559 19.5008 116.715 18.6648 116.715 17.5476C116.715 15.9059 118.138 15.0623 120.603 15.0623V14.9407C120.603 14.0666 120.14 13.6258 119.226 13.6258C118.572 13.6258 117.993 13.7931 117.491 14.1199L117.194 13.147C117.811 12.767 118.579 12.5694 119.477 12.5694C121.212 12.5694 122.095 13.4814 122.095 15.3131V17.7604C122.095 18.4292 122.125 18.9536 122.194 19.3488L120.847 19.3564ZM120.642 16.0503C118.998 16.0503 118.176 16.4455 118.176 17.388C118.176 18.0872 118.602 18.4292 119.188 18.4292C119.942 18.4292 120.642 17.8591 120.642 17.0763V16.0503ZM129.255 19.3564L129.187 18.2924H129.148C128.723 19.0981 128.007 19.5084 127.01 19.5084C125.405 19.5084 124.218 18.1024 124.218 16.1187C124.218 14.0438 125.451 12.577 127.132 12.577C128.023 12.577 128.654 12.8734 129.004 13.4814H129.034V9.66602H130.51V17.5628C130.51 18.2012 130.526 18.8092 130.564 19.3488H129.255V19.3564ZM129.042 15.4499C129.042 14.5226 128.426 13.7246 127.482 13.7246C126.386 13.7246 125.717 14.6975 125.717 16.0579C125.717 17.3956 126.409 18.3153 127.452 18.3153C128.38 18.3153 129.042 17.5096 129.042 16.552V15.4499ZM139.901 19.5084C137.96 19.5084 136.697 18.0568 136.697 16.0883C136.697 14.0362 137.983 12.577 140.007 12.577C141.925 12.577 143.21 13.9602 143.21 15.9819C143.21 18.0568 141.887 19.5084 139.901 19.5084ZM139.954 13.6562C138.888 13.6562 138.203 14.6518 138.203 16.0503C138.203 17.4184 138.904 18.414 139.938 18.414C140.981 18.414 141.674 17.3499 141.674 16.0199C141.681 14.6671 140.996 13.6562 139.954 13.6562ZM151.162 19.3564H149.686V15.5411C149.686 14.3631 149.237 13.7778 148.347 13.7778C147.471 13.7778 146.871 14.5302 146.871 15.4043V19.3564H145.394V14.6138C145.394 14.0287 145.379 13.3978 145.341 12.7138H146.642L146.711 13.7398H146.749C147.145 13.033 147.951 12.577 148.856 12.577C150.249 12.577 151.17 13.6411 151.17 15.3815V19.3564H151.162ZM161.1 13.8234H159.472V17.0459C159.472 17.8668 159.753 18.2772 160.331 18.2772C160.59 18.2772 160.81 18.2468 160.986 18.2088L161.024 19.326C160.735 19.4325 160.354 19.4933 159.875 19.4933C158.71 19.4933 158.01 18.8549 158.01 17.1675V13.8158H157.037V12.7062H158.01V11.4901L159.464 11.0493V12.7062H161.093L161.1 13.8234ZM168.93 19.3564H167.453V15.5715C167.453 14.3859 167.005 13.7854 166.114 13.7854C165.346 13.7854 164.638 14.3023 164.638 15.3587V19.3641H163.162V9.66602H164.638V13.6562H164.669C165.133 12.9342 165.81 12.577 166.67 12.577C168.078 12.577 168.937 13.6714 168.937 15.4043L168.93 19.3564ZM176.942 16.3923H172.506C172.537 17.6464 173.366 18.3608 174.599 18.3608C175.253 18.3608 175.862 18.2544 176.394 18.0492L176.623 19.0752C175.991 19.3488 175.253 19.4857 174.393 19.4857C172.316 19.4857 171.084 18.1708 171.084 16.1415C171.084 14.1046 172.346 12.577 174.226 12.577C175.922 12.577 176.988 13.831 176.988 15.7311C177.003 15.9439 176.988 16.1719 176.942 16.3923ZM175.588 15.3359C175.588 14.3098 175.071 13.5878 174.127 13.5878C173.275 13.5878 172.605 14.325 172.514 15.3359H175.588Z" fill="black"/>
</svg>
