<svg width="138" height="189" viewBox="0 0 138 189" fill="none" xmlns="http://www.w3.org/2000/svg">
<g opacity="0.7">
<path opacity="0.3" d="M22.3244 106.825C22.2179 106.826 22.1136 106.795 22.0253 106.736C21.937 106.677 21.8687 106.593 21.8296 106.495C21.7757 106.364 21.7759 106.217 21.8301 106.086C21.8844 105.955 21.9885 105.85 22.12 105.794L49.9658 94.7047C50.5522 93.0876 51.0512 91.4409 51.4608 89.7714C51.5899 89.0272 51.1274 87.9109 50.0949 86.4756C49.6969 85.9227 36.5215 66.9022 34.392 63.8402L2.3408 79.8944C2.27886 79.9275 2.21085 79.9479 2.14078 79.9546C2.07071 79.9612 2 79.9539 1.93283 79.9331C1.86566 79.9123 1.80339 79.8784 1.74969 79.8334C1.696 79.7884 1.65196 79.7332 1.62018 79.6711C1.58691 79.6085 1.56664 79.5399 1.56054 79.4693C1.55445 79.3988 1.56267 79.3278 1.58471 79.2605C1.60675 79.1931 1.64217 79.1308 1.68889 79.0772C1.73561 79.0236 1.7927 78.9797 1.8568 78.9482L34.3274 62.6813C34.444 62.6245 34.5771 62.6104 34.7032 62.6416C34.8292 62.6727 34.94 62.7471 35.0158 62.8514C35.1771 63.0747 50.5574 85.2848 50.9661 85.8589C51.7512 86.9221 52.7622 88.5488 52.5256 89.9416C52.289 91.3343 50.9661 95.1193 50.9123 95.2575C50.8867 95.3311 50.8457 95.3984 50.7919 95.4552C50.7382 95.512 50.6729 95.5569 50.6004 95.5871L22.5287 106.761C22.4661 106.797 22.3964 106.819 22.3244 106.825Z" fill="#2D64E3"/>
<path opacity="0.3" d="M15.6451 107.091C15.5579 107.09 15.4722 107.068 15.3954 107.028C15.3186 106.987 15.2529 106.928 15.2041 106.857L13.935 105.028C13.8537 104.911 13.8227 104.767 13.8489 104.627C13.8752 104.488 13.9564 104.364 14.0748 104.284C14.1932 104.203 14.339 104.173 14.4802 104.199C14.6214 104.225 14.7464 104.305 14.8277 104.422L16.0968 106.261C16.173 106.378 16.201 106.519 16.1749 106.656C16.1489 106.792 16.0709 106.914 15.957 106.995C15.865 107.057 15.7564 107.09 15.6451 107.091Z" fill="#2D64E3"/>
<path opacity="0.3" d="M12.8278 103.019C12.7406 103.018 12.6549 102.997 12.5781 102.956C12.5013 102.915 12.4356 102.856 12.3868 102.785L0.0933403 85.0191C0.0498776 84.956 0.0206635 84.8845 0.00767238 84.8093C-0.00531871 84.734 -0.00178193 84.6569 0.0180526 84.5832C0.039347 84.5094 0.0762427 84.4409 0.126303 84.3823C0.176363 84.3236 0.238452 84.2761 0.308454 84.243L32.4349 69.3583C32.5482 69.3029 32.6779 69.2896 32.8003 69.3208C32.9227 69.352 33.0297 69.4257 33.1017 69.5284L50.3857 93.3758C50.4674 93.4908 50.5007 93.6327 50.4787 93.7715C50.4566 93.9104 50.3808 94.0353 50.2674 94.12C50.2096 94.1608 50.1442 94.1899 50.075 94.2056C50.0057 94.2212 49.9341 94.2232 49.8641 94.2113C49.7941 94.1995 49.7271 94.174 49.6671 94.1364C49.6071 94.0989 49.5553 94.0499 49.5145 93.9924L32.4887 70.4746L1.29795 84.9341L13.2365 102.19C13.3143 102.307 13.3422 102.45 13.3139 102.587C13.2857 102.724 13.2038 102.845 13.0859 102.923C13.0105 102.978 12.9211 103.011 12.8278 103.019Z" fill="#2D64E3"/>
<path opacity="0.3" d="M49.1163 92.674H49.0088C48.8704 92.6433 48.7494 92.5609 48.6712 92.4439C48.593 92.327 48.5636 92.1846 48.5893 92.0467L49.3207 88.7721L33.8436 65.9879L6.09461 79.416L4.94378 82.7757C4.89504 82.9084 4.79585 83.0171 4.66731 83.0787C4.53876 83.1402 4.391 83.1498 4.25544 83.1053C4.12198 83.0593 4.01218 82.9633 3.94978 82.838C3.88739 82.7126 3.87742 82.568 3.92202 82.4355L5.14814 78.8632C5.19386 78.7298 5.29029 78.6192 5.41703 78.5548L33.8329 64.829C33.9502 64.771 34.0849 64.7573 34.2116 64.7906C34.3384 64.8239 34.4485 64.9018 34.5212 65.0098L50.4177 88.4C50.4604 88.4574 50.4901 88.5231 50.5049 88.5928C50.5198 88.6625 50.5194 88.7345 50.5038 88.804L49.7294 92.3019C49.6917 92.4278 49.6083 92.5355 49.4951 92.6042C49.3819 92.6729 49.247 92.6978 49.1163 92.674Z" fill="#2D64E3"/>
<path opacity="0.3" d="M47.5361 87.2515L45.1484 83.9344C45.1484 83.9344 48.203 82.616 50.9241 81.1169C53.6452 79.6178 56.9579 77.5021 56.9579 77.5021L54.71 81.9994L59.4747 82.1801L47.5361 87.2515Z" fill="#2D64E3"/>
<path opacity="0.3" d="M39.0921 188.733H39.0276C38.9419 188.72 38.8604 188.686 38.7896 188.637C38.7188 188.587 38.6604 188.522 38.6189 188.446L18.9365 151.235C18.8832 151.101 18.8832 150.953 18.9365 150.82C18.9822 150.687 19.0786 150.576 19.2054 150.512L21.4317 149.448C21.5571 149.397 21.6975 149.394 21.8249 149.441C21.9523 149.487 22.0571 149.58 22.1184 149.699C22.1796 149.819 22.1928 149.957 22.1552 150.086C22.1176 150.215 22.0321 150.326 21.9157 150.395L20.1841 151.256L39.2535 187.33L71.7026 153.159C71.7637 153.093 71.8418 153.046 71.9285 153.021L111.476 140.954L91.912 110.121L90.4708 110.227C90.3998 110.235 90.3281 110.228 90.26 110.207C90.1919 110.186 90.1288 110.151 90.0744 110.106C90.0201 110.06 89.9758 110.004 89.9441 109.941C89.9124 109.878 89.894 109.809 89.89 109.738C89.8811 109.599 89.928 109.462 90.0206 109.356C90.1132 109.251 90.244 109.186 90.3848 109.175L92.1594 109.037C92.2569 109.027 92.3551 109.045 92.4427 109.088C92.5303 109.131 92.6036 109.198 92.6542 109.281L112.756 140.996C112.792 141.069 112.811 141.149 112.811 141.23C112.811 141.311 112.792 141.391 112.756 141.464C112.727 141.541 112.681 141.61 112.621 141.667C112.562 141.724 112.49 141.767 112.412 141.793L72.3264 154.01L39.4901 188.585C39.3825 188.684 39.2394 188.738 39.0921 188.733Z" fill="#2D64E3"/>
<path opacity="0.3" d="M39.5238 183.662H39.4378C39.3577 183.648 39.282 183.615 39.2167 183.567C39.1514 183.519 39.0982 183.457 39.0613 183.385L20.2393 147.864C20.1799 147.756 20.1614 147.63 20.187 147.509C20.2126 147.389 20.2807 147.281 20.3792 147.205C20.4652 147.131 29.3062 139.975 33.4793 130.066C37.3297 120.923 43.9551 116.383 51.2042 117.914C51.2794 117.93 51.3502 117.962 51.4115 118.008C51.4728 118.054 51.5232 118.113 51.5591 118.18L69.1012 149.47C69.1518 149.56 69.1749 149.662 69.1677 149.765C69.1605 149.867 69.1233 149.966 69.0607 150.048C68.9981 150.13 68.9127 150.192 68.8149 150.228C68.7171 150.263 68.6111 150.269 68.5097 150.246C68.2193 150.182 61.3036 148.768 59.744 155.349C58.0662 162.387 50.7202 171.446 47.1924 175.794L46.8052 176.283C44.6953 178.875 42.383 181.3 39.8895 183.534C39.7874 183.619 39.6574 183.665 39.5238 183.662ZM21.3794 147.737L39.6636 182.269C41.9169 180.199 44.016 177.971 45.9448 175.603L46.332 175.114C49.8168 170.861 57.0874 161.898 58.6685 155.094C60.0774 149.183 65.3153 148.885 67.617 149.055L50.731 118.892C44.1271 117.627 38.0611 121.933 34.458 130.47C30.6506 139.508 23.068 146.301 21.3794 147.737Z" fill="#2D64E3"/>
<path opacity="0.3" d="M68.6155 150.214C68.5198 150.215 68.4255 150.191 68.3424 150.145C68.2592 150.098 68.1901 150.03 68.1423 149.948L50.6002 118.648C50.563 118.53 50.563 118.404 50.6002 118.286C51.8693 112.439 58.3656 109.781 71.6593 109.781C83.2644 109.781 87.9645 106.134 88.0075 106.102C88.0673 106.054 88.1363 106.019 88.2103 105.999C88.2844 105.979 88.3618 105.974 88.4378 105.985C88.5125 105.999 88.5836 106.027 88.6466 106.069C88.7095 106.111 88.7629 106.166 88.8034 106.23L108.486 137.945C108.557 138.063 108.579 138.203 108.549 138.338C108.519 138.472 108.439 138.59 108.325 138.668C108.271 138.668 106.883 139.582 98.7737 142.112C93.1486 143.877 86.9428 143.633 81.9415 143.441C79.9569 143.331 77.9676 143.331 75.983 143.441C71.2721 143.824 69.1963 149.82 69.1748 149.82C69.1417 149.919 69.0803 150.005 68.9981 150.069C68.916 150.134 68.8166 150.173 68.7123 150.182L68.6155 150.214ZM51.6434 118.318L68.5402 148.47C69.4222 146.556 71.7023 142.74 75.8432 142.399C77.8708 142.289 79.9031 142.289 81.9307 142.399C86.8352 142.591 92.9443 142.825 98.3973 141.124C101.389 140.257 104.329 139.228 107.206 138.04L88.1366 107.293C86.6308 108.26 81.6296 110.865 71.6055 110.865C59.0647 110.876 52.8911 113.215 51.6434 118.318Z" fill="#2D64E3"/>
<path opacity="0.3" d="M53.2156 170.968C53.0956 170.97 52.9783 170.933 52.8822 170.861C52.7707 170.772 52.6992 170.642 52.6831 170.501C52.667 170.36 52.7076 170.218 52.7962 170.106C54.872 167.533 56.5176 165.258 57.9695 163.249C59.5711 160.801 61.4473 158.54 63.5624 156.508C65.4133 154.936 67.4767 153.627 69.693 152.617C69.7571 152.589 69.8263 152.574 69.8964 152.573C69.9665 152.572 70.0362 152.584 70.1013 152.61C70.1664 152.636 70.2256 152.674 70.2756 152.723C70.3255 152.771 70.3651 152.829 70.3921 152.893C70.4467 153.023 70.4481 153.169 70.3959 153.3C70.3437 153.431 70.2421 153.537 70.1124 153.595C67.9994 154.565 66.0307 155.818 64.2615 157.316C62.224 159.295 60.4199 161.496 58.8838 163.876C57.421 165.896 55.7647 168.129 53.6674 170.776C53.6129 170.841 53.5435 170.893 53.4649 170.926C53.3864 170.959 53.3009 170.973 53.2156 170.968Z" fill="#2D64E3"/>
<path opacity="0.3" d="M73.3161 151.096C73.1977 151.098 73.0829 151.056 72.9934 150.979C72.881 150.893 72.8077 150.766 72.7895 150.627C72.7714 150.487 72.8099 150.347 72.8967 150.235C74.9279 147.804 77.8126 146.221 80.974 145.802L82.8992 145.653C91.1505 145.205 99.2698 143.409 106.927 140.337C107.061 140.286 107.21 140.29 107.341 140.348C107.472 140.406 107.575 140.513 107.626 140.645C107.677 140.778 107.673 140.925 107.615 141.054C107.556 141.184 107.448 141.285 107.314 141.336C99.5573 144.435 91.3382 146.252 82.9852 146.716L81.0708 146.865C78.2074 147.261 75.596 148.698 73.7463 150.894C73.6936 150.957 73.6278 151.007 73.5536 151.042C73.4793 151.077 73.3983 151.095 73.3161 151.096Z" fill="#2D64E3"/>
<path opacity="0.3" d="M27.1215 152.787C27.0166 152.787 26.9137 152.758 26.8256 152.701C26.7375 152.645 26.668 152.564 26.6257 152.469C26.5834 152.374 26.5701 152.269 26.5875 152.167C26.6049 152.065 26.6522 151.97 26.7236 151.894C30.3798 147.739 33.7913 143.38 36.9412 138.838C43.018 130.268 47.4815 126.77 52.3537 126.77C52.4964 126.77 52.6332 126.826 52.734 126.926C52.8349 127.026 52.8915 127.161 52.8915 127.302C52.8915 127.443 52.8349 127.578 52.734 127.678C52.6332 127.778 52.4964 127.834 52.3537 127.834C47.8795 127.834 43.6634 131.204 37.8232 139.454C34.641 144.029 31.201 148.424 27.5195 152.617C27.4687 152.671 27.4071 152.714 27.3386 152.743C27.2701 152.772 27.1962 152.787 27.1215 152.787Z" fill="#2D64E3"/>
<path opacity="0.3" d="M30.5414 158.284C30.4063 158.285 30.2758 158.235 30.1758 158.145C30.1257 158.097 30.0859 158.039 30.0587 157.975C30.0316 157.911 30.0176 157.843 30.0176 157.773C30.0176 157.704 30.0316 157.635 30.0587 157.571C30.0859 157.508 30.1257 157.45 30.1758 157.401C33.8286 153.237 37.2434 148.875 40.4042 144.335C46.4702 135.765 50.9337 132.267 55.8167 132.267C55.9585 132.27 56.0936 132.327 56.1939 132.426C56.2942 132.525 56.3517 132.659 56.3545 132.799C56.3545 132.94 56.2978 133.075 56.197 133.175C56.0961 133.274 55.9593 133.33 55.8167 133.33C51.3317 133.33 47.1263 136.701 41.2754 144.951C38.0932 149.526 34.6532 153.92 30.9717 158.113C30.9173 158.172 30.8505 158.217 30.776 158.247C30.7016 158.276 30.6215 158.289 30.5414 158.284Z" fill="#2D64E3"/>
<path opacity="0.3" d="M33.9614 163.78C33.8585 163.779 33.7581 163.749 33.6721 163.693C33.5862 163.637 33.5182 163.558 33.4763 163.465C33.4344 163.372 33.4203 163.269 33.4358 163.169C33.4512 163.068 33.4956 162.974 33.5635 162.898C37.2149 158.736 40.6297 154.378 43.7919 149.842C49.858 141.262 54.3215 137.764 59.2044 137.764C59.3462 137.767 59.4814 137.823 59.5816 137.923C59.6819 138.022 59.7394 138.155 59.7422 138.295C59.7422 138.436 59.6855 138.572 59.5847 138.671C59.4838 138.771 59.347 138.827 59.2044 138.827C54.7194 138.827 50.514 142.197 44.6738 150.448C41.4863 155.022 38.0428 159.416 34.3594 163.61C34.309 163.665 34.2475 163.708 34.1789 163.737C34.1103 163.767 34.0362 163.781 33.9614 163.78Z" fill="#2D64E3"/>
<path opacity="0.3" d="M37.3822 169.277C37.3168 169.278 37.2517 169.267 37.1908 169.243C37.1298 169.219 37.0743 169.184 37.0273 169.139C36.9772 169.09 36.9375 169.032 36.9103 168.968C36.8831 168.905 36.8691 168.836 36.8691 168.767C36.8691 168.697 36.8831 168.629 36.9103 168.565C36.9375 168.501 36.9772 168.443 37.0273 168.395C40.6829 164.236 44.0978 159.878 47.2557 155.339C53.3218 146.759 57.7853 143.271 62.6683 143.271C62.8109 143.271 62.9477 143.327 63.0485 143.427C63.1494 143.527 63.206 143.662 63.206 143.803C63.206 143.944 63.1494 144.079 63.0485 144.179C62.9477 144.278 62.8109 144.334 62.6683 144.334C58.1832 144.334 53.9779 147.694 48.1377 155.945C44.9579 160.524 41.514 164.919 37.8232 169.107C37.7682 169.167 37.6997 169.214 37.6231 169.244C37.5466 169.273 37.4641 169.285 37.3822 169.277Z" fill="#2D64E3"/>
<path opacity="0.3" d="M58.3452 125.304H58.1623C58.03 125.253 57.9226 125.154 57.8624 125.027C57.8023 124.901 57.7941 124.756 57.8397 124.623C57.8397 124.57 59.7649 119.615 66.444 119.615C78.9741 119.615 87.1052 117.702 88.1807 114.48C88.2264 114.339 88.3268 114.222 88.4599 114.154C88.5258 114.121 88.5978 114.1 88.6717 114.094C88.7456 114.088 88.8199 114.096 88.8906 114.119C88.9612 114.141 89.0267 114.177 89.0833 114.224C89.1399 114.272 89.1865 114.33 89.2204 114.395C89.2544 114.46 89.275 114.531 89.2812 114.604C89.2873 114.677 89.2789 114.751 89.2563 114.82C87.5462 119.924 74.2632 120.679 66.4978 120.679C60.5608 120.679 58.969 124.804 58.8722 124.985C58.8282 125.085 58.7539 125.169 58.6596 125.226C58.5653 125.283 58.4555 125.31 58.3452 125.304Z" fill="#2D64E3"/>
<path opacity="0.3" d="M62.1952 131.64C62.0754 131.641 61.9586 131.604 61.8618 131.534C61.751 131.446 61.6798 131.319 61.6636 131.179C61.6475 131.04 61.6878 130.9 61.7758 130.789C61.9048 130.619 65.0024 126.771 73.3163 126.771C82.2541 126.771 88.8902 124.697 93.0525 120.583C93.1531 120.485 93.2882 120.431 93.429 120.431C93.5697 120.431 93.7049 120.485 93.8054 120.583C93.8558 120.632 93.8958 120.691 93.9231 120.756C93.9504 120.821 93.9645 120.89 93.9645 120.96C93.9645 121.03 93.9504 121.1 93.9231 121.165C93.8958 121.23 93.8558 121.288 93.8054 121.338C89.4495 125.654 82.5552 127.887 73.3163 127.887C65.5939 127.887 62.6469 131.459 62.6254 131.491C62.5691 131.546 62.5014 131.587 62.4271 131.613C62.3527 131.639 62.2736 131.648 62.1952 131.64Z" fill="#2D64E3"/>
<path opacity="0.3" d="M64.765 137.987C64.6869 137.985 64.61 137.967 64.5391 137.934C64.4749 137.905 64.4172 137.864 64.3693 137.813C64.3214 137.762 64.2843 137.702 64.2602 137.637C64.2362 137.572 64.2256 137.502 64.2292 137.433C64.2328 137.363 64.2504 137.295 64.281 137.232C65.276 135.403 66.7725 133.888 68.5987 132.861C70.425 131.835 72.5072 131.337 74.6062 131.427C83.5978 131.427 91.4707 129.567 95.6761 126.462C95.732 126.419 95.7963 126.387 95.8649 126.369C95.9335 126.351 96.0051 126.347 96.0755 126.357C96.1458 126.367 96.2134 126.39 96.2741 126.427C96.3349 126.463 96.3875 126.511 96.429 126.568C96.5118 126.682 96.5469 126.823 96.5269 126.962C96.5068 127.101 96.4332 127.226 96.3214 127.313C90.008 131.98 79.0267 132.49 74.6062 132.49C72.7116 132.403 70.8301 132.843 69.1759 133.76C67.5216 134.677 66.1611 136.035 65.249 137.679C65.2073 137.771 65.1393 137.849 65.0534 137.904C64.9674 137.959 64.8672 137.988 64.765 137.987Z" fill="#2D64E3"/>
<path opacity="0.3" d="M67.756 142.633C67.7063 142.643 67.6552 142.643 67.6054 142.633C67.4701 142.591 67.3565 142.499 67.2883 142.377C67.2201 142.254 67.2027 142.109 67.2398 141.974C67.3043 141.783 68.724 137.381 76.2851 136.945C84.1538 136.534 91.899 134.834 99.2049 131.916C99.2703 131.879 99.343 131.856 99.4182 131.848C99.4933 131.84 99.5693 131.848 99.6411 131.872C99.7129 131.895 99.779 131.933 99.835 131.983C99.891 132.033 99.9356 132.094 99.966 132.163C99.9964 132.231 100.012 132.305 100.011 132.38C100.011 132.455 99.9947 132.528 99.9634 132.596C99.9322 132.664 99.8868 132.725 99.8303 132.775C99.7737 132.824 99.7072 132.861 99.6351 132.884C92.2168 135.864 84.3463 137.596 76.3496 138.008C69.5844 138.402 68.3261 142.123 68.2723 142.261C68.2378 142.37 68.169 142.464 68.0761 142.531C67.9832 142.598 67.871 142.634 67.756 142.633Z" fill="#2D64E3"/>
<path opacity="0.3" d="M84.0289 31.2535H83.8998L80.0063 30.2966C79.9243 30.2759 79.8483 30.2364 79.7847 30.1812C79.721 30.126 79.6715 30.0567 79.64 29.979C79.6086 29.9013 79.5961 29.8173 79.6037 29.7339C79.6113 29.6506 79.6387 29.5702 79.6837 29.4992L97.656 1.64362C97.733 1.52378 97.855 1.43909 97.9952 1.40818C98.1354 1.37728 98.2822 1.40269 98.4035 1.47882C98.5247 1.55496 98.6104 1.67557 98.6416 1.81415C98.6729 1.95272 98.6472 2.0979 98.5702 2.21774L80.9958 29.4461L83.7922 30.1371L101.549 4.0358C101.626 3.92353 101.743 3.84379 101.876 3.8123C102.01 3.78081 102.15 3.79986 102.27 3.86568L130.568 19.9943L133.644 16.9536L102.722 1.00571C102.595 0.940851 102.499 0.828801 102.456 0.694215C102.412 0.559629 102.425 0.413527 102.491 0.288048C102.556 0.162569 102.669 0.0679896 102.806 0.0251214C102.942 -0.0177468 103.09 -0.00539701 103.217 0.0594574L134.794 16.3901C134.87 16.4279 134.935 16.4836 134.984 16.5522C135.033 16.6208 135.064 16.7002 135.074 16.7835C135.087 16.8644 135.08 16.9472 135.054 17.0249C135.028 17.1026 134.983 17.173 134.924 17.23L131.041 21.0787C130.957 21.1607 130.849 21.2134 130.733 21.2288C130.616 21.2441 130.498 21.2213 130.396 21.1638L102.163 5.07772L84.4698 31.0834C84.4148 31.1438 84.3463 31.1906 84.2698 31.2201C84.1932 31.2497 84.1107 31.2611 84.0289 31.2535Z" fill="#2D64E3"/>
<path opacity="0.3" d="M133.568 64.3825C133.478 64.3829 133.389 64.361 133.31 64.3187L109.508 50.8693C109.439 50.8304 109.379 50.7769 109.332 50.7126C109.286 50.6483 109.254 50.5748 109.239 50.4972L101.463 4.3972C101.442 4.25636 101.477 4.11272 101.561 3.99733C101.646 3.88193 101.773 3.80405 101.915 3.78055C101.985 3.76998 102.056 3.77316 102.125 3.7899C102.194 3.80663 102.258 3.8366 102.315 3.87808C102.372 3.91956 102.42 3.97174 102.457 4.03163C102.493 4.09152 102.518 4.15794 102.528 4.22709L110.261 50.0719L133.009 62.894L129.686 23.0775C129.679 22.9376 129.727 22.8006 129.819 22.6941C129.91 22.5875 130.04 22.5194 130.18 22.5034C130.251 22.4975 130.322 22.5056 130.39 22.5271C130.457 22.5485 130.52 22.583 130.574 22.6284C130.628 22.6739 130.672 22.7294 130.704 22.7919C130.736 22.8544 130.756 22.9225 130.761 22.9924L134.085 63.8083C134.094 63.9046 134.077 64.0018 134.033 64.0884C133.989 64.175 133.921 64.2475 133.837 64.2974C133.759 64.3528 133.665 64.3825 133.568 64.3825Z" fill="#2D64E3"/>
<path opacity="0.3" d="M133.569 64.3825C133.477 64.3818 133.386 64.3577 133.307 64.3127C133.227 64.2677 133.16 64.2032 133.112 64.1253C133.065 64.0475 133.038 63.9589 133.035 63.868C133.032 63.7772 133.053 63.6871 133.095 63.6063L136.914 56.5361L134.01 16.8366C134.005 16.7668 134.014 16.6967 134.036 16.6303C134.059 16.5639 134.094 16.5026 134.141 16.4498C134.234 16.3431 134.367 16.2776 134.51 16.2678C134.652 16.2579 134.793 16.3044 134.901 16.3971C135.009 16.4899 135.075 16.6212 135.085 16.7621L138 56.6531C138.001 56.7524 137.979 56.8507 137.935 56.9401L134.085 64.0954C134.037 64.188 133.962 64.2645 133.87 64.3155C133.779 64.3666 133.674 64.3898 133.569 64.3825Z" fill="#2D64E3"/>
<path opacity="0.3" d="M93.7416 72.6009H93.6341C93.5316 72.5821 93.437 72.5337 93.3623 72.4618C93.2877 72.3898 93.2362 72.2977 93.2146 72.1968L84.9544 34.7406C84.9256 34.6012 84.9535 34.4561 85.032 34.3367C85.1105 34.2174 85.2333 34.1333 85.3739 34.1027C85.4431 34.0887 85.5144 34.0884 85.5838 34.1016C85.6531 34.1149 85.7191 34.1416 85.7781 34.1801C85.837 34.2186 85.8877 34.2682 85.9272 34.3261C85.9667 34.3839 85.9943 34.4489 86.0085 34.5173L94.0105 70.8147L109.348 50.0931C109.432 49.9789 109.558 49.9024 109.7 49.8805C109.841 49.8586 109.985 49.893 110.101 49.9762C110.216 50.0593 110.294 50.1845 110.316 50.324C110.338 50.4636 110.303 50.6062 110.219 50.7204L94.1826 72.3351C94.1392 72.4138 94.0756 72.4797 93.9981 72.5264C93.9207 72.5731 93.8323 72.5987 93.7416 72.6009Z" fill="#2D64E3"/>
<path opacity="0.3" d="M93.741 72.601H93.6765L89.3098 72.1225C89.1986 72.1096 89.0943 72.0627 89.0114 71.9884C88.9285 71.914 88.8712 71.816 88.8473 71.7079L79.6192 29.9245C79.6043 29.8547 79.6035 29.7826 79.6169 29.7125C79.6302 29.6424 79.6574 29.5756 79.6968 29.5159C79.7363 29.4562 79.7872 29.4047 79.8468 29.3644C79.9064 29.3242 79.9734 29.2959 80.044 29.2812C80.1146 29.2666 80.1875 29.2658 80.2584 29.279C80.3293 29.2922 80.3969 29.319 80.4573 29.358C80.5178 29.397 80.5698 29.4474 80.6105 29.5063C80.6513 29.5651 80.6799 29.6314 80.6947 29.7012L89.8476 71.1019L93.8271 71.5378C93.9697 71.5378 94.1065 71.5938 94.2073 71.6935C94.3082 71.7932 94.3648 71.9284 94.3648 72.0694C94.3648 72.2104 94.3082 72.3456 94.2073 72.4453C94.1065 72.545 93.9697 72.601 93.8271 72.601H93.741Z" fill="#2D64E3"/>
<path opacity="0.3" d="M90.3415 37.9729C90.2425 37.9734 90.1453 37.9469 90.0605 37.8963C89.9758 37.8457 89.9068 37.773 89.8612 37.6862C89.8156 37.5993 89.7952 37.5017 89.8021 37.4041C89.809 37.3065 89.8431 37.2127 89.9005 37.1329L102.538 19.8455C102.578 19.7879 102.629 19.739 102.688 19.7017C102.748 19.6645 102.814 19.6396 102.884 19.6286C102.953 19.6177 103.024 19.6209 103.092 19.6381C103.161 19.6552 103.225 19.686 103.28 19.7285C103.338 19.7688 103.388 19.8201 103.426 19.8794C103.464 19.9387 103.49 20.0048 103.502 20.074C103.514 20.1432 103.512 20.2141 103.496 20.2825C103.48 20.351 103.451 20.4156 103.409 20.4727L90.7717 37.7602C90.7222 37.8269 90.6574 37.8809 90.5825 37.9179C90.5077 37.9549 90.4251 37.9737 90.3415 37.9729Z" fill="#2D64E3"/>
<path opacity="0.3" d="M91.3091 46.138C91.1978 46.1374 91.0892 46.1041 90.9972 46.0423C90.8838 45.9576 90.808 45.8326 90.7859 45.6938C90.7639 45.5549 90.7972 45.4131 90.8789 45.298L103.506 28.0105C103.546 27.9527 103.598 27.9036 103.659 27.8662C103.719 27.8288 103.787 27.8039 103.857 27.7929C103.927 27.782 103.999 27.7853 104.068 27.8026C104.137 27.8199 104.202 27.8508 104.259 27.8936C104.371 27.9764 104.447 28.0995 104.469 28.2366C104.491 28.3737 104.458 28.5138 104.377 28.6272L91.7501 45.9147C91.7007 45.9848 91.6347 46.0418 91.5578 46.0807C91.4809 46.1197 91.3955 46.1393 91.3091 46.138Z" fill="#2D64E3"/>
<path opacity="0.3" d="M92.2789 54.3035C92.1657 54.3044 92.0556 54.2669 91.967 54.1972C91.8543 54.1144 91.7788 53.9913 91.7567 53.8542C91.7346 53.7171 91.7676 53.577 91.8487 53.4636L104.476 36.1761C104.516 36.1186 104.568 36.0697 104.628 36.0321C104.688 35.9945 104.755 35.9691 104.825 35.9572C104.895 35.9454 104.967 35.9473 105.036 35.963C105.105 35.9787 105.171 36.0077 105.228 36.0485C105.342 36.1332 105.418 36.2582 105.44 36.397C105.462 36.5359 105.428 36.6778 105.347 36.7928L92.7199 54.0803C92.6705 54.1504 92.6045 54.2074 92.5276 54.2463C92.4507 54.2853 92.3653 54.3049 92.2789 54.3035Z" fill="#2D64E3"/>
<path opacity="0.3" d="M93.2129 62.4686C93.0996 62.4704 92.9892 62.4328 92.901 62.3623C92.8429 62.322 92.7934 62.2708 92.7554 62.2115C92.7174 62.1522 92.6916 62.086 92.6796 62.0168C92.6676 61.9476 92.6696 61.8767 92.6854 61.8083C92.7013 61.7399 92.7307 61.6752 92.772 61.6181L105.41 44.3306C105.493 44.2192 105.618 44.1446 105.757 44.1227C105.895 44.1009 106.037 44.1335 106.152 44.2136C106.21 44.2539 106.259 44.3052 106.297 44.3645C106.335 44.4238 106.361 44.49 106.373 44.5592C106.385 44.6284 106.383 44.6992 106.367 44.7677C106.351 44.8361 106.322 44.9007 106.281 44.9579L93.6432 62.2454C93.5942 62.3133 93.5298 62.369 93.455 62.4078C93.3803 62.4466 93.2974 62.4674 93.2129 62.4686Z" fill="#2D64E3"/>
<path opacity="0.3" d="M125.319 30.775C125.224 30.7769 125.131 30.751 125.05 30.7006L108.046 21.1319C107.922 21.0614 107.831 20.945 107.794 20.8085C107.757 20.6719 107.776 20.5262 107.847 20.4036C107.918 20.2809 108.036 20.1913 108.174 20.1544C108.312 20.1175 108.46 20.1364 108.584 20.2069L125.588 29.7756C125.711 29.8486 125.8 29.9663 125.836 30.1034C125.872 30.2405 125.853 30.3862 125.782 30.5092C125.735 30.5896 125.668 30.6564 125.586 30.703C125.505 30.7496 125.413 30.7745 125.319 30.775Z" fill="#2D64E3"/>
<path opacity="0.3" d="M125.318 38.4514C125.225 38.4518 125.132 38.4299 125.049 38.3876L108.045 28.8188C107.976 28.7882 107.915 28.7437 107.865 28.6882C107.815 28.6326 107.777 28.5674 107.754 28.4965C107.731 28.4257 107.724 28.3509 107.732 28.2769C107.74 28.203 107.764 28.1315 107.801 28.0672C107.839 28.0029 107.89 27.9472 107.951 27.9036C108.012 27.86 108.082 27.8296 108.155 27.8143C108.229 27.7989 108.305 27.799 108.379 27.8146C108.452 27.8301 108.522 27.8608 108.583 27.9045L125.587 37.4732C125.709 37.5442 125.798 37.66 125.834 37.7954C125.87 37.9307 125.851 38.0748 125.781 38.1962C125.732 38.2746 125.664 38.3392 125.583 38.384C125.502 38.4287 125.411 38.4519 125.318 38.4514Z" fill="#2D64E3"/>
<path opacity="0.3" d="M127.739 46.6167C127.649 46.6158 127.56 46.594 127.481 46.5529L110.476 36.9842C110.352 36.9149 110.261 36.7999 110.223 36.6644C110.185 36.5289 110.202 36.3839 110.272 36.2612C110.344 36.138 110.462 36.0477 110.601 36.0099C110.74 35.9721 110.888 35.9898 111.014 36.0592L128.008 45.6279C128.07 45.6611 128.125 45.7065 128.169 45.7612C128.214 45.8159 128.246 45.8789 128.265 45.9464C128.284 46.0139 128.29 46.0845 128.28 46.154C128.271 46.2235 128.248 46.2905 128.212 46.3509C128.164 46.4328 128.095 46.5006 128.012 46.5473C127.929 46.5941 127.834 46.618 127.739 46.6167Z" fill="#2D64E3"/>
<path opacity="0.3" d="M128.233 54.7819C128.138 54.7838 128.045 54.7579 127.965 54.7075L110.96 45.1388C110.899 45.1039 110.845 45.0573 110.802 45.0018C110.758 44.9464 110.727 44.883 110.708 44.8154C110.69 44.7477 110.685 44.6772 110.694 44.6077C110.703 44.5382 110.726 44.4712 110.761 44.4105C110.797 44.3497 110.844 44.2965 110.9 44.2537C110.956 44.211 111.02 44.1796 111.088 44.1613C111.157 44.143 111.228 44.1383 111.298 44.1473C111.369 44.1563 111.437 44.1789 111.498 44.2138L128.502 53.7825C128.603 53.8417 128.682 53.9319 128.726 54.0394C128.77 54.1469 128.778 54.2657 128.747 54.3777C128.717 54.4898 128.65 54.5889 128.557 54.6599C128.465 54.731 128.351 54.7701 128.233 54.7713V54.7819Z" fill="#2D64E3"/>
</g>
</svg>
