<svg width="263" height="187" viewBox="0 0 263 187" fill="none" xmlns="http://www.w3.org/2000/svg">
<g opacity="0.7">
<path opacity="0.3" d="M173.869 155.485C173.94 155.575 173.98 155.684 173.985 155.8C173.99 155.917 173.959 156.033 173.896 156.136C173.812 156.274 173.679 156.378 173.524 156.425C173.369 156.473 173.206 156.459 173.068 156.388L144.684 140.784C142.831 141.435 141.01 142.181 139.226 143.019C138.466 143.438 137.759 144.618 137.137 146.505C136.897 147.232 128.323 171.807 126.948 175.771L162.603 191.401C162.674 191.43 162.737 191.472 162.789 191.527C162.841 191.581 162.881 191.646 162.907 191.717C162.932 191.788 162.942 191.865 162.937 191.942C162.931 192.019 162.91 192.095 162.875 192.166C162.84 192.239 162.791 192.304 162.731 192.359C162.671 192.414 162.602 192.458 162.526 192.487C162.45 192.516 162.371 192.53 162.291 192.529C162.212 192.528 162.134 192.511 162.064 192.479L125.94 176.646C125.812 176.588 125.711 176.486 125.656 176.358C125.602 176.229 125.596 176.083 125.641 175.946C125.737 175.651 135.753 146.959 136.004 146.208C136.451 144.793 137.261 142.789 138.68 142.001C140.098 141.214 144.401 139.647 144.562 139.595C144.645 139.564 144.734 139.551 144.82 139.556C144.907 139.561 144.991 139.584 145.066 139.624L173.676 155.358C173.75 155.386 173.816 155.429 173.869 155.485Z" fill="#2D64E3"/>
<path opacity="0.3" d="M178.507 160.925C178.563 160.998 178.6 161.086 178.614 161.18C178.627 161.273 178.617 161.37 178.585 161.462L177.762 163.827C177.709 163.978 177.599 164.106 177.455 164.183C177.311 164.26 177.146 164.279 176.995 164.236C176.844 164.193 176.721 164.092 176.651 163.955C176.582 163.817 176.572 163.655 176.625 163.504L177.457 161.131C177.513 160.985 177.623 160.861 177.763 160.786C177.904 160.711 178.066 160.691 178.214 160.73C178.331 160.763 178.433 160.831 178.507 160.925Z" fill="#2D64E3"/>
<path opacity="0.3" d="M176.669 166.183C176.725 166.257 176.762 166.345 176.776 166.439C176.789 166.532 176.779 166.629 176.747 166.721L168.729 189.664C168.701 189.746 168.655 189.821 168.595 189.885C168.536 189.949 168.464 190.001 168.384 190.036C168.303 190.071 168.216 190.088 168.13 190.088C168.044 190.087 167.96 190.068 167.884 190.033L133.24 173.511C133.115 173.455 133.018 173.355 132.965 173.229C132.913 173.104 132.909 172.962 132.955 172.828L143.202 141.372C143.253 141.222 143.359 141.093 143.5 141.013C143.64 140.933 143.803 140.909 143.955 140.944C144.03 140.964 144.099 140.999 144.159 141.046C144.219 141.093 144.268 141.152 144.303 141.219C144.338 141.287 144.359 141.361 144.365 141.438C144.37 141.516 144.36 141.594 144.335 141.669L134.217 172.675L167.859 188.71L175.648 166.427C175.703 166.278 175.814 166.153 175.957 166.08C176.1 166.006 176.264 165.99 176.412 166.034C176.511 166.058 176.6 166.11 176.669 166.183Z" fill="#2D64E3"/>
<path opacity="0.3" d="M143.402 142.938L143.473 143.029C143.536 143.167 143.541 143.327 143.486 143.476C143.432 143.625 143.322 143.75 143.18 143.826L139.729 145.53L129.257 174.711L159.699 188.577L163.503 187.166C163.655 187.113 163.819 187.12 163.96 187.185C164.1 187.249 164.206 187.367 164.255 187.513C164.301 187.658 164.286 187.818 164.214 187.96C164.141 188.101 164.017 188.212 163.867 188.268L159.821 189.766C159.67 189.822 159.506 189.819 159.364 189.758L128.213 175.541C128.084 175.483 127.982 175.38 127.929 175.249C127.876 175.119 127.874 174.971 127.924 174.833L138.67 144.869C138.694 144.793 138.734 144.721 138.787 144.659C138.841 144.597 138.906 144.547 138.98 144.511L142.661 142.685C142.8 142.628 142.953 142.622 143.089 142.668C143.226 142.715 143.338 142.811 143.402 142.938Z" fill="#2D64E3"/>
<path opacity="0.3" d="M139.527 148.112L138.09 152.473C138.09 152.473 134.884 150.834 131.734 149.603C128.583 148.373 124.484 147.081 124.484 147.081L130.042 145.789L127.07 141.646L139.527 148.112Z" fill="#2D64E3"/>
<path opacity="0.3" d="M237.104 83.3309L237.147 83.3852C237.19 83.4673 237.214 83.5594 237.216 83.6543C237.217 83.7492 237.196 83.8445 237.155 83.933L216.369 126.878C216.283 127.017 216.149 127.122 215.993 127.172C215.842 127.228 215.678 127.225 215.536 127.164L213.107 126.041C212.977 125.972 212.882 125.856 212.841 125.716C212.799 125.575 212.814 125.421 212.882 125.285C212.95 125.148 213.067 125.039 213.209 124.98C213.351 124.92 213.507 124.914 213.646 124.963L215.567 125.812L235.725 84.1892L183.381 81.0585C183.281 81.0535 183.186 81.0215 183.107 80.9661L146.132 56.1955L131.052 94.5218L132.098 95.6607C132.151 95.7153 132.192 95.7807 132.218 95.8529C132.244 95.9251 132.254 96.0026 132.248 96.0808C132.243 96.1589 132.221 96.236 132.184 96.3075C132.148 96.379 132.098 96.4433 132.036 96.4965C131.916 96.6027 131.761 96.6604 131.604 96.6571C131.448 96.6538 131.302 96.5898 131.2 96.4789L129.906 95.0816C129.833 95.0065 129.785 94.9111 129.766 94.8066C129.748 94.7022 129.76 94.5929 129.802 94.4916L145.329 55.0871C145.371 55.0051 145.431 54.9326 145.505 54.8751C145.578 54.8177 145.663 54.7768 145.753 54.7557C145.841 54.7258 145.935 54.7154 146.025 54.7252C146.116 54.7349 146.203 54.7646 146.278 54.8121L183.741 79.9304L236.707 83.101C236.868 83.1212 237.011 83.2038 237.104 83.3309Z" fill="#2D64E3"/>
<path opacity="0.3" d="M232.222 86.5612L232.278 86.6337C232.318 86.7113 232.339 86.798 232.338 86.8869C232.338 86.976 232.316 87.0648 232.275 87.1467L212.455 128.169C212.396 128.296 212.294 128.401 212.168 128.465C212.042 128.529 211.899 128.548 211.766 128.519C211.642 128.499 199.334 126.119 187.602 129.623C176.776 132.857 168.299 130.491 164.915 123.299C164.88 123.224 164.863 123.142 164.864 123.058C164.865 122.974 164.885 122.89 164.923 122.812L181.748 85.8651C181.796 85.7588 181.874 85.6667 181.972 85.6001C182.07 85.5335 182.183 85.4951 182.299 85.4896C182.415 85.4842 182.528 85.5119 182.624 85.5694C182.72 85.6269 182.796 85.7118 182.841 85.8136C182.975 86.1035 186.245 92.9319 193.239 89.5834C200.725 86.0108 213.775 85.7825 220.04 85.6741L220.738 85.6538C224.477 85.5952 228.198 85.8258 231.865 86.3435C232.01 86.3693 232.136 86.4467 232.222 86.5612ZM211.589 127.299L230.867 87.4302C227.507 86.9981 224.105 86.8078 220.687 86.8608L219.989 86.881C213.839 86.9579 200.926 87.1819 193.715 90.6704C187.428 93.6712 183.71 89.469 182.349 87.4094L166.114 123.005C169.313 129.465 177.211 131.525 187.324 128.512C198.025 125.318 209.176 126.893 211.589 127.299Z" fill="#2D64E3"/>
<path opacity="0.3" d="M182.741 85.7457C182.805 85.8254 182.846 85.9218 182.858 86.0249C182.87 86.1281 182.854 86.2344 182.812 86.3327L165.977 123.287C165.894 123.401 165.78 123.491 165.649 123.543C159.511 126.616 152.825 123.026 144.074 111.826C136.435 102.048 130.035 100.672 129.977 100.658C129.895 100.642 129.818 100.608 129.751 100.56C129.684 100.512 129.628 100.45 129.588 100.379C129.551 100.306 129.53 100.226 129.527 100.143C129.524 100.06 129.538 99.9766 129.569 99.8974L145.371 60.8463C145.432 60.7029 145.544 60.5843 145.686 60.5144C145.827 60.4446 145.987 60.4287 146.133 60.4701C146.169 60.5154 147.911 61.0366 155.543 66.0764C160.847 69.5653 164.71 74.9671 167.828 79.3163C169.034 81.0667 170.344 82.7427 171.75 84.3364C175.198 88.0343 182.002 85.5351 182.016 85.5532C182.127 85.5115 182.246 85.5019 182.358 85.5256C182.471 85.5494 182.572 85.6053 182.649 85.6867L182.741 85.7457ZM164.991 122.641L181.21 87.0444C178.894 87.6571 173.932 88.4401 170.898 85.1924C169.463 83.5624 168.125 81.8502 166.891 80.0635C163.836 75.7959 160.027 70.4831 154.895 67.094C152.14 65.1875 149.271 63.4391 146.301 61.8569L130.972 99.706C132.841 100.289 138.495 102.658 145.093 111.103C153.357 121.661 159.542 125.206 164.991 122.641Z" fill="#2D64E3"/>
<path opacity="0.3" d="M211.7 84.0192C211.781 84.1186 211.825 84.244 211.823 84.3754C211.815 84.5328 211.745 84.6846 211.628 84.7982C211.51 84.9118 211.355 84.978 211.195 84.9827C207.496 85.0565 204.35 85.282 201.572 85.4822C198.298 85.8671 195.013 85.8883 191.778 85.5456C189.134 85.0998 186.589 84.2892 184.214 83.1372C184.147 83.1029 184.088 83.0553 184.04 82.9971C183.993 82.9389 183.959 82.8712 183.939 82.7981C183.92 82.7251 183.915 82.648 183.927 82.5714C183.938 82.4949 183.964 82.4204 184.005 82.3523C184.087 82.2142 184.218 82.1098 184.371 82.061C184.524 82.0122 184.687 82.0229 184.825 82.0908C187.096 83.1836 189.527 83.9552 192.051 84.3841C195.186 84.6989 198.369 84.6598 201.539 84.2676C204.333 84.0689 207.448 83.8826 211.229 83.7741C211.324 83.7739 211.416 83.7961 211.498 83.8387C211.58 83.8813 211.649 83.9432 211.7 84.0192Z" fill="#2D64E3"/>
<path opacity="0.3" d="M180.449 81.1606C180.528 81.2594 180.566 81.3856 180.555 81.5153C180.551 81.6711 180.484 81.8226 180.37 81.9367C180.255 82.0508 180.102 82.1182 179.944 82.1241C176.403 82.1349 173.068 80.8262 170.607 78.4597L169.205 76.9431C163.368 70.3083 156.394 64.7403 148.568 60.4655C148.434 60.3885 148.34 60.2602 148.306 60.1088C148.272 59.9574 148.301 59.7952 148.388 59.6581C148.474 59.521 148.61 59.42 148.766 59.3775C148.922 59.3349 149.085 59.3543 149.22 59.4313C157.135 63.7713 164.193 69.4085 170.112 76.1174L171.507 77.6249C173.751 79.7567 176.773 80.9391 179.982 80.9412C180.074 80.9415 180.163 80.9612 180.243 80.9991C180.324 81.0369 180.394 81.092 180.449 81.1606Z" fill="#2D64E3"/>
<path opacity="0.3" d="M212.389 118.883C212.458 118.971 212.499 119.078 212.506 119.192C212.513 119.307 212.486 119.422 212.427 119.525C212.369 119.628 212.282 119.714 212.178 119.772C212.074 119.829 211.957 119.857 211.841 119.851C205.667 119.714 199.468 119.928 193.276 120.492C181.506 121.443 175.396 120.16 172.189 116.055C172.095 115.935 172.056 115.78 172.08 115.624C172.104 115.469 172.189 115.325 172.317 115.225C172.445 115.126 172.605 115.078 172.761 115.092C172.918 115.106 173.059 115.182 173.153 115.302C176.098 119.072 181.929 120.236 193.255 119.312C199.498 118.752 205.747 118.537 211.972 118.668C212.055 118.672 212.134 118.694 212.206 118.731C212.278 118.768 212.34 118.819 212.389 118.883Z" fill="#2D64E3"/>
<path opacity="0.3" d="M215.121 112.107C215.211 112.22 215.252 112.365 215.236 112.513C215.225 112.589 215.199 112.664 215.159 112.732C215.119 112.8 215.066 112.86 215.003 112.909C214.94 112.959 214.869 112.995 214.793 113.018C214.717 113.04 214.638 113.048 214.561 113.04C208.381 112.912 202.178 113.126 195.98 113.679C184.217 114.639 178.107 113.357 174.893 109.243C174.802 109.121 174.765 108.967 174.788 108.813C174.812 108.658 174.896 108.515 175.021 108.413C175.149 108.313 175.309 108.265 175.465 108.28C175.622 108.294 175.763 108.369 175.857 108.49C178.809 112.268 184.633 113.424 195.966 112.508C202.209 111.948 208.458 111.733 214.683 111.865C214.772 111.869 214.857 111.893 214.933 111.935C215.009 111.977 215.073 112.035 215.121 112.107Z" fill="#2D64E3"/>
<path opacity="0.3" d="M217.854 105.331C217.921 105.419 217.959 105.525 217.965 105.637C217.971 105.749 217.944 105.862 217.888 105.963C217.831 106.064 217.747 106.149 217.646 106.207C217.544 106.265 217.43 106.295 217.316 106.292C211.139 106.163 204.939 106.374 198.744 106.923C186.971 107.891 180.861 106.609 177.647 102.495C177.556 102.373 177.519 102.219 177.543 102.064C177.567 101.91 177.65 101.766 177.775 101.665C177.903 101.565 178.063 101.517 178.22 101.531C178.377 101.546 178.517 101.621 178.611 101.741C181.563 105.52 187.388 106.675 198.713 105.751C204.959 105.196 211.21 104.984 217.438 105.116C217.52 105.12 217.6 105.141 217.672 105.178C217.744 105.215 217.806 105.267 217.854 105.331Z" fill="#2D64E3"/>
<path opacity="0.3" d="M220.587 98.5554C220.631 98.6096 220.664 98.6726 220.682 98.7408C220.701 98.8089 220.705 98.8808 220.695 98.9523C220.684 99.0289 220.658 99.1034 220.618 99.1716C220.578 99.2397 220.525 99.3001 220.462 99.3492C220.399 99.3983 220.328 99.4351 220.252 99.4575C220.176 99.4799 220.097 99.4874 220.021 99.4796C213.844 99.3455 207.644 99.5564 201.449 100.111C189.676 101.079 183.576 99.7891 180.362 95.6751C180.268 95.5549 180.228 95.4 180.252 95.2444C180.276 95.0888 180.362 94.9453 180.49 94.8454C180.617 94.7455 180.777 94.6975 180.934 94.7118C181.091 94.7262 181.232 94.8017 181.326 94.9219C184.278 98.7006 190.093 99.8635 201.418 98.9391C207.664 98.3738 213.915 98.1619 220.143 98.3044C220.234 98.3079 220.321 98.3325 220.398 98.3761C220.475 98.4196 220.54 98.4811 220.587 98.5554Z" fill="#2D64E3"/>
<path opacity="0.3" d="M166.916 112.047L167.036 112.201C167.078 112.348 167.059 112.509 166.983 112.649C166.908 112.79 166.782 112.899 166.631 112.955C166.583 112.993 160.823 114.881 156.427 109.253C148.179 98.6965 141.091 93.2017 137.462 94.5778C137.305 94.6392 137.132 94.6377 136.983 94.5736C136.909 94.5418 136.843 94.4957 136.789 94.4377C136.735 94.3798 136.694 94.3112 136.667 94.2358C136.641 94.1605 136.631 94.0799 136.636 93.9987C136.642 93.9175 136.664 93.8372 136.7 93.7624C136.737 93.6876 136.788 93.6198 136.85 93.5629C136.913 93.506 136.985 93.461 137.063 93.4306C142.816 91.256 152.244 101.912 157.356 108.455C161.264 113.457 166.052 111.875 166.28 111.829C166.399 111.795 166.525 111.798 166.639 111.837C166.753 111.876 166.849 111.949 166.916 112.047Z" fill="#2D64E3"/>
<path opacity="0.3" d="M170.126 104.314C170.206 104.414 170.249 104.539 170.249 104.67C170.243 104.826 170.174 104.976 170.058 105.088C169.943 105.201 169.789 105.266 169.631 105.27C169.392 105.282 163.863 105.399 158.39 98.394C152.507 90.8638 146.259 86.7416 139.788 86.1496C139.634 86.1339 139.495 86.0587 139.403 85.9401C139.31 85.8215 139.271 85.669 139.293 85.5153C139.304 85.4378 139.331 85.3625 139.372 85.2936C139.413 85.2247 139.467 85.1636 139.53 85.1139C139.594 85.0642 139.666 85.0268 139.743 85.0039C139.82 84.981 139.899 84.9731 139.977 84.9806C146.759 85.5925 153.321 89.8192 159.403 97.6031C164.486 104.109 169.665 104.061 169.708 104.057C169.795 104.066 169.877 104.093 169.949 104.138C170.021 104.182 170.082 104.242 170.126 104.314Z" fill="#2D64E3"/>
<path opacity="0.3" d="M174.19 97.6518C174.239 97.7194 174.273 97.7969 174.29 97.8797C174.307 97.9541 174.308 98.0318 174.293 98.1083C174.278 98.1848 174.248 98.2585 174.205 98.3251C174.161 98.3917 174.105 98.4499 174.04 98.4961C173.974 98.5423 173.901 98.5757 173.824 98.5943C171.51 99.052 169.152 98.8644 167.018 98.0531C164.885 97.2419 163.064 95.8398 161.764 94.0077C155.845 86.4322 148.976 81.1172 143.392 79.7735C143.316 79.7571 143.245 79.7254 143.184 79.6804C143.122 79.6354 143.071 79.5781 143.034 79.5118C142.997 79.4455 142.974 79.3716 142.967 79.2947C142.96 79.2177 142.969 79.1392 142.993 79.0639C143.042 78.9135 143.147 78.784 143.286 78.7026C143.425 78.6212 143.587 78.5942 143.739 78.6272C152.127 80.6398 159.818 89.5302 162.728 93.2545C163.895 94.9129 165.533 96.1865 167.453 96.9304C169.374 97.6743 171.501 97.8587 173.592 97.4624C173.703 97.4322 173.819 97.4341 173.925 97.4677C174.031 97.5013 174.123 97.5653 174.19 97.6518Z" fill="#2D64E3"/>
<path opacity="0.3" d="M176.434 91.8411C176.475 91.876 176.509 91.9191 176.533 91.9679C176.584 92.1116 176.576 92.2725 176.509 92.417C176.442 92.5616 176.323 92.6784 176.176 92.743C175.96 92.8242 171.034 94.7464 165.662 88.6849C160.109 82.3468 153.47 77.0253 146.015 72.9373C145.938 72.9086 145.869 72.8639 145.813 72.806C145.756 72.7481 145.713 72.6784 145.687 72.6014C145.661 72.5245 145.652 72.4419 145.661 72.3592C145.669 72.2765 145.696 72.1955 145.738 72.1214C145.78 72.0473 145.836 71.9819 145.904 71.9293C145.972 71.8768 146.05 71.8383 146.132 71.8164C146.215 71.7945 146.3 71.7897 146.382 71.8023C146.464 71.8149 146.541 71.8445 146.609 71.8894C154.194 76.0282 160.946 81.4321 166.583 87.8773C171.393 93.2984 175.596 91.7223 175.757 91.6697C175.878 91.622 176.009 91.6128 176.131 91.6437C176.253 91.6745 176.359 91.7437 176.434 91.8411Z" fill="#2D64E3"/>
<path opacity="0.3" d="M64.7281 157.037L64.8131 157.146L66.5083 161.104C66.5435 161.188 66.5576 161.28 66.5495 161.373C66.5413 161.466 66.5111 161.556 66.4614 161.638C66.4116 161.719 66.3437 161.789 66.2631 161.842C66.1825 161.895 66.0916 161.929 65.9976 161.941L28.9089 166.533C28.7495 166.553 28.5924 166.51 28.4721 166.414C28.3518 166.318 28.2782 166.176 28.2674 166.02C28.2566 165.864 28.3096 165.706 28.4147 165.582C28.5198 165.457 28.6683 165.376 28.8277 165.356L65.0857 160.873L63.8716 158.028L28.5152 161.558C28.3628 161.573 28.2137 161.531 28.0974 161.441C27.981 161.351 27.9058 161.219 27.8866 161.072L23.8848 125.804L19.1027 125.367L24.9959 162.717C25.0206 162.87 24.982 163.03 24.8885 163.162C24.795 163.294 24.6543 163.387 24.4974 163.42C24.3404 163.454 24.18 163.425 24.0515 163.341C23.923 163.257 23.8369 163.124 23.8122 162.971L17.8342 124.796C17.8187 124.706 17.8263 124.611 17.8564 124.522C17.8865 124.432 17.9382 124.35 18.0069 124.282C18.0717 124.214 18.1513 124.161 18.2391 124.128C18.3268 124.095 18.42 124.083 18.5109 124.093L24.5566 124.637C24.6858 124.649 24.8048 124.703 24.8955 124.791C24.9861 124.878 25.0434 124.994 25.0585 125.121L29.0564 160.304L64.2836 156.786C64.3746 156.79 64.4621 156.814 64.5393 156.858C64.6165 156.902 64.6812 156.963 64.7281 157.037Z" fill="#2D64E3"/>
<path opacity="0.3" d="M62.1601 91.8292C62.2199 91.9047 62.2584 91.9951 62.2722 92.0918L65.7442 121.673C65.7546 121.759 65.7457 121.848 65.718 121.933C65.6903 122.017 65.6445 122.096 65.5837 122.163L28.9004 161.374C28.787 161.492 28.6336 161.565 28.4733 161.575C28.313 161.586 28.1588 161.534 28.0439 161.431C27.9883 161.379 27.9442 161.317 27.9142 161.247C27.8841 161.177 27.8687 161.102 27.8689 161.024C27.869 160.947 27.8846 160.869 27.9149 160.796C27.9452 160.723 27.9895 160.656 28.0453 160.598L64.5255 121.604L61.1786 93.3549L27.2619 124.363C27.1393 124.467 26.9838 124.524 26.8267 124.522C26.6697 124.52 26.5228 124.46 26.4156 124.353C26.3639 124.297 26.3243 124.232 26.2994 124.159C26.2744 124.087 26.2645 124.01 26.2702 123.933C26.2758 123.855 26.297 123.778 26.3325 123.707C26.368 123.635 26.417 123.571 26.4768 123.517L61.2997 91.8009C61.3805 91.7243 61.4804 91.6706 61.5878 91.6462C61.6951 91.6218 61.8055 91.6275 61.906 91.6629C62.0079 91.6898 62.0967 91.7479 62.1601 91.8292Z" fill="#2D64E3"/>
<path opacity="0.3" d="M62.1578 91.8289C62.2177 91.9069 62.2553 92 62.267 92.0992C62.2788 92.1984 62.2643 92.3004 62.225 92.3956C62.1856 92.4907 62.1227 92.5758 62.0423 92.6427C61.9618 92.7095 61.8665 92.756 61.7655 92.7775L52.8412 94.5695L18.7544 125.141C18.6944 125.195 18.6249 125.237 18.5499 125.265C18.475 125.293 18.396 125.307 18.3175 125.305C18.1591 125.301 18.0123 125.236 17.9094 125.123C17.8066 125.009 17.7561 124.858 17.7692 124.701C17.7822 124.545 17.8577 124.396 17.979 124.288L52.2322 93.5714C52.3213 93.4998 52.425 93.4488 52.5349 93.4224L61.5576 91.5973C61.6733 91.5724 61.7918 91.581 61.8985 91.6222C62.0052 91.6633 62.0953 91.7352 62.1578 91.8289Z" fill="#2D64E3"/>
<path opacity="0.3" d="M95.8264 119.562L95.8973 119.653C95.9477 119.752 95.966 119.866 95.95 119.98C95.9339 120.094 95.8842 120.203 95.807 120.292L67.2801 153.787C67.1726 153.91 67.0227 153.99 66.8629 154.008C66.703 154.027 66.5459 153.983 66.4256 153.886C66.3673 153.838 66.3201 153.778 66.2865 153.71C66.2529 153.642 66.2336 153.568 66.2297 153.491C66.2258 153.414 66.2374 153.336 66.2639 153.262C66.2903 153.187 66.3311 153.118 66.3839 153.058L94.0298 120.601L65.1445 122.359C64.9855 122.369 64.8329 122.317 64.72 122.213C64.6072 122.11 64.5435 121.964 64.5429 121.808C64.5422 121.652 64.6048 121.498 64.7167 121.38C64.8287 121.263 64.9809 121.191 65.1398 121.181L95.2952 119.379C95.3951 119.36 95.4968 119.367 95.5901 119.399C95.6833 119.431 95.7649 119.487 95.8264 119.562Z" fill="#2D64E3"/>
<path opacity="0.3" d="M95.8259 119.562L95.8684 119.616L98.309 123.634C98.3704 123.737 98.3965 123.858 98.3837 123.981C98.3708 124.103 98.3197 124.221 98.2374 124.318L66.4239 161.694C66.3704 161.756 66.3056 161.807 66.2333 161.846C66.1609 161.884 66.0825 161.909 66.0023 161.918C65.9222 161.927 65.842 161.92 65.7663 161.899C65.6905 161.877 65.6208 161.84 65.561 161.791C65.5013 161.742 65.4526 161.681 65.4179 161.612C65.3831 161.543 65.363 161.467 65.3585 161.389C65.3541 161.31 65.3656 161.231 65.3921 161.155C65.4187 161.079 65.46 161.008 65.5135 160.946L97.0295 123.904L94.8052 120.243C94.7114 120.122 94.6721 119.967 94.6961 119.812C94.7201 119.656 94.8054 119.513 94.9333 119.413C95.0611 119.313 95.221 119.265 95.3778 119.279C95.5346 119.294 95.6754 119.369 95.7693 119.489L95.8259 119.562Z" fill="#2D64E3"/>
<path opacity="0.3" d="M66.6647 146.958C66.7303 147.041 66.7703 147.142 66.7802 147.249C66.7901 147.356 66.7696 147.466 66.7208 147.566C66.6721 147.665 66.5971 147.752 66.504 147.815C66.4109 147.879 66.3034 147.916 66.1934 147.924L42.199 149.524C42.1207 149.532 42.0428 149.523 41.9698 149.5C41.8969 149.476 41.8306 149.438 41.7749 149.387C41.7192 149.336 41.6754 149.274 41.6461 149.204C41.6167 149.135 41.6026 149.059 41.6044 148.982C41.6027 148.904 41.6166 148.826 41.6453 148.752C41.6741 148.678 41.7171 148.61 41.772 148.55C41.8268 148.491 41.8924 148.443 41.9649 148.408C42.0373 148.373 42.1153 148.352 42.1943 148.346L66.1887 146.746C66.2817 146.741 66.3734 146.757 66.4562 146.794C66.5389 146.83 66.6104 146.887 66.6647 146.958Z" fill="#2D64E3"/>
<path opacity="0.3" d="M73.4303 140.358C73.5031 140.452 73.5444 140.567 73.5489 140.688C73.5467 140.844 73.4833 140.996 73.3719 141.113C73.2606 141.23 73.11 141.302 72.9519 141.315L48.9646 142.924C48.8854 142.931 48.8066 142.922 48.7329 142.897C48.6593 142.873 48.5923 142.834 48.5361 142.782C48.4799 142.731 48.4355 142.668 48.4058 142.597C48.376 142.527 48.3614 142.45 48.3629 142.373C48.3638 142.219 48.4258 142.068 48.5355 141.952C48.6453 141.837 48.7941 141.765 48.9503 141.753L72.9376 140.144C73.0336 140.136 73.1288 140.151 73.2147 140.189C73.3007 140.226 73.3747 140.284 73.4303 140.358Z" fill="#2D64E3"/>
<path opacity="0.3" d="M80.1989 133.757C80.2742 133.852 80.3127 133.971 80.3078 134.095C80.3069 134.249 80.245 134.4 80.1352 134.515C80.0255 134.631 79.8766 134.703 79.7205 134.715L55.7332 136.324C55.6542 136.33 55.5757 136.321 55.5021 136.297C55.4286 136.273 55.3614 136.235 55.3046 136.184C55.2478 136.134 55.2024 136.072 55.171 136.002C55.1396 135.933 55.1229 135.857 55.1219 135.78C55.124 135.624 55.1875 135.472 55.2988 135.355C55.4102 135.238 55.5608 135.165 55.7189 135.153L79.7062 133.544C79.8022 133.536 79.8974 133.551 79.9833 133.588C80.0693 133.625 80.1433 133.683 80.1989 133.757Z" fill="#2D64E3"/>
<path opacity="0.3" d="M86.9865 127.184C87.0627 127.279 87.1013 127.398 87.0954 127.522C87.0972 127.6 87.0833 127.678 87.0545 127.752C87.0258 127.826 86.9827 127.895 86.9279 127.954C86.873 128.013 86.8074 128.061 86.735 128.097C86.6625 128.132 86.5845 128.153 86.5055 128.158L62.5111 129.758C62.355 129.767 62.2053 129.715 62.0942 129.613C61.9831 129.512 61.9194 129.369 61.9166 129.216C61.9148 129.138 61.9287 129.06 61.9575 128.986C61.9863 128.912 62.0293 128.844 62.0842 128.784C62.139 128.725 62.2045 128.677 62.277 128.642C62.3495 128.607 62.4275 128.586 62.5065 128.58L86.5009 126.98C86.5947 126.973 86.6876 126.988 86.772 127.023C86.8563 127.059 86.9298 127.114 86.9865 127.184Z" fill="#2D64E3"/>
<path opacity="0.3" d="M37.1146 122.589C37.1788 122.667 37.2169 122.765 37.2241 122.868L39.7405 143.973C39.7582 144.128 39.7124 144.287 39.6131 144.415C39.5139 144.543 39.3692 144.63 39.2111 144.657C39.0529 144.684 38.8942 144.648 38.7698 144.558C38.6454 144.467 38.5655 144.33 38.5478 144.175L36.0313 123.07C36.0167 122.915 36.0648 122.757 36.1653 122.629C36.2658 122.501 36.4107 122.415 36.5691 122.387C36.6729 122.37 36.7778 122.379 36.8735 122.415C36.9692 122.45 37.0523 122.51 37.1146 122.589Z" fill="#2D64E3"/>
<path opacity="0.3" d="M44.0756 117.15C44.1375 117.229 44.1784 117.322 44.1947 117.422L46.7111 138.527C46.7285 138.607 46.7285 138.69 46.7111 138.771C46.6937 138.853 46.6593 138.931 46.6102 139C46.5611 139.07 46.4983 139.129 46.4259 139.175C46.3535 139.22 46.2731 139.251 46.1898 139.265C46.1066 139.278 46.0225 139.275 45.9428 139.254C45.8632 139.234 45.7898 139.197 45.7274 139.146C45.665 139.095 45.6151 139.03 45.5807 138.957C45.5464 138.884 45.5285 138.804 45.5281 138.722L43.0116 117.617C42.9957 117.463 43.0422 117.306 43.1411 117.18C43.2399 117.054 43.3832 116.968 43.5398 116.941C43.6426 116.926 43.746 116.938 43.8399 116.974C43.9338 117.011 44.015 117.072 44.0756 117.15Z" fill="#2D64E3"/>
<path opacity="0.3" d="M49.8857 109.327C49.9442 109.403 49.9826 109.493 49.9978 109.59L52.5142 130.695C52.533 130.848 52.4887 131.006 52.391 131.135C52.2934 131.263 52.1503 131.351 51.9932 131.379C51.834 131.406 51.6743 131.37 51.5486 131.28C51.423 131.19 51.3414 131.052 51.3215 130.897L48.8122 109.801C48.8012 109.725 48.8061 109.646 48.8266 109.57C48.8471 109.494 48.8827 109.422 48.9313 109.358C48.98 109.294 49.0406 109.24 49.1097 109.198C49.1787 109.157 49.2548 109.129 49.3332 109.116C49.439 109.099 49.5459 109.109 49.6431 109.146C49.7402 109.183 49.824 109.245 49.8857 109.327Z" fill="#2D64E3"/>
<path opacity="0.3" d="M56.9642 103.125C57.0284 103.204 57.0665 103.301 57.0737 103.405L59.5901 124.51C59.5989 124.587 59.5922 124.665 59.5703 124.741C59.5485 124.816 59.5119 124.888 59.4628 124.952C59.4136 125.015 59.3528 125.069 59.2838 125.111C59.2148 125.152 59.139 125.18 59.0607 125.194C58.9824 125.207 58.9031 125.205 58.8274 125.188C58.7516 125.171 58.681 125.139 58.6194 125.094C58.5578 125.05 58.5065 124.993 58.4684 124.927C58.4303 124.862 58.4062 124.789 58.3974 124.712L55.8809 103.607C55.8682 103.48 55.8983 103.35 55.9666 103.236C56.0349 103.123 56.1378 103.033 56.2594 102.979C56.3811 102.925 56.5149 102.911 56.6404 102.939C56.7659 102.967 56.8762 103.035 56.9545 103.133L56.9642 103.125Z" fill="#2D64E3"/>
</g>
</svg>
