<svg width="279" height="214" viewBox="0 0 279 214" fill="none" xmlns="http://www.w3.org/2000/svg">
<g opacity="0.5">
<path opacity="0.3" d="M128.463 41.5306C128.476 41.3851 128.532 41.2469 128.625 41.1341C128.718 41.0213 128.842 40.9393 128.983 40.8988C129.171 40.8425 129.374 40.862 129.548 40.9534C129.722 41.0447 129.853 41.2005 129.914 41.3874L141.6 80.8473C143.756 81.8603 145.964 82.758 148.216 83.5367C149.226 83.8108 150.828 83.3266 152.944 82.1064C153.759 81.6361 181.731 66.159 186.235 63.6558L168.241 17.8036C168.204 17.7147 168.184 17.6192 168.184 17.5227C168.184 17.4262 168.204 17.3307 168.241 17.2417C168.279 17.1528 168.333 17.0723 168.403 17.0049C168.472 16.9376 168.554 16.8847 168.643 16.8496C168.734 16.8124 168.832 16.7938 168.93 16.7947C169.028 16.7957 169.125 16.8163 169.215 16.8552C169.305 16.8941 169.386 16.9507 169.454 17.0215C169.522 17.0923 169.575 17.176 169.611 17.2676L187.843 63.7203C187.907 63.8868 187.909 64.0703 187.849 64.2383C187.79 64.4062 187.673 64.5476 187.519 64.6373C187.19 64.828 154.527 82.8942 153.682 83.3764C152.112 84.308 149.734 85.4736 147.842 84.9674C145.95 84.4612 140.897 82.1577 140.713 82.0662C140.615 82.0215 140.528 81.9567 140.456 81.8759C140.385 81.795 140.331 81.7001 140.299 81.5971L128.525 41.8179C128.483 41.7277 128.462 41.6297 128.463 41.5306Z" fill="#2D64E3"/>
<path opacity="0.3" d="M128.964 32.3806C128.976 32.2617 129.017 32.1476 129.083 32.0481C129.149 31.9487 129.239 31.8668 129.344 31.8096L132.034 30.3183C132.206 30.2227 132.409 30.1995 132.598 30.2536C132.787 30.3078 132.947 30.4349 133.043 30.607C133.138 30.7791 133.162 30.9822 133.107 31.1714C133.053 31.3607 132.926 31.5207 132.754 31.6163L130.05 33.1062C129.879 33.1948 129.68 33.2144 129.495 33.1609C129.31 33.1074 129.153 32.985 129.055 32.8188C128.982 32.6851 128.95 32.5325 128.964 32.3806Z" fill="#2D64E3"/>
<path opacity="0.3" d="M134.953 29.0711C134.965 28.9522 135.007 28.8381 135.073 28.7387C135.139 28.6392 135.228 28.5573 135.333 28.5001L161.459 14.0615C161.552 14.0105 161.654 13.9801 161.76 13.9722C161.865 13.9644 161.971 13.9794 162.071 14.0162C162.17 14.0549 162.259 14.1143 162.334 14.1903C162.408 14.2664 162.466 14.3573 162.503 14.4572L178.872 60.2583C178.934 60.4202 178.935 60.599 178.876 60.7619C178.817 60.9249 178.702 61.0612 178.55 61.1459L143.38 81.5946C143.21 81.691 143.01 81.7178 142.821 81.6694C142.633 81.621 142.47 81.5012 142.368 81.3352C142.319 81.251 142.287 81.1579 142.275 81.0613C142.262 80.9648 142.269 80.8667 142.294 80.7728C142.32 80.6788 142.364 80.5908 142.423 80.5139C142.483 80.437 142.557 80.3726 142.642 80.3246L177.324 60.1848L161.42 15.7166L136.045 29.738C135.873 29.8288 135.672 29.848 135.486 29.7914C135.3 29.7349 135.144 29.6071 135.052 29.436C134.986 29.3258 134.952 29.1995 134.953 29.0711Z" fill="#2D64E3"/>
<path opacity="0.3" d="M144.513 79.9551L144.527 79.8083C144.587 79.6235 144.717 79.4692 144.888 79.3779C145.06 79.2866 145.26 79.2653 145.447 79.3185L149.873 80.7475L183.34 62.6248L168.412 22.9892L163.924 20.9765C163.747 20.8925 163.61 20.7429 163.542 20.5594C163.473 20.3758 163.48 20.1729 163.559 19.9938C163.639 19.8177 163.786 19.6805 163.967 19.6118C164.149 19.5432 164.349 19.5486 164.527 19.6269L169.299 21.7703C169.477 21.8503 169.617 21.9964 169.689 22.1778L184.942 62.7626C185.007 62.9303 185.008 63.1159 184.946 63.2845C184.883 63.4532 184.761 63.5932 184.603 63.6782L150.244 82.2936C150.159 82.3442 150.064 82.3761 149.966 82.3872C149.868 82.3983 149.769 82.3883 149.675 82.3578L144.947 80.8407C144.778 80.7728 144.64 80.6447 144.56 80.4812C144.48 80.3176 144.463 80.1303 144.513 79.9551Z" fill="#2D64E3"/>
<path opacity="0.3" d="M152.205 78.5111L157.095 75.6892C157.095 75.6892 158.517 80.0311 160.233 83.9419C161.948 87.8526 164.438 92.6518 164.438 92.6518L158.522 88.9923L157.653 95.4707L152.205 78.5111Z" fill="#2D64E3"/>
<path opacity="0.3" d="M13.2027 53.6336L13.2111 53.5455C13.2414 53.4303 13.2977 53.3236 13.3756 53.2335C13.4535 53.1433 13.551 53.0722 13.6605 53.0256L67.5929 31.0625C67.7837 31.0073 67.9884 31.0268 68.1653 31.1171C68.3435 31.197 68.4836 31.3432 68.556 31.5246L69.7341 34.7028C69.7891 34.8807 69.7747 35.0727 69.6939 35.2404C69.6131 35.4081 69.4718 35.539 69.2984 35.6068C69.1251 35.6747 68.9325 35.6745 68.7594 35.6062C68.5862 35.5379 68.4453 35.4067 68.3649 35.2388L67.4012 32.7623L15.1191 54.0385L58.0719 102.818C58.1544 102.91 58.2102 103.023 58.2333 103.144L69.7477 158.702L114.858 136.061L114.899 134.08C114.898 133.983 114.917 133.886 114.955 133.795C114.992 133.705 115.048 133.624 115.118 133.555C115.188 133.487 115.272 133.434 115.363 133.399C115.454 133.364 115.552 133.348 115.649 133.352C115.843 133.358 116.026 133.44 116.16 133.581C116.293 133.721 116.366 133.908 116.363 134.101L116.323 136.541C116.324 136.676 116.287 136.808 116.215 136.921C116.144 137.035 116.042 137.126 115.921 137.184L69.5225 160.443C69.4172 160.483 69.3043 160.498 69.1924 160.487C69.0805 160.477 68.9725 160.441 68.8766 160.382C68.7745 160.332 68.6847 160.26 68.6138 160.171C68.5428 160.083 68.4925 159.979 68.4664 159.869L56.8165 103.557L13.3564 54.1963C13.233 54.0363 13.1778 53.8341 13.2027 53.6336Z" fill="#2D64E3"/>
<path opacity="0.3" d="M20.1502 54.8883L20.1614 54.7709C20.1915 54.6635 20.246 54.5645 20.3207 54.4817C20.3954 54.3989 20.4882 54.3345 20.592 54.2936L72.0787 33.2823C72.2361 33.2155 72.4122 33.2067 72.5755 33.2576C72.7388 33.3084 72.8788 33.4155 72.9705 33.5598C73.0621 33.6871 81.79 46.6938 94.9267 53.6927C107.049 60.1506 112.454 69.7895 109.397 79.4808C109.366 79.5813 109.312 79.6736 109.241 79.7513C109.169 79.8289 109.082 79.89 108.984 79.9302L63.5059 99.7517C63.3752 99.8089 63.2307 99.8269 63.09 99.8036C62.9492 99.7802 62.8182 99.7166 62.713 99.6203C62.6077 99.524 62.5326 99.3993 62.4968 99.2612C62.461 99.1231 62.4661 98.9776 62.5114 98.8423C62.6372 98.4544 65.489 89.2027 56.6064 86.2084C47.1081 82.9924 35.5583 71.7754 30.0141 66.3889L29.3893 65.7962C26.0855 62.5756 23.0393 59.101 20.2788 55.4042C20.1745 55.2536 20.1288 55.0702 20.1502 54.8883ZM72.1065 34.8549L22.0548 55.2624C24.6191 58.6098 27.4216 61.7676 30.4406 64.7115L31.0654 65.3042C36.4831 70.6195 47.9106 81.7211 57.0986 84.7742C65.0761 87.4749 64.8057 94.6621 64.2714 97.7807L108.109 78.7063C110.714 69.8607 105.559 61.0158 94.2417 54.9752C82.2609 48.59 73.8683 37.3482 72.1065 34.8549Z" fill="#2D64E3"/>
<path opacity="0.3" d="M62.541 98.9934C62.5516 98.8627 62.5969 98.7371 62.6723 98.6297C62.7476 98.5224 62.8502 98.437 62.9695 98.3825L108.463 78.5624C108.63 78.5271 108.804 78.5437 108.962 78.61C116.869 81.1115 119.694 90.3266 117.964 108.468C116.455 124.305 120.878 131.2 120.916 131.262C120.974 131.35 121.013 131.449 121.031 131.553C121.05 131.656 121.046 131.763 121.021 131.865C120.993 131.965 120.944 132.058 120.878 132.139C120.812 132.219 120.729 132.285 120.636 132.332L74.2923 155.018C74.1198 155.099 73.9229 155.112 73.7416 155.053C73.5602 154.995 73.4078 154.869 73.3152 154.703C73.3222 154.629 72.2404 152.616 69.8021 141.216C68.0974 133.307 69.2423 124.87 70.1571 118.07C70.568 115.377 70.8268 112.662 70.9323 109.939C71.0167 103.46 63.0085 99.8377 63.0113 99.8084C62.88 99.7503 62.7686 99.6551 62.6906 99.5345C62.6126 99.414 62.5716 99.2733 62.5725 99.1297L62.541 98.9934ZM108.782 80.0295L64.9579 99.1201C67.4852 100.576 72.4579 104.19 72.3889 109.885C72.2778 112.667 72.0134 115.44 71.5969 118.193C70.6947 124.861 69.5771 133.167 71.2161 140.832C72.0231 145.029 73.0615 149.177 74.3267 153.259L119.255 131.282C118.115 129.1 115.17 121.932 116.474 108.252C118.091 91.1366 115.665 82.4037 108.782 80.0295Z" fill="#2D64E3"/>
<path opacity="0.3" d="M35.8929 75.2436C35.9053 75.0795 35.9722 74.9242 36.0831 74.8026C36.2213 74.6622 36.4091 74.5816 36.606 74.5783C36.803 74.5749 36.9935 74.6489 37.1364 74.7845C40.4184 77.9559 43.3453 80.501 45.9305 82.7469C49.1015 85.2547 51.9791 88.1126 54.5086 91.2664C56.438 93.9993 57.9776 96.9874 59.0831 100.145C59.1133 100.236 59.125 100.332 59.1176 100.428C59.1101 100.524 59.0836 100.617 59.0396 100.703C58.9956 100.788 58.935 100.864 58.8613 100.926C58.7876 100.988 58.7023 101.034 58.6105 101.062C58.424 101.12 58.2224 101.103 58.0484 101.014C57.8744 100.926 57.7417 100.773 57.6782 100.588C56.6133 97.5771 55.1409 94.7258 53.3021 92.1141C50.8354 89.0732 48.032 86.3216 44.9456 83.912C42.3471 81.65 39.4803 79.0958 36.0984 75.8853C36.0156 75.8023 35.9538 75.7008 35.9181 75.5893C35.8823 75.4777 35.8737 75.3592 35.8929 75.2436Z" fill="#2D64E3"/>
<path opacity="0.3" d="M60.7119 105.291C60.7254 105.13 60.7978 104.978 60.9153 104.866C61.0489 104.724 61.2333 104.641 61.4282 104.635C61.6232 104.628 61.8127 104.699 61.9553 104.832C65.0471 107.924 66.8577 112.069 67.0251 116.439L66.9802 119.086C66.5245 130.405 67.9482 141.721 71.1932 152.575C71.2459 152.765 71.221 152.968 71.1241 153.139C71.0272 153.31 70.8663 153.436 70.6766 153.489C70.487 153.541 70.2842 153.516 70.1129 153.419C69.9416 153.323 69.8158 153.162 69.7632 152.972C66.4946 141.979 65.0548 130.523 65.5012 119.063L65.5448 116.431C65.3703 112.471 63.7268 108.718 60.9348 105.905C60.8556 105.825 60.7946 105.729 60.7561 105.623C60.7177 105.517 60.7026 105.404 60.7119 105.291Z" fill="#2D64E3"/>
<path opacity="0.3" d="M64.3863 42.0283C64.399 41.8849 64.4533 41.7485 64.5426 41.6357C64.6319 41.5229 64.7523 41.4386 64.8889 41.3934C65.0254 41.3482 65.1723 41.3439 65.3113 41.3811C65.4502 41.4183 65.5753 41.4953 65.671 41.6027C70.9312 47.1391 76.5054 52.3684 82.366 57.2647C93.4057 66.6853 97.654 73.2369 97.0201 79.8859C97.0016 80.0805 96.9065 80.2598 96.7557 80.3843C96.605 80.5088 96.4109 80.5684 96.2163 80.5498C96.0217 80.5313 95.8424 80.4361 95.7178 80.2854C95.5933 80.1346 95.5338 79.9406 95.5524 79.746C96.1344 73.64 92.0301 67.4429 81.4 58.3871C75.4981 53.4424 69.879 48.1696 64.5694 42.5937C64.5013 42.5173 64.4499 42.4276 64.4184 42.3303C64.3868 42.2329 64.3759 42.1301 64.3863 42.0283Z" fill="#2D64E3"/>
<path opacity="0.3" d="M56.3535 45.9725C56.3697 45.7879 56.4548 45.6163 56.5919 45.4916C56.6653 45.4297 56.7504 45.383 56.8421 45.3543C56.9339 45.3257 57.0305 45.3156 57.1262 45.3247C57.2218 45.3339 57.3147 45.362 57.3994 45.4075C57.4841 45.4529 57.5588 45.5148 57.6193 45.5896C62.8925 51.1225 68.4706 56.3567 74.3275 61.2676C85.3686 70.6736 89.6169 77.2251 88.9817 83.8888C88.9595 84.0819 88.8634 84.2589 88.7135 84.3827C88.5636 84.5065 88.3717 84.5674 88.1778 84.5527C87.9832 84.5342 87.8039 84.4391 87.6794 84.2883C87.5549 84.1376 87.4954 83.9435 87.5139 83.7489C88.0974 77.6283 83.9916 71.4458 73.3629 62.3754C67.461 57.4307 61.842 52.1579 56.5323 46.582C56.459 46.5001 56.4048 46.4029 56.3739 46.2975C56.3429 46.192 56.336 46.081 56.3535 45.9725Z" fill="#2D64E3"/>
<path opacity="0.3" d="M48.3192 49.9165C48.3342 49.7762 48.3891 49.6432 48.4774 49.5332C48.5657 49.4232 48.6837 49.3408 48.8174 49.2959C48.9511 49.2509 49.0949 49.2453 49.2317 49.2796C49.3685 49.314 49.4926 49.3868 49.5893 49.4896C54.8591 55.0203 60.4322 60.2539 66.2828 65.1662C77.3386 74.5736 81.5869 81.1251 80.9516 87.7888C80.9294 87.9819 80.8333 88.1589 80.6834 88.2827C80.5336 88.4065 80.3416 88.4674 80.1478 88.4527C79.9532 88.4342 79.7739 88.339 79.6493 88.1883C79.5248 88.0375 79.4653 87.8435 79.4839 87.6489C80.0673 81.5283 75.9616 75.3458 65.3315 66.29C59.4318 61.3381 53.8133 56.0606 48.5023 50.4819C48.4334 50.4061 48.3815 50.3164 48.3499 50.2189C48.3184 50.1214 48.3079 50.0183 48.3192 49.9165Z" fill="#2D64E3"/>
<path opacity="0.3" d="M40.2875 53.8608C40.2942 53.7712 40.3186 53.6839 40.3593 53.6039C40.4 53.5239 40.4561 53.4527 40.5245 53.3946C40.598 53.3326 40.6831 53.2859 40.7748 53.2573C40.8666 53.2286 40.9631 53.2186 41.0588 53.2277C41.1545 53.2368 41.2474 53.2649 41.332 53.3104C41.4167 53.3559 41.4915 53.4178 41.5519 53.4925C46.8167 59.0284 52.3901 64.2623 58.2455 69.1692C69.3012 78.5765 73.5349 85.1267 72.8996 91.7904C72.8811 91.985 72.786 92.1643 72.6352 92.2888C72.4845 92.4133 72.2904 92.4729 72.0958 92.4543C71.9012 92.4357 71.7219 92.3406 71.5974 92.1899C71.4729 92.0391 71.4133 91.8451 71.4319 91.6505C72.0153 85.5299 67.9243 79.3487 57.2941 70.293C51.3857 65.3509 45.7667 60.0728 40.465 54.4849C40.3888 54.4019 40.333 54.3023 40.3022 54.1939C40.2714 54.0855 40.2664 53.9714 40.2875 53.8608Z" fill="#2D64E3"/>
<path opacity="0.3" d="M98.2673 88.2541L98.2911 88.0046C98.3777 87.8307 98.5282 87.697 98.7112 87.6316C98.8941 87.5662 99.0953 87.5742 99.2725 87.6538C99.3459 87.6608 105.935 90.9401 105.066 100.055C103.436 117.154 105.02 128.503 109.328 130.394C109.517 130.475 109.665 130.628 109.742 130.818C109.779 130.913 109.798 131.014 109.797 131.115C109.796 131.217 109.775 131.317 109.735 131.411C109.695 131.504 109.637 131.589 109.564 131.66C109.491 131.731 109.405 131.787 109.311 131.825C109.216 131.862 109.115 131.881 109.014 131.88C108.912 131.879 108.812 131.857 108.718 131.817C101.895 128.812 102.581 110.586 103.592 99.9884C104.364 91.8864 98.876 89.1712 98.6391 89.0153C98.5064 88.942 98.3995 88.8296 98.333 88.6934C98.2664 88.5572 98.2435 88.4038 98.2673 88.2541Z" fill="#2D64E3"/>
<path opacity="0.3" d="M89.0183 92.6748C89.0329 92.5113 89.0995 92.3567 89.2085 92.2338C89.344 92.0942 89.5292 92.0137 89.7238 92.0101C89.9184 92.0064 90.1065 92.0799 90.2471 92.2144C90.4652 92.4129 95.3755 97.1465 94.294 108.492C93.1312 120.69 95.1301 130.019 100.269 136.24C100.39 136.39 100.448 136.582 100.43 136.774C100.411 136.966 100.318 137.143 100.171 137.268C100.096 137.33 100.01 137.377 99.9168 137.406C99.8238 137.434 99.7261 137.444 99.6292 137.435C99.5323 137.426 99.4382 137.398 99.3523 137.352C99.2664 137.306 99.1905 137.244 99.1288 137.168C93.7364 130.656 91.5509 120.954 92.7528 108.345C93.7574 97.8069 89.2091 93.3151 89.1679 93.2815C89.1 93.1975 89.0515 93.0996 89.0256 92.9948C88.9998 92.89 88.9973 92.7808 89.0183 92.6748Z" fill="#2D64E3"/>
<path opacity="0.3" d="M79.9214 95.3476C79.9351 95.2413 79.97 95.1388 80.0242 95.0463C80.072 94.9625 80.1361 94.8891 80.2128 94.8304C80.2894 94.7718 80.3771 94.7291 80.4705 94.7048C80.5639 94.6806 80.6613 94.6753 80.7568 94.6894C80.8523 94.7034 80.944 94.7364 81.0265 94.7864C83.4224 96.385 85.3191 98.6265 86.499 101.254C87.6789 103.881 88.0942 106.788 87.6973 109.641C86.5276 121.911 88.072 132.9 91.8108 139.048C91.8633 139.13 91.8986 139.222 91.9147 139.318C91.9308 139.414 91.9273 139.512 91.9045 139.607C91.8816 139.701 91.8399 139.791 91.7817 139.869C91.7236 139.947 91.6502 140.012 91.5661 140.061C91.3983 140.159 91.199 140.189 91.0101 140.143C90.8211 140.098 90.6572 139.981 90.5526 139.817C84.9304 130.587 85.6545 115.534 86.2295 109.501C86.5971 106.927 86.2347 104.302 85.1836 101.923C84.1325 99.5451 82.435 97.5097 80.2841 96.0487C80.1622 95.9796 80.063 95.8765 79.9986 95.752C79.9342 95.6275 79.9074 95.487 79.9214 95.3476Z" fill="#2D64E3"/>
<path opacity="0.3" d="M73.1171 98.8166C73.1101 98.7475 73.1168 98.6777 73.1367 98.6111C73.2121 98.432 73.3539 98.289 73.5324 98.2121C73.7109 98.1352 73.9123 98.1305 74.0943 98.1988C74.3501 98.3121 80.2419 100.829 79.8601 111.205C79.4044 121.997 80.7429 132.79 83.821 143.145C83.864 143.239 83.8867 143.341 83.8876 143.445C83.8884 143.548 83.8675 143.651 83.826 143.746C83.7846 143.841 83.7236 143.926 83.647 143.996C83.5704 144.065 83.48 144.118 83.3817 144.151C83.2833 144.183 83.1792 144.195 83.0761 144.184C82.973 144.174 82.8733 144.142 82.7835 144.09C82.6936 144.039 82.6156 143.969 82.5546 143.885C82.4936 143.801 82.4509 143.706 82.4293 143.604C79.2803 133.088 77.9129 122.12 78.3839 111.153C78.7209 101.869 73.7474 99.6617 73.5636 99.5701C73.4184 99.5088 73.2967 99.4025 73.2163 99.2669C73.1359 99.1313 73.1012 98.9735 73.1171 98.8166Z" fill="#2D64E3"/>
<path opacity="0.3" d="M224.764 135.682L224.781 135.506L226.608 130.318C226.648 130.209 226.712 130.111 226.797 130.031C226.881 129.951 226.983 129.893 227.094 129.86C227.206 129.827 227.323 129.822 227.437 129.843C227.552 129.864 227.659 129.912 227.751 129.983L263.869 158.175C264.024 158.296 264.125 158.474 264.149 158.669C264.174 158.864 264.12 159.061 263.999 159.217C263.878 159.372 263.7 159.473 263.505 159.498C263.31 159.522 263.112 159.468 262.957 159.347L227.654 131.78L226.336 135.506L260.06 163.174C260.205 163.293 260.299 163.463 260.326 163.649C260.352 163.835 260.307 164.024 260.201 164.179L234.253 200.674L238.051 205.272L264.09 165.172C264.196 165.008 264.363 164.892 264.555 164.85C264.746 164.809 264.946 164.845 265.111 164.951C265.276 165.057 265.392 165.224 265.433 165.416C265.474 165.607 265.438 165.807 265.332 165.972L238.679 206.916C238.617 207.015 238.532 207.096 238.431 207.154C238.33 207.211 238.216 207.243 238.1 207.246C237.986 207.253 237.873 207.233 237.769 207.187C237.665 207.141 237.574 207.071 237.503 206.982L232.695 201.177C232.592 201.052 232.534 200.898 232.528 200.737C232.522 200.576 232.569 200.417 232.661 200.285L258.541 163.873L224.941 136.306C224.865 136.223 224.81 136.123 224.779 136.015C224.748 135.906 224.743 135.792 224.764 135.682Z" fill="#2D64E3"/>
<path opacity="0.3" d="M172.583 198.928C172.594 198.805 172.636 198.686 172.705 198.584L194.368 167.872C194.431 167.782 194.513 167.707 194.608 167.652C194.702 167.597 194.808 167.564 194.917 167.554L259.571 163.009C259.768 162.998 259.962 163.065 260.11 163.195C260.259 163.326 260.35 163.509 260.364 163.706C260.369 163.803 260.355 163.9 260.323 163.992C260.291 164.083 260.242 164.168 260.177 164.24C260.112 164.312 260.034 164.371 259.947 164.413C259.859 164.455 259.764 164.479 259.667 164.484L195.371 169.004L174.711 198.36L230.111 199.065C230.305 199.074 230.488 199.157 230.623 199.297C230.758 199.436 230.835 199.621 230.839 199.815C230.838 199.913 230.818 200.009 230.779 200.098C230.741 200.187 230.685 200.268 230.615 200.336C230.546 200.403 230.463 200.457 230.373 200.492C230.282 200.528 230.186 200.545 230.088 200.544L173.309 199.708C173.174 199.709 173.043 199.671 172.929 199.6C172.815 199.529 172.724 199.427 172.666 199.306C172.599 199.191 172.57 199.059 172.583 198.928Z" fill="#2D64E3"/>
<path opacity="0.3" d="M172.585 198.928C172.598 198.802 172.643 198.682 172.715 198.579C172.788 198.476 172.886 198.393 172.999 198.339C173.113 198.284 173.239 198.26 173.365 198.268C173.49 198.276 173.612 198.316 173.718 198.384L182.982 204.525L238.166 205.787C238.263 205.789 238.359 205.811 238.448 205.85C238.536 205.889 238.616 205.946 238.683 206.016C238.818 206.158 238.891 206.348 238.886 206.544C238.882 206.74 238.799 206.926 238.657 207.061C238.515 207.196 238.325 207.269 238.129 207.264L182.679 205.992C182.542 205.981 182.409 205.938 182.291 205.866L172.914 199.67C172.793 199.592 172.697 199.48 172.638 199.348C172.58 199.216 172.561 199.07 172.585 198.928Z" fill="#2D64E3"/>
<path opacity="0.3" d="M166.419 143.495L166.433 143.348C166.473 143.21 166.552 143.088 166.661 142.995C166.77 142.903 166.904 142.845 167.046 142.828L219.83 136.485C220.026 136.464 220.223 136.522 220.377 136.644C220.532 136.767 220.632 136.946 220.656 137.142C220.666 137.238 220.657 137.335 220.63 137.428C220.603 137.521 220.557 137.608 220.496 137.683C220.435 137.758 220.36 137.821 220.275 137.867C220.19 137.914 220.097 137.943 220.001 137.953L168.85 144.097L195.462 167.754C195.608 167.884 195.698 168.067 195.709 168.262C195.721 168.458 195.655 168.65 195.525 168.797C195.395 168.943 195.213 169.033 195.017 169.044C194.821 169.056 194.629 168.99 194.482 168.86L166.729 144.131C166.626 144.062 166.543 143.966 166.489 143.854C166.434 143.743 166.41 143.619 166.419 143.495Z" fill="#2D64E3"/>
<path opacity="0.3" d="M166.419 143.495L166.428 143.407L167.656 137.51C167.689 137.36 167.767 137.224 167.88 137.121C167.994 137.018 168.137 136.952 168.289 136.934L227.173 129.839C227.271 129.828 227.37 129.836 227.465 129.864C227.561 129.891 227.649 129.937 227.727 129.999C227.804 130.061 227.868 130.137 227.916 130.223C227.964 130.31 227.994 130.405 228.005 130.504C228.016 130.602 228.008 130.701 227.981 130.796C227.953 130.891 227.907 130.98 227.846 131.058C227.784 131.135 227.708 131.199 227.621 131.247C227.534 131.295 227.439 131.325 227.341 131.336L168.995 138.379L167.876 143.752C167.857 143.947 167.762 144.126 167.611 144.25C167.461 144.375 167.267 144.434 167.072 144.416C166.877 144.397 166.698 144.302 166.574 144.151C166.449 144.001 166.39 143.807 166.408 143.612L166.419 143.495Z" fill="#2D64E3"/>
<path opacity="0.3" d="M214.666 143.413C214.679 143.278 214.728 143.149 214.809 143.04C214.889 142.931 214.999 142.847 215.125 142.796C215.251 142.745 215.388 142.73 215.522 142.752C215.656 142.774 215.781 142.833 215.883 142.922L238.105 162.443C238.179 162.505 238.24 162.581 238.284 162.667C238.328 162.753 238.353 162.847 238.36 162.943C238.366 163.04 238.352 163.136 238.319 163.227C238.287 163.318 238.236 163.401 238.17 163.472C238.107 163.546 238.03 163.606 237.943 163.651C237.856 163.695 237.761 163.721 237.664 163.728C237.567 163.736 237.47 163.724 237.377 163.693C237.285 163.662 237.199 163.614 237.126 163.55L214.904 144.028C214.818 143.952 214.752 143.857 214.711 143.75C214.67 143.643 214.654 143.527 214.666 143.413Z" fill="#2D64E3"/>
<path opacity="0.3" d="M203.268 143.66C203.284 143.508 203.344 143.364 203.441 143.247C203.573 143.103 203.755 143.016 203.95 143.004C204.144 142.992 204.336 143.056 204.484 143.183L226.707 162.69C226.782 162.753 226.843 162.83 226.887 162.918C226.93 163.005 226.956 163.1 226.962 163.198C226.968 163.295 226.954 163.393 226.921 163.485C226.888 163.577 226.837 163.661 226.771 163.733C226.642 163.876 226.462 163.962 226.27 163.974C226.078 163.987 225.888 163.923 225.743 163.798L203.519 144.291C203.429 144.214 203.359 144.117 203.315 144.007C203.271 143.897 203.255 143.777 203.268 143.66Z" fill="#2D64E3"/>
<path opacity="0.3" d="M191.87 143.906C191.884 143.751 191.95 143.606 192.058 143.494C192.187 143.351 192.366 143.265 192.559 143.252C192.751 143.24 192.94 143.304 193.086 143.429L215.309 162.936C215.383 162.999 215.444 163.077 215.488 163.163C215.532 163.25 215.559 163.345 215.566 163.442C215.573 163.539 215.561 163.637 215.53 163.729C215.5 163.821 215.451 163.907 215.387 163.98C215.256 164.124 215.073 164.211 214.879 164.223C214.684 164.235 214.493 164.17 214.344 164.044L192.121 144.537C192.031 144.461 191.961 144.363 191.917 144.253C191.873 144.143 191.857 144.024 191.87 143.906Z" fill="#2D64E3"/>
<path opacity="0.3" d="M180.476 144.108C180.488 143.953 180.555 143.808 180.664 143.697C180.727 143.623 180.804 143.562 180.891 143.518C180.978 143.474 181.072 143.447 181.169 143.44C181.266 143.433 181.364 143.445 181.456 143.475C181.549 143.506 181.634 143.555 181.708 143.619L203.93 163.14C204.073 163.269 204.159 163.449 204.171 163.641C204.184 163.833 204.12 164.022 203.995 164.168C203.931 164.242 203.854 164.303 203.767 164.347C203.68 164.391 203.586 164.417 203.489 164.425C203.392 164.432 203.294 164.42 203.202 164.389C203.109 164.359 203.024 164.31 202.95 164.246L180.728 144.725C180.641 144.649 180.573 144.554 180.529 144.447C180.485 144.34 180.467 144.224 180.476 144.108Z" fill="#2D64E3"/>
<path opacity="0.3" d="M220.052 192.093C220.061 191.963 220.109 191.838 220.189 191.736L235.611 169.789C235.725 169.629 235.897 169.521 236.091 169.488C236.284 169.455 236.483 169.5 236.643 169.614C236.803 169.727 236.911 169.9 236.944 170.093C236.977 170.286 236.932 170.485 236.818 170.645L221.396 192.591C221.28 192.749 221.106 192.855 220.912 192.887C220.718 192.918 220.519 192.872 220.358 192.759C220.254 192.684 220.17 192.583 220.116 192.467C220.062 192.35 220.04 192.221 220.052 192.093Z" fill="#2D64E3"/>
<path opacity="0.3" d="M209.456 191.082C209.468 190.955 209.51 190.832 209.58 190.724L225.002 168.778C225.053 168.688 225.122 168.61 225.205 168.549C225.288 168.488 225.384 168.445 225.484 168.423C225.585 168.401 225.689 168.401 225.79 168.422C225.891 168.443 225.987 168.484 226.071 168.544C226.155 168.604 226.225 168.681 226.277 168.77C226.329 168.859 226.362 168.958 226.374 169.061C226.386 169.163 226.376 169.267 226.345 169.365C226.313 169.464 226.262 169.555 226.194 169.632L210.772 191.578C210.658 191.735 210.487 191.841 210.295 191.873C210.103 191.905 209.907 191.859 209.749 191.747C209.647 191.671 209.566 191.57 209.515 191.453C209.464 191.337 209.444 191.209 209.456 191.082Z" fill="#2D64E3"/>
<path opacity="0.3" d="M197.867 193.31C197.88 193.188 197.922 193.07 197.989 192.966L213.411 171.02C213.523 170.86 213.693 170.751 213.885 170.716C214.077 170.682 214.275 170.725 214.436 170.836C214.596 170.951 214.706 171.124 214.74 171.319C214.774 171.513 214.73 171.713 214.618 171.876L199.197 193.807C199.143 193.888 199.074 193.957 198.992 194.01C198.911 194.064 198.82 194.1 198.724 194.117C198.628 194.134 198.53 194.132 198.436 194.11C198.341 194.089 198.251 194.048 198.173 193.991C198.066 193.915 197.981 193.812 197.928 193.692C197.874 193.572 197.853 193.441 197.867 193.31Z" fill="#2D64E3"/>
<path opacity="0.3" d="M186.532 192.911C186.542 192.781 186.59 192.657 186.67 192.554L202.092 170.608C202.148 170.528 202.219 170.461 202.301 170.409C202.384 170.358 202.475 170.323 202.571 170.306C202.667 170.29 202.765 170.293 202.86 170.314C202.954 170.336 203.044 170.376 203.123 170.432C203.202 170.488 203.27 170.559 203.322 170.642C203.373 170.724 203.408 170.815 203.425 170.911C203.441 171.007 203.438 171.105 203.417 171.2C203.395 171.294 203.355 171.384 203.299 171.463L187.877 193.409C187.782 193.539 187.647 193.635 187.493 193.681C187.339 193.727 187.174 193.722 187.023 193.665C186.873 193.609 186.744 193.505 186.658 193.369C186.572 193.233 186.533 193.073 186.547 192.912L186.532 192.911Z" fill="#2D64E3"/>
</g>
</svg>
