<svg width="138" height="189" viewBox="0 0 138 189" fill="none" xmlns="http://www.w3.org/2000/svg">
<g opacity="0.9">
<path opacity="0.3" d="M22.3244 106.825C22.2179 106.826 22.1136 106.795 22.0253 106.736C21.937 106.677 21.8687 106.593 21.8296 106.495C21.7757 106.364 21.7759 106.217 21.8301 106.086C21.8844 105.955 21.9885 105.85 22.12 105.793L49.9658 94.7043C50.5522 93.0872 51.0512 91.4405 51.4608 89.7711C51.5899 89.0268 51.1274 87.9105 50.0949 86.4752C49.6969 85.9223 36.5215 66.9018 34.392 63.8398L2.3408 79.894C2.27886 79.9271 2.21085 79.9476 2.14078 79.9542C2.07071 79.9608 2 79.9535 1.93283 79.9327C1.86566 79.9119 1.80339 79.878 1.74969 79.833C1.696 79.788 1.65196 79.7329 1.62018 79.6708C1.58691 79.6081 1.56664 79.5395 1.56054 79.469C1.55445 79.3984 1.56267 79.3274 1.58471 79.2601C1.60675 79.1928 1.64217 79.1304 1.68889 79.0768C1.73561 79.0232 1.7927 78.9793 1.8568 78.9478L34.3274 62.681C34.444 62.6241 34.5771 62.61 34.7032 62.6412C34.8292 62.6723 34.94 62.7467 35.0158 62.8511C35.1771 63.0744 50.5574 85.2844 50.9661 85.8585C51.7512 86.9217 52.7622 88.5484 52.5256 89.9412C52.289 91.334 50.9661 95.1189 50.9123 95.2572C50.8867 95.3307 50.8457 95.3981 50.7919 95.4548C50.7382 95.5116 50.6729 95.5566 50.6004 95.5867L22.5287 106.761C22.4661 106.797 22.3964 106.818 22.3244 106.825Z" fill="#2D64E3"/>
<path opacity="0.3" d="M15.6451 107.09C15.5579 107.09 15.4722 107.068 15.3954 107.027C15.3186 106.986 15.2529 106.928 15.2041 106.856L13.935 105.028C13.8537 104.911 13.8227 104.767 13.8489 104.627C13.8752 104.487 13.9564 104.364 14.0748 104.283C14.1932 104.203 14.339 104.173 14.4802 104.198C14.6214 104.224 14.7464 104.305 14.8277 104.422L16.0968 106.261C16.173 106.378 16.201 106.519 16.1749 106.655C16.1489 106.792 16.0709 106.913 15.957 106.995C15.865 107.056 15.7564 107.09 15.6451 107.09Z" fill="#2D64E3"/>
<path opacity="0.3" d="M12.8278 103.019C12.7406 103.019 12.6549 102.997 12.5781 102.956C12.5013 102.915 12.4356 102.857 12.3868 102.785L0.0933403 85.0195C0.0498776 84.9565 0.0206635 84.8849 0.00767238 84.8097C-0.00531871 84.7345 -0.00178193 84.6574 0.0180526 84.5836C0.039347 84.5098 0.0762427 84.4413 0.126303 84.3827C0.176363 84.324 0.238452 84.2766 0.308454 84.2434L32.4349 69.3587C32.5482 69.3033 32.6779 69.29 32.8003 69.3212C32.9227 69.3524 33.0297 69.4261 33.1017 69.5288L50.3857 93.3762C50.4674 93.4912 50.5007 93.6331 50.4787 93.772C50.4566 93.9108 50.3808 94.0357 50.2674 94.1205C50.2096 94.1612 50.1442 94.1903 50.075 94.206C50.0057 94.2217 49.9341 94.2236 49.8641 94.2118C49.7941 94.1999 49.7271 94.1744 49.6671 94.1369C49.6071 94.0993 49.5553 94.0504 49.5145 93.9929L32.4887 70.4751L1.29795 84.9345L13.2365 102.19C13.3143 102.307 13.3422 102.45 13.3139 102.588C13.2857 102.725 13.2038 102.846 13.0859 102.924C13.0105 102.979 12.9211 103.012 12.8278 103.019Z" fill="#2D64E3"/>
<path opacity="0.3" d="M49.1163 92.6737H49.0088C48.8704 92.643 48.7494 92.5605 48.6712 92.4436C48.593 92.3266 48.5636 92.1843 48.5893 92.0464L49.3207 88.7718L33.8436 65.9876L6.09461 79.4157L4.94378 82.7754C4.89504 82.9081 4.79585 83.0168 4.66731 83.0783C4.53876 83.1399 4.391 83.1494 4.25544 83.105C4.12198 83.059 4.01218 82.963 3.94978 82.8376C3.88739 82.7123 3.87742 82.5677 3.92202 82.4351L5.14814 78.8628C5.19386 78.7294 5.29029 78.6189 5.41703 78.5545L33.8329 64.8287C33.9502 64.7707 34.0849 64.757 34.2116 64.7903C34.3384 64.8236 34.4485 64.9015 34.5212 65.0094L50.4177 88.3996C50.4604 88.457 50.4901 88.5228 50.5049 88.5925C50.5198 88.6621 50.5194 88.7341 50.5038 88.8037L49.7294 92.3016C49.6917 92.4275 49.6083 92.5352 49.4951 92.6039C49.3819 92.6726 49.247 92.6974 49.1163 92.6737Z" fill="#2D64E3"/>
<path opacity="0.3" d="M47.5361 87.2514L45.1484 83.9343C45.1484 83.9343 48.203 82.6159 50.9241 81.1168C53.6452 79.6177 56.9579 77.502 56.9579 77.502L54.71 81.9992L59.4747 82.18L47.5361 87.2514Z" fill="#2D64E3"/>
<path opacity="0.3" d="M39.0921 188.734H39.0276C38.9419 188.72 38.8604 188.687 38.7896 188.637C38.7188 188.587 38.6604 188.522 38.6189 188.447L18.9365 151.235C18.8832 151.102 18.8832 150.953 18.9365 150.82C18.9822 150.687 19.0786 150.576 19.2054 150.512L21.4317 149.449C21.5571 149.397 21.6975 149.394 21.8249 149.441C21.9523 149.487 22.0571 149.58 22.1184 149.7C22.1796 149.819 22.1928 149.958 22.1552 150.087C22.1176 150.216 22.0321 150.326 21.9157 150.395L20.1841 151.256L39.2535 187.33L71.7026 153.159C71.7637 153.094 71.8418 153.046 71.9285 153.021L111.476 140.954L91.912 110.121L90.4708 110.228C90.3998 110.235 90.3281 110.228 90.26 110.207C90.1919 110.186 90.1288 110.152 90.0744 110.106C90.0201 110.06 89.9758 110.004 89.9441 109.941C89.9124 109.878 89.894 109.809 89.89 109.739C89.8811 109.599 89.928 109.462 90.0206 109.357C90.1132 109.251 90.244 109.186 90.3848 109.175L92.1594 109.037C92.2569 109.027 92.3551 109.045 92.4427 109.088C92.5303 109.131 92.6036 109.198 92.6542 109.281L112.756 140.996C112.792 141.069 112.811 141.149 112.811 141.23C112.811 141.311 112.792 141.391 112.756 141.464C112.727 141.541 112.681 141.61 112.621 141.667C112.562 141.724 112.49 141.767 112.412 141.794L72.3264 154.01L39.4901 188.585C39.3825 188.684 39.2394 188.738 39.0921 188.734Z" fill="#2D64E3"/>
<path opacity="0.3" d="M39.5238 183.661H39.4378C39.3577 183.647 39.282 183.615 39.2167 183.567C39.1514 183.519 39.0982 183.457 39.0613 183.385L20.2393 147.864C20.1799 147.755 20.1614 147.63 20.187 147.509C20.2126 147.388 20.2807 147.28 20.3792 147.205C20.4652 147.13 29.3062 139.975 33.4793 130.066C37.3297 120.923 43.9551 116.383 51.2042 117.914C51.2794 117.93 51.3502 117.962 51.4115 118.008C51.4728 118.054 51.5232 118.112 51.5591 118.179L69.1012 149.469C69.1518 149.559 69.1749 149.662 69.1677 149.764C69.1605 149.867 69.1233 149.965 69.0607 150.047C68.9981 150.13 68.9127 150.192 68.8149 150.227C68.7171 150.262 68.6111 150.269 68.5097 150.245C68.2193 150.182 61.3036 148.768 59.744 155.349C58.0662 162.387 50.7202 171.445 47.1924 175.794L46.8052 176.283C44.6953 178.875 42.383 181.299 39.8895 183.534C39.7874 183.619 39.6574 183.664 39.5238 183.661ZM21.3794 147.736L39.6636 182.269C41.9169 180.199 44.016 177.971 45.9448 175.602L46.332 175.113C49.8168 170.861 57.0874 161.898 58.6685 155.093C60.0774 149.182 65.3153 148.884 67.617 149.055L50.731 118.892C44.1271 117.627 38.0611 121.933 34.458 130.47C30.6506 139.507 23.068 146.301 21.3794 147.736Z" fill="#2D64E3"/>
<path opacity="0.3" d="M68.6155 150.214C68.5198 150.215 68.4255 150.191 68.3424 150.144C68.2592 150.098 68.1901 150.03 68.1423 149.948L50.6002 118.648C50.563 118.53 50.563 118.404 50.6002 118.286C51.8693 112.439 58.3656 109.781 71.6593 109.781C83.2644 109.781 87.9645 106.134 88.0075 106.102C88.0673 106.054 88.1363 106.019 88.2103 105.999C88.2844 105.979 88.3618 105.974 88.4378 105.985C88.5125 105.999 88.5836 106.027 88.6466 106.069C88.7095 106.111 88.7629 106.166 88.8034 106.23L108.486 137.945C108.557 138.063 108.579 138.203 108.549 138.338C108.519 138.472 108.439 138.59 108.325 138.668C108.271 138.668 106.883 139.582 98.7737 142.112C93.1486 143.877 86.9428 143.633 81.9415 143.441C79.9569 143.331 77.9676 143.331 75.983 143.441C71.2721 143.824 69.1963 149.82 69.1748 149.82C69.1417 149.919 69.0803 150.005 68.9981 150.069C68.916 150.134 68.8166 150.173 68.7123 150.182L68.6155 150.214ZM51.6434 118.318L68.5402 148.47C69.4222 146.556 71.7023 142.74 75.8432 142.399C77.8708 142.289 79.9031 142.289 81.9307 142.399C86.8352 142.591 92.9443 142.825 98.3973 141.124C101.389 140.257 104.329 139.228 107.206 138.04L88.1366 107.293C86.6308 108.26 81.6296 110.865 71.6055 110.865C59.0647 110.876 52.8911 113.215 51.6434 118.318Z" fill="#2D64E3"/>
<path opacity="0.3" d="M53.2156 170.967C53.0956 170.97 52.9783 170.932 52.8822 170.861C52.7707 170.771 52.6992 170.642 52.6831 170.501C52.667 170.36 52.7076 170.218 52.7962 170.106C54.872 167.533 56.5176 165.258 57.9695 163.248C59.5711 160.801 61.4473 158.539 63.5624 156.508C65.4133 154.936 67.4767 153.626 69.693 152.617C69.7571 152.589 69.8263 152.574 69.8964 152.572C69.9665 152.571 70.0362 152.584 70.1013 152.61C70.1664 152.635 70.2256 152.674 70.2756 152.722C70.3255 152.771 70.3651 152.829 70.3921 152.893C70.4467 153.023 70.4481 153.169 70.3959 153.3C70.3437 153.431 70.2421 153.536 70.1124 153.595C67.9994 154.565 66.0307 155.817 64.2615 157.316C62.224 159.295 60.4199 161.495 58.8838 163.876C57.421 165.896 55.7647 168.128 53.6674 170.776C53.6129 170.841 53.5435 170.892 53.4649 170.926C53.3864 170.959 53.3009 170.973 53.2156 170.967Z" fill="#2D64E3"/>
<path opacity="0.3" d="M73.3161 151.097C73.1977 151.098 73.0829 151.056 72.9934 150.98C72.881 150.894 72.8077 150.767 72.7895 150.627C72.7714 150.488 72.8099 150.347 72.8967 150.235C74.9279 147.804 77.8126 146.221 80.974 145.802L82.8992 145.653C91.1505 145.206 99.2698 143.409 106.927 140.337C107.061 140.286 107.21 140.29 107.341 140.348C107.472 140.406 107.575 140.513 107.626 140.645C107.677 140.778 107.673 140.925 107.615 141.055C107.556 141.184 107.448 141.286 107.314 141.337C99.5573 144.435 91.3382 146.253 82.9852 146.716L81.0708 146.865C78.2074 147.261 75.596 148.698 73.7463 150.895C73.6936 150.957 73.6278 151.007 73.5536 151.042C73.4793 151.077 73.3983 151.096 73.3161 151.097Z" fill="#2D64E3"/>
<path opacity="0.3" d="M27.1215 152.787C27.0166 152.788 26.9137 152.758 26.8256 152.701C26.7375 152.645 26.668 152.564 26.6257 152.47C26.5834 152.375 26.5701 152.269 26.5875 152.167C26.6049 152.065 26.6522 151.97 26.7236 151.894C30.3798 147.739 33.7913 143.38 36.9412 138.838C43.018 130.268 47.4815 126.771 52.3537 126.771C52.4964 126.771 52.6332 126.827 52.734 126.926C52.8349 127.026 52.8915 127.161 52.8915 127.302C52.8915 127.443 52.8349 127.578 52.734 127.678C52.6332 127.778 52.4964 127.834 52.3537 127.834C47.8795 127.834 43.6634 131.204 37.8232 139.454C34.641 144.029 31.201 148.424 27.5195 152.617C27.4687 152.671 27.4071 152.714 27.3386 152.743C27.2701 152.772 27.1962 152.787 27.1215 152.787Z" fill="#2D64E3"/>
<path opacity="0.3" d="M30.5414 158.284C30.4063 158.285 30.2758 158.236 30.1758 158.146C30.1257 158.097 30.0859 158.039 30.0587 157.975C30.0316 157.911 30.0176 157.843 30.0176 157.774C30.0176 157.704 30.0316 157.636 30.0587 157.572C30.0859 157.508 30.1257 157.45 30.1758 157.401C33.8286 153.237 37.2434 148.875 40.4042 144.335C46.4702 135.765 50.9337 132.268 55.8167 132.268C55.9585 132.27 56.0936 132.327 56.1939 132.426C56.2942 132.525 56.3517 132.659 56.3545 132.799C56.3545 132.94 56.2978 133.075 56.197 133.175C56.0961 133.275 55.9593 133.331 55.8167 133.331C51.3317 133.331 47.1263 136.701 41.2754 144.951C38.0932 149.526 34.6532 153.921 30.9717 158.114C30.9173 158.172 30.8505 158.218 30.776 158.247C30.7016 158.276 30.6215 158.289 30.5414 158.284Z" fill="#2D64E3"/>
<path opacity="0.3" d="M33.9614 163.78C33.8585 163.779 33.7581 163.749 33.6721 163.693C33.5862 163.637 33.5182 163.558 33.4763 163.465C33.4344 163.372 33.4203 163.269 33.4358 163.169C33.4512 163.068 33.4956 162.974 33.5635 162.898C37.2149 158.736 40.6297 154.377 43.7919 149.842C49.858 141.262 54.3215 137.764 59.2044 137.764C59.3462 137.766 59.4814 137.823 59.5816 137.922C59.6819 138.022 59.7394 138.155 59.7422 138.295C59.7422 138.436 59.6855 138.571 59.5847 138.671C59.4838 138.771 59.347 138.827 59.2044 138.827C54.7194 138.827 50.514 142.197 44.6738 150.448C41.4863 155.021 38.0428 159.416 34.3594 163.61C34.309 163.664 34.2475 163.708 34.1789 163.737C34.1103 163.767 34.0362 163.781 33.9614 163.78Z" fill="#2D64E3"/>
<path opacity="0.3" d="M37.3822 169.277C37.3168 169.278 37.2517 169.267 37.1908 169.243C37.1298 169.219 37.0743 169.184 37.0273 169.139C36.9772 169.09 36.9375 169.033 36.9103 168.969C36.8831 168.905 36.8691 168.836 36.8691 168.767C36.8691 168.698 36.8831 168.629 36.9103 168.565C36.9375 168.501 36.9772 168.443 37.0273 168.395C40.6829 164.237 44.0978 159.878 47.2557 155.339C53.3218 146.759 57.7853 143.271 62.6683 143.271C62.8109 143.271 62.9477 143.327 63.0485 143.427C63.1494 143.527 63.206 143.662 63.206 143.803C63.206 143.944 63.1494 144.079 63.0485 144.179C62.9477 144.279 62.8109 144.335 62.6683 144.335C58.1832 144.335 53.9779 147.694 48.1377 155.945C44.9579 160.524 41.514 164.919 37.8232 169.107C37.7682 169.167 37.6997 169.214 37.6231 169.244C37.5466 169.273 37.4641 169.285 37.3822 169.277Z" fill="#2D64E3"/>
<path opacity="0.3" d="M58.3452 125.303H58.1623C58.03 125.253 57.9226 125.154 57.8624 125.027C57.8023 124.9 57.7941 124.755 57.8397 124.623C57.8397 124.57 59.7649 119.615 66.444 119.615C78.9741 119.615 87.1052 117.701 88.1807 114.48C88.2264 114.339 88.3268 114.222 88.4599 114.154C88.5258 114.12 88.5978 114.1 88.6717 114.094C88.7456 114.088 88.8199 114.096 88.8906 114.118C88.9612 114.141 89.0267 114.177 89.0833 114.224C89.1399 114.271 89.1865 114.329 89.2204 114.394C89.2544 114.46 89.275 114.531 89.2812 114.604C89.2873 114.677 89.2789 114.75 89.2563 114.82C87.5462 119.923 74.2632 120.678 66.4978 120.678C60.5608 120.678 58.969 124.803 58.8722 124.984C58.8282 125.084 58.7539 125.169 58.6596 125.226C58.5653 125.283 58.4555 125.31 58.3452 125.303Z" fill="#2D64E3"/>
<path opacity="0.3" d="M62.1952 131.64C62.0754 131.641 61.9586 131.603 61.8618 131.533C61.751 131.446 61.6798 131.318 61.6636 131.179C61.6475 131.039 61.6878 130.899 61.7758 130.789C61.9048 130.619 65.0024 126.77 73.3163 126.77C82.2541 126.77 88.8902 124.697 93.0525 120.583C93.1531 120.485 93.2882 120.431 93.429 120.431C93.5697 120.431 93.7049 120.485 93.8054 120.583C93.8558 120.632 93.8958 120.691 93.9231 120.756C93.9504 120.82 93.9645 120.89 93.9645 120.96C93.9645 121.03 93.9504 121.1 93.9231 121.164C93.8958 121.229 93.8558 121.288 93.8054 121.337C89.4495 125.654 82.5552 127.887 73.3163 127.887C65.5939 127.887 62.6469 131.459 62.6254 131.491C62.5691 131.545 62.5014 131.587 62.4271 131.613C62.3527 131.638 62.2736 131.648 62.1952 131.64Z" fill="#2D64E3"/>
<path opacity="0.3" d="M64.765 137.987C64.6869 137.985 64.61 137.967 64.5391 137.934C64.4749 137.906 64.4172 137.865 64.3693 137.814C64.3214 137.763 64.2843 137.703 64.2602 137.637C64.2362 137.572 64.2256 137.502 64.2292 137.433C64.2328 137.363 64.2504 137.295 64.281 137.232C65.276 135.403 66.7725 133.888 68.5987 132.861C70.425 131.835 72.5072 131.338 74.6062 131.427C83.5978 131.427 91.4707 129.567 95.6761 126.462C95.732 126.419 95.7963 126.387 95.8649 126.369C95.9335 126.351 96.0051 126.347 96.0755 126.357C96.1458 126.367 96.2134 126.391 96.2741 126.427C96.3349 126.463 96.3875 126.512 96.429 126.569C96.5118 126.682 96.5469 126.823 96.5269 126.962C96.5068 127.101 96.4332 127.227 96.3214 127.313C90.008 131.98 79.0267 132.491 74.6062 132.491C72.7116 132.403 70.8301 132.843 69.1759 133.76C67.5216 134.677 66.1611 136.035 65.249 137.679C65.2073 137.771 65.1393 137.849 65.0534 137.904C64.9674 137.959 64.8672 137.988 64.765 137.987Z" fill="#2D64E3"/>
<path opacity="0.3" d="M67.756 142.633C67.7063 142.643 67.6552 142.643 67.6054 142.633C67.4701 142.591 67.3565 142.499 67.2883 142.376C67.2201 142.253 67.2027 142.109 67.2398 141.974C67.3043 141.782 68.724 137.381 76.2851 136.945C84.1538 136.533 91.899 134.834 99.2049 131.916C99.2703 131.879 99.343 131.855 99.4182 131.848C99.4933 131.84 99.5693 131.848 99.6411 131.871C99.7129 131.894 99.779 131.932 99.835 131.983C99.891 132.033 99.9356 132.094 99.966 132.162C99.9964 132.231 100.012 132.305 100.011 132.379C100.011 132.454 99.9947 132.528 99.9634 132.596C99.9322 132.664 99.8868 132.725 99.8303 132.774C99.7737 132.824 99.7072 132.861 99.6351 132.883C92.2168 135.864 84.3463 137.596 76.3496 138.008C69.5844 138.401 68.3261 142.123 68.2723 142.261C68.2378 142.369 68.169 142.464 68.0761 142.531C67.9832 142.598 67.871 142.634 67.756 142.633Z" fill="#2D64E3"/>
<path opacity="0.3" d="M84.0289 31.2535H83.8998L80.0063 30.2966C79.9243 30.2759 79.8483 30.2364 79.7847 30.1812C79.721 30.126 79.6715 30.0567 79.64 29.979C79.6086 29.9013 79.5961 29.8173 79.6037 29.7339C79.6113 29.6506 79.6387 29.5702 79.6837 29.4992L97.656 1.64362C97.733 1.52378 97.855 1.43909 97.9952 1.40818C98.1354 1.37728 98.2822 1.40269 98.4035 1.47882C98.5247 1.55496 98.6104 1.67557 98.6416 1.81415C98.6729 1.95272 98.6472 2.0979 98.5702 2.21774L80.9958 29.4461L83.7922 30.1371L101.549 4.0358C101.626 3.92353 101.743 3.84379 101.876 3.8123C102.01 3.78081 102.15 3.79986 102.27 3.86568L130.568 19.9943L133.644 16.9536L102.722 1.00571C102.595 0.940851 102.499 0.828801 102.456 0.694215C102.412 0.559629 102.425 0.413527 102.491 0.288048C102.556 0.162569 102.669 0.0679896 102.806 0.0251214C102.942 -0.0177468 103.09 -0.00539701 103.217 0.0594574L134.794 16.3901C134.87 16.4279 134.935 16.4836 134.984 16.5522C135.033 16.6208 135.064 16.7002 135.074 16.7835C135.087 16.8644 135.08 16.9472 135.054 17.0249C135.028 17.1026 134.983 17.173 134.924 17.23L131.041 21.0787C130.957 21.1607 130.849 21.2134 130.733 21.2288C130.616 21.2441 130.498 21.2213 130.396 21.1638L102.163 5.07772L84.4698 31.0834C84.4148 31.1438 84.3463 31.1906 84.2698 31.2201C84.1932 31.2497 84.1107 31.2611 84.0289 31.2535Z" fill="#2D64E3"/>
<path opacity="0.3" d="M133.568 64.3824C133.478 64.3829 133.389 64.3609 133.31 64.3186L109.508 50.8693C109.439 50.8303 109.379 50.7769 109.332 50.7126C109.286 50.6483 109.254 50.5748 109.239 50.4972L101.463 4.39717C101.442 4.25633 101.477 4.11269 101.561 3.99729C101.646 3.8819 101.773 3.80402 101.915 3.78051C101.985 3.76995 102.056 3.77313 102.125 3.78987C102.194 3.8066 102.258 3.83657 102.315 3.87805C102.372 3.91953 102.42 3.97171 102.457 4.0316C102.493 4.09149 102.518 4.15791 102.528 4.22706L110.261 50.0719L133.009 62.8939L129.686 23.0774C129.679 22.9376 129.727 22.8006 129.819 22.694C129.91 22.5875 130.04 22.5193 130.18 22.5033C130.251 22.4975 130.322 22.5056 130.39 22.527C130.457 22.5485 130.52 22.5829 130.574 22.6284C130.628 22.6739 130.672 22.7294 130.704 22.7919C130.736 22.8543 130.756 22.9225 130.761 22.9924L134.085 63.8083C134.094 63.9046 134.077 64.0018 134.033 64.0884C133.989 64.1749 133.921 64.2474 133.837 64.2974C133.759 64.3527 133.665 64.3825 133.568 64.3824Z" fill="#2D64E3"/>
<path opacity="0.3" d="M133.569 64.3826C133.477 64.3819 133.386 64.3579 133.307 64.3129C133.227 64.2678 133.16 64.2033 133.112 64.1255C133.065 64.0476 133.038 63.959 133.035 63.8682C133.032 63.7773 133.053 63.6872 133.095 63.6065L136.914 56.5363L134.01 16.8367C134.005 16.7669 134.014 16.6968 134.036 16.6304C134.059 16.5641 134.094 16.5027 134.141 16.4499C134.234 16.3432 134.367 16.2778 134.51 16.2679C134.652 16.258 134.793 16.3046 134.901 16.3973C135.009 16.49 135.075 16.6213 135.085 16.7623L138 56.6532C138.001 56.7526 137.979 56.8509 137.935 56.9403L134.085 64.0956C134.037 64.1881 133.962 64.2647 133.87 64.3157C133.779 64.3667 133.674 64.39 133.569 64.3826Z" fill="#2D64E3"/>
<path opacity="0.3" d="M93.7416 72.6007H93.6341C93.5316 72.5819 93.437 72.5335 93.3623 72.4616C93.2877 72.3897 93.2362 72.2975 93.2146 72.1967L84.9544 34.7405C84.9256 34.601 84.9535 34.4559 85.032 34.3366C85.1105 34.2172 85.2333 34.1332 85.3739 34.1026C85.4431 34.0886 85.5144 34.0882 85.5838 34.1015C85.6531 34.1148 85.7191 34.1414 85.7781 34.1799C85.837 34.2184 85.8877 34.268 85.9272 34.3259C85.9667 34.3838 85.9943 34.4488 86.0085 34.5172L94.0105 70.8146L109.348 50.093C109.432 49.9788 109.558 49.9023 109.7 49.8803C109.841 49.8584 109.985 49.8928 110.101 49.976C110.216 50.0592 110.294 50.1843 110.316 50.3239C110.338 50.4635 110.303 50.606 110.219 50.7202L94.1826 72.3349C94.1392 72.4136 94.0756 72.4796 93.9981 72.5263C93.9207 72.5729 93.8323 72.5986 93.7416 72.6007Z" fill="#2D64E3"/>
<path opacity="0.3" d="M93.741 72.6008H93.6765L89.3098 72.1224C89.1986 72.1095 89.0943 72.0626 89.0114 71.9882C88.9285 71.9139 88.8712 71.8159 88.8473 71.7078L79.6192 29.9244C79.6043 29.8545 79.6035 29.7825 79.6169 29.7124C79.6302 29.6423 79.6574 29.5755 79.6968 29.5158C79.7363 29.456 79.7872 29.4046 79.8468 29.3643C79.9064 29.324 79.9734 29.2958 80.044 29.2811C80.1146 29.2665 80.1875 29.2657 80.2584 29.2789C80.3293 29.292 80.3969 29.3189 80.4573 29.3579C80.5178 29.3969 80.5698 29.4473 80.6105 29.5061C80.6513 29.565 80.6799 29.6313 80.6947 29.7011L89.8476 71.1017L93.8271 71.5377C93.9697 71.5377 94.1065 71.5937 94.2073 71.6934C94.3082 71.7931 94.3648 71.9283 94.3648 72.0693C94.3648 72.2102 94.3082 72.3454 94.2073 72.4451C94.1065 72.5448 93.9697 72.6008 93.8271 72.6008H93.741Z" fill="#2D64E3"/>
<path opacity="0.3" d="M90.3415 37.9727C90.2425 37.9732 90.1453 37.9467 90.0605 37.8961C89.9758 37.8456 89.9068 37.7728 89.8612 37.686C89.8156 37.5991 89.7952 37.5015 89.8021 37.4039C89.809 37.3063 89.8431 37.2125 89.9005 37.1328L102.538 19.8453C102.578 19.7878 102.629 19.7388 102.688 19.7016C102.748 19.6643 102.814 19.6394 102.884 19.6284C102.953 19.6175 103.024 19.6207 103.092 19.6379C103.161 19.655 103.225 19.6858 103.28 19.7283C103.338 19.7686 103.388 19.8199 103.426 19.8792C103.464 19.9385 103.49 20.0047 103.502 20.0739C103.514 20.143 103.512 20.2139 103.496 20.2823C103.48 20.3508 103.451 20.4154 103.409 20.4726L90.7717 37.76C90.7222 37.8267 90.6574 37.8807 90.5825 37.9177C90.5077 37.9547 90.4251 37.9735 90.3415 37.9727Z" fill="#2D64E3"/>
<path opacity="0.3" d="M91.3091 46.1384C91.1978 46.1379 91.0892 46.1046 90.9972 46.0428C90.8838 45.958 90.808 45.8331 90.7859 45.6943C90.7639 45.5554 90.7972 45.4135 90.8789 45.2985L103.506 28.011C103.546 27.9532 103.598 27.9041 103.659 27.8667C103.719 27.8293 103.787 27.8044 103.857 27.7934C103.927 27.7825 103.999 27.7858 104.068 27.8031C104.137 27.8204 104.202 27.8513 104.259 27.8941C104.371 27.9769 104.447 28.1 104.469 28.2371C104.491 28.3741 104.458 28.5143 104.377 28.6277L91.7501 45.9152C91.7007 45.9853 91.6347 46.0423 91.5578 46.0812C91.4809 46.1202 91.3955 46.1398 91.3091 46.1384Z" fill="#2D64E3"/>
<path opacity="0.3" d="M92.2789 54.3032C92.1657 54.304 92.0556 54.2665 91.967 54.1968C91.8543 54.114 91.7788 53.9909 91.7567 53.8539C91.7346 53.7168 91.7676 53.5766 91.8487 53.4632L104.476 36.1758C104.516 36.1183 104.568 36.0693 104.628 36.0317C104.688 35.9942 104.755 35.9687 104.825 35.9569C104.895 35.945 104.967 35.947 105.036 35.9626C105.105 35.9783 105.171 36.0074 105.228 36.0482C105.342 36.1329 105.418 36.2578 105.44 36.3967C105.462 36.5355 105.428 36.6774 105.347 36.7924L92.7199 54.0799C92.6705 54.15 92.6045 54.207 92.5276 54.246C92.4507 54.2849 92.3653 54.3045 92.2789 54.3032Z" fill="#2D64E3"/>
<path opacity="0.3" d="M93.2129 62.4688C93.0996 62.4705 92.9892 62.4329 92.901 62.3624C92.8429 62.3222 92.7934 62.2709 92.7554 62.2116C92.7174 62.1523 92.6916 62.0861 92.6796 62.0169C92.6676 61.9477 92.6696 61.8769 92.6854 61.8084C92.7013 61.74 92.7307 61.6753 92.772 61.6182L105.41 44.3307C105.493 44.2193 105.618 44.1447 105.757 44.1228C105.895 44.101 106.037 44.1336 106.152 44.2138C106.21 44.2541 106.259 44.3053 106.297 44.3646C106.335 44.424 106.361 44.4901 106.373 44.5593C106.385 44.6285 106.383 44.6994 106.367 44.7678C106.351 44.8362 106.322 44.9009 106.281 44.958L93.6432 62.2455C93.5942 62.3135 93.5298 62.3691 93.455 62.4079C93.3803 62.4467 93.2974 62.4675 93.2129 62.4688Z" fill="#2D64E3"/>
<path opacity="0.3" d="M125.319 30.7748C125.224 30.7767 125.131 30.7508 125.05 30.7004L108.046 21.1317C107.922 21.0612 107.831 20.9448 107.794 20.8082C107.757 20.6717 107.776 20.526 107.847 20.4034C107.918 20.2807 108.036 20.1911 108.174 20.1542C108.312 20.1173 108.46 20.1362 108.584 20.2067L125.588 29.7754C125.711 29.8484 125.8 29.9661 125.836 30.1032C125.872 30.2403 125.853 30.386 125.782 30.509C125.735 30.5894 125.668 30.6562 125.586 30.7028C125.505 30.7494 125.413 30.7742 125.319 30.7748Z" fill="#2D64E3"/>
<path opacity="0.3" d="M125.318 38.4513C125.225 38.4517 125.132 38.4298 125.049 38.3875L108.045 28.8188C107.976 28.7881 107.915 28.7436 107.865 28.6881C107.815 28.6326 107.777 28.5673 107.754 28.4964C107.731 28.4256 107.724 28.3508 107.732 28.2768C107.74 28.2029 107.764 28.1314 107.801 28.0671C107.839 28.0028 107.89 27.9471 107.951 27.9035C108.012 27.8599 108.082 27.8295 108.155 27.8142C108.229 27.7988 108.305 27.7989 108.379 27.8145C108.452 27.83 108.522 27.8607 108.583 27.9044L125.587 37.4731C125.709 37.5441 125.798 37.6599 125.834 37.7953C125.87 37.9306 125.851 38.0747 125.781 38.1961C125.732 38.2745 125.664 38.3391 125.583 38.3839C125.502 38.4286 125.411 38.4518 125.318 38.4513Z" fill="#2D64E3"/>
<path opacity="0.3" d="M127.739 46.6165C127.649 46.6156 127.56 46.5938 127.481 46.5527L110.476 36.9839C110.352 36.9147 110.261 36.7997 110.223 36.6642C110.185 36.5287 110.202 36.3837 110.272 36.261C110.344 36.1378 110.462 36.0475 110.601 36.0097C110.74 35.9719 110.888 35.9896 111.014 36.059L128.008 45.6277C128.07 45.6609 128.125 45.7063 128.169 45.761C128.214 45.8157 128.246 45.8787 128.265 45.9462C128.284 46.0137 128.29 46.0843 128.28 46.1538C128.271 46.2233 128.248 46.2903 128.212 46.3507C128.164 46.4326 128.095 46.5004 128.012 46.5471C127.929 46.5938 127.834 46.6178 127.739 46.6165Z" fill="#2D64E3"/>
<path opacity="0.3" d="M128.233 54.7816C128.138 54.7835 128.045 54.7576 127.965 54.7072L110.96 45.1385C110.899 45.1036 110.845 45.0571 110.802 45.0016C110.758 44.9461 110.727 44.8827 110.708 44.8151C110.69 44.7475 110.685 44.6769 110.694 44.6074C110.703 44.538 110.726 44.4709 110.761 44.4102C110.797 44.3495 110.844 44.2962 110.9 44.2535C110.956 44.2107 111.02 44.1793 111.088 44.161C111.157 44.1428 111.228 44.138 111.298 44.147C111.369 44.156 111.437 44.1786 111.498 44.2135L128.502 53.7822C128.603 53.8414 128.682 53.9317 128.726 54.0391C128.77 54.1466 128.778 54.2654 128.747 54.3774C128.717 54.4895 128.65 54.5886 128.557 54.6597C128.465 54.7307 128.351 54.7698 128.233 54.771V54.7816Z" fill="#2D64E3"/>
</g>
</svg>
