<svg width="172" height="131" viewBox="0 0 172 131" fill="none" xmlns="http://www.w3.org/2000/svg">
<g opacity="0.7">
<path opacity="0.3" d="M81.9077 108.676C81.9068 108.782 81.9378 108.886 81.9967 108.975C82.0555 109.063 82.1394 109.131 82.2373 109.17C82.3686 109.224 82.5156 109.224 82.6467 109.17C82.7778 109.116 82.8828 109.012 82.939 108.88L94.0281 81.0342C95.6452 80.4478 97.2919 79.9488 98.9613 79.5392C99.7056 79.4101 100.822 79.8726 102.257 80.9051C102.81 81.3031 121.831 94.4785 124.893 96.608L108.838 128.659C108.805 128.721 108.785 128.789 108.778 128.859C108.772 128.929 108.779 129 108.8 129.067C108.821 129.134 108.854 129.197 108.899 129.25C108.944 129.304 109 129.348 109.062 129.38C109.124 129.413 109.193 129.433 109.263 129.439C109.334 129.446 109.405 129.437 109.472 129.415C109.54 129.393 109.602 129.358 109.656 129.311C109.709 129.264 109.753 129.207 109.785 129.143L126.051 96.6726C126.108 96.556 126.122 96.4229 126.091 96.2968C126.06 96.1708 125.986 96.06 125.881 95.9842C125.658 95.8229 103.448 80.4426 102.874 80.0339C101.811 79.2488 100.184 78.2378 98.7912 78.4744C97.3984 78.711 93.6135 80.0339 93.4753 80.0877C93.4017 80.1133 93.3344 80.1543 93.2776 80.2081C93.2208 80.2618 93.1758 80.3271 93.1457 80.3996L81.9715 108.471C81.9358 108.534 81.914 108.604 81.9077 108.676Z" fill="#2D64E3"/>
<path opacity="0.3" d="M81.6421 115.355C81.6429 115.442 81.6645 115.528 81.7053 115.605C81.746 115.681 81.8046 115.747 81.876 115.796L83.7047 117.065C83.8217 117.146 83.9659 117.177 84.1055 117.151C84.245 117.125 84.3686 117.044 84.4489 116.925C84.5293 116.807 84.5599 116.661 84.534 116.52C84.508 116.379 84.4278 116.254 84.3107 116.172L82.4714 114.903C82.3547 114.827 82.2135 114.799 82.077 114.825C81.9405 114.851 81.8191 114.929 81.7378 115.043C81.6759 115.135 81.6426 115.244 81.6421 115.355Z" fill="#2D64E3"/>
<path opacity="0.3" d="M85.7131 118.172C85.7138 118.259 85.7355 118.345 85.7762 118.422C85.817 118.499 85.8756 118.564 85.947 118.613L103.713 130.907C103.776 130.95 103.848 130.979 103.923 130.992C103.998 131.005 104.075 131.002 104.149 130.982C104.223 130.961 104.291 130.924 104.35 130.874C104.408 130.824 104.456 130.762 104.489 130.692L119.374 98.5651C119.429 98.4518 119.442 98.3221 119.411 98.1997C119.38 98.0773 119.306 97.9703 119.204 97.8983L95.3562 80.6143C95.2412 80.5326 95.0993 80.4993 94.9605 80.5213C94.8216 80.5434 94.6967 80.6192 94.612 80.7326C94.5712 80.7904 94.5421 80.8558 94.5264 80.925C94.5108 80.9943 94.5088 81.0659 94.5207 81.1359C94.5325 81.2059 94.558 81.2729 94.5955 81.3329C94.6331 81.3929 94.6821 81.4447 94.7396 81.4855L118.257 98.5113L103.798 129.702L86.5423 117.764C86.4251 117.686 86.2823 117.658 86.1449 117.686C86.0075 117.714 85.8867 117.796 85.8087 117.914C85.7538 117.99 85.7207 118.079 85.7131 118.172Z" fill="#2D64E3"/>
<path opacity="0.3" d="M96.0578 81.8837V81.9912C96.0884 82.1296 96.1709 82.2506 96.2879 82.3288C96.4048 82.407 96.5472 82.4364 96.6851 82.4107L99.9597 81.6793L122.744 97.1564L109.316 124.905L105.956 126.056C105.823 126.105 105.715 126.204 105.653 126.333C105.592 126.461 105.582 126.609 105.626 126.745C105.672 126.878 105.768 126.988 105.894 127.05C106.019 127.113 106.164 127.123 106.296 127.078L109.869 125.852C110.002 125.806 110.113 125.71 110.177 125.583L123.903 97.1671C123.961 97.0498 123.974 96.9151 123.941 96.7884C123.908 96.6616 123.83 96.5515 123.722 96.4788L100.332 80.5823C100.274 80.5396 100.209 80.5099 100.139 80.4951C100.069 80.4802 99.9973 80.4806 99.9278 80.4962L96.4299 81.2706C96.304 81.3083 96.1963 81.3917 96.1276 81.5049C96.0589 81.6181 96.034 81.753 96.0578 81.8837Z" fill="#2D64E3"/>
<path opacity="0.3" d="M101.481 83.4639L104.798 85.8516C104.798 85.8516 106.117 82.797 107.616 80.0759C109.115 77.3548 111.23 74.0421 111.23 74.0421L106.733 76.29L106.552 71.5253L101.481 83.4639Z" fill="#2D64E3"/>
<path opacity="0.3" d="M-0.000244141 91.9079V91.9724C0.013649 92.0581 0.0467606 92.1396 0.0965118 92.2104C0.146263 92.2812 0.211365 92.3396 0.286835 92.3811L37.4985 112.064C37.6317 112.117 37.78 112.117 37.9132 112.064C38.0466 112.018 38.1571 111.921 38.2215 111.795L39.2847 109.568C39.3363 109.443 39.3391 109.302 39.2926 109.175C39.246 109.048 39.1536 108.943 39.0338 108.882C38.914 108.82 38.7758 108.807 38.6468 108.845C38.5178 108.882 38.4076 108.968 38.3384 109.084L37.4773 110.816L1.40318 91.7465L35.5741 59.2974C35.6397 59.2363 35.6875 59.1582 35.7124 59.0715L47.7796 19.5239L78.6121 39.088L78.5058 40.5292C78.4985 40.6002 78.5055 40.6719 78.5264 40.74C78.5473 40.8081 78.5817 40.8712 78.6274 40.9256C78.6731 40.9799 78.7293 41.0242 78.7924 41.0559C78.8556 41.0876 78.9245 41.106 78.9949 41.11C79.1342 41.1189 79.2714 41.072 79.3768 40.9794C79.4823 40.8868 79.5475 40.756 79.5584 40.6152L79.6966 38.8406C79.7064 38.7431 79.6886 38.6449 79.6453 38.5573C79.602 38.4697 79.535 38.3964 79.4521 38.3458L47.7371 18.244C47.6642 18.2079 47.5842 18.1891 47.5032 18.1891C47.4221 18.1891 47.3421 18.2079 47.2692 18.244C47.1925 18.273 47.1232 18.319 47.0662 18.3785C47.0092 18.438 46.966 18.5096 46.9397 18.5881L34.7236 58.6736L0.148621 91.5099C0.0491104 91.6175 -0.00439453 91.7606 -0.000244141 91.9079Z" fill="#2D64E3"/>
<path opacity="0.3" d="M5.07099 91.4762V91.5622C5.08522 91.6423 5.11758 91.718 5.16553 91.7833C5.21349 91.8486 5.27573 91.9018 5.3474 91.9387L40.8686 110.761C40.9771 110.82 41.1029 110.839 41.2236 110.813C41.3443 110.787 41.4521 110.719 41.5278 110.621C41.6022 110.535 48.7575 101.694 58.6665 97.5207C67.8099 93.6703 72.3497 87.0449 70.8187 79.7958C70.8027 79.7206 70.7706 79.6498 70.7247 79.5885C70.6788 79.5272 70.6202 79.4768 70.5529 79.4409L39.2632 61.8988C39.1733 61.8482 39.0708 61.8251 38.9682 61.8323C38.8656 61.8395 38.7672 61.8767 38.685 61.9393C38.6029 62.0019 38.5404 62.0873 38.5053 62.1851C38.4702 62.2829 38.4638 62.3889 38.4871 62.4903C38.5509 62.7807 39.9649 69.6964 33.3838 71.256C26.3454 72.9338 17.2871 80.2798 12.9386 83.8076L12.4495 84.1948C9.85755 86.3047 7.43312 88.617 5.19857 91.1105C5.11344 91.2126 5.06808 91.3426 5.07099 91.4762ZM40.9962 109.621L6.46377 91.3364C8.53357 89.0831 10.7614 86.984 13.13 85.0552L13.619 84.668C17.8718 81.1832 26.8345 73.9126 33.6389 72.3315C39.5503 70.9226 39.848 65.6847 39.6779 63.383L69.8406 80.269C71.1058 86.8729 66.7999 92.9389 58.2625 96.542C49.2253 100.349 42.4315 107.932 40.9962 109.621Z" fill="#2D64E3"/>
<path opacity="0.3" d="M38.5176 62.3845C38.5163 62.4802 38.5402 62.5745 38.587 62.6576C38.6337 62.7408 38.7015 62.8099 38.7834 62.8577L70.0838 80.3998C70.2015 80.437 70.3276 80.437 70.4453 80.3998C76.2928 79.1307 78.9508 72.6344 78.9508 59.3407C78.9508 47.7356 82.5975 43.0355 82.6294 42.9925C82.6771 42.9327 82.712 42.8637 82.7322 42.7897C82.7523 42.7156 82.7571 42.6382 82.7464 42.5622C82.7329 42.4875 82.7042 42.4164 82.6621 42.3534C82.62 42.2905 82.5654 42.2371 82.5019 42.1966L50.7869 22.5141C50.6686 22.4433 50.5281 22.4206 50.3939 22.4506C50.2597 22.4805 50.1417 22.5609 50.0639 22.6755C50.0639 22.7292 49.1495 24.1167 46.6191 32.2263C44.8542 37.8514 45.0988 44.0572 45.2902 49.0585C45.4008 51.0431 45.4008 53.0324 45.2902 55.017C44.9074 59.7279 38.911 61.8037 38.911 61.8252C38.8128 61.8583 38.7262 61.9197 38.662 62.0019C38.5978 62.084 38.5587 62.1834 38.5495 62.2877L38.5176 62.3845ZM70.4134 79.3566L40.2613 62.4598C42.175 61.5778 45.9919 59.2977 46.3321 55.1568C46.4427 53.1292 46.4427 51.0969 46.3321 49.0693C46.1407 44.1648 45.9068 38.0557 47.6079 32.6027C48.4743 29.6112 49.5037 26.6705 50.6912 23.794L81.4387 42.8634C80.4712 44.3692 77.8663 49.3704 77.8663 59.3945C77.8557 71.9353 75.5167 78.1089 70.4134 79.3566Z" fill="#2D64E3"/>
<path opacity="0.3" d="M17.7652 77.7844C17.7629 77.9044 17.8003 78.0217 17.8715 78.1178C17.9611 78.2293 18.0904 78.3008 18.2316 78.3169C18.3727 78.333 18.5145 78.2924 18.6264 78.2038C21.1993 76.128 23.4745 74.4824 25.484 73.0305C27.9319 71.4289 30.1931 69.5527 32.2246 67.4376C33.7966 65.5867 35.1063 63.5233 36.1159 61.307C36.1439 61.2429 36.1589 61.1737 36.1601 61.1036C36.1613 61.0335 36.1486 60.9638 36.1229 60.8987C36.0972 60.8336 36.0588 60.7744 36.0102 60.7244C35.9615 60.6745 35.9035 60.6349 35.8395 60.6079C35.7095 60.5533 35.5636 60.5519 35.4327 60.6041C35.3017 60.6563 35.196 60.7579 35.1378 60.8876C34.1673 63.0006 32.9153 64.9693 31.4166 66.7385C29.4378 68.776 27.2371 70.5801 24.8567 72.1162C22.8366 73.579 20.6039 75.2353 17.9566 77.3326C17.8915 77.3871 17.8402 77.4565 17.8069 77.5351C17.7736 77.6136 17.7593 77.6991 17.7652 77.7844Z" fill="#2D64E3"/>
<path opacity="0.3" d="M37.6368 57.6839C37.6354 57.8023 37.677 57.9171 37.7537 58.0066C37.8399 58.119 37.9666 58.1923 38.1061 58.2105C38.2455 58.2286 38.3865 58.1901 38.4979 58.1033C40.9289 56.0721 42.5123 53.1874 42.9314 50.026L43.0803 48.1008C43.5278 39.8495 45.3241 31.7302 48.3962 24.0732C48.447 23.9391 48.443 23.7901 48.3852 23.659C48.3274 23.5279 48.2205 23.4254 48.0879 23.3741C47.9554 23.3227 47.8081 23.3268 47.6785 23.3852C47.5489 23.4437 47.4476 23.5519 47.3969 23.686C44.2983 31.4427 42.4809 39.6618 42.0171 48.0148L41.8683 49.9292C41.4721 52.7926 40.0355 55.404 37.8388 57.2537C37.7764 57.3064 37.7261 57.3722 37.6912 57.4464C37.6563 57.5207 37.6378 57.6017 37.6368 57.6839Z" fill="#2D64E3"/>
<path opacity="0.3" d="M35.9466 103.878C35.9459 103.983 35.9755 104.086 36.0319 104.174C36.0883 104.263 36.1689 104.332 36.2639 104.374C36.3588 104.417 36.4639 104.43 36.5662 104.412C36.6686 104.395 36.7636 104.348 36.8397 104.276C40.9945 100.62 45.3537 97.2087 49.8957 94.0588C58.465 87.982 61.9629 83.5185 61.9629 78.6463C61.9629 78.5036 61.9069 78.3668 61.8072 78.266C61.7075 78.1651 61.5723 78.1085 61.4313 78.1085C61.2903 78.1085 61.1551 78.1651 61.0554 78.266C60.9557 78.3668 60.8997 78.5036 60.8997 78.6463C60.8997 83.1205 57.5294 87.3366 49.279 93.1768C44.7041 96.359 40.3097 99.799 36.1167 103.481C36.0626 103.531 36.0195 103.593 35.9903 103.661C35.961 103.73 35.9461 103.804 35.9466 103.878Z" fill="#2D64E3"/>
<path opacity="0.3" d="M30.4485 100.459C30.4476 100.594 30.4969 100.724 30.5868 100.824C30.6353 100.874 30.6931 100.914 30.757 100.941C30.8209 100.968 30.8896 100.982 30.9589 100.982C31.0282 100.982 31.0968 100.968 31.1607 100.941C31.2246 100.914 31.2825 100.874 31.331 100.824C35.4949 97.1714 39.8573 93.7566 44.3976 90.5958C52.9669 84.5298 56.4648 80.0663 56.4648 75.1833C56.4621 75.0415 56.4052 74.9064 56.3061 74.8061C56.207 74.7058 56.0734 74.6483 55.9332 74.6455C55.7923 74.6455 55.657 74.7022 55.5573 74.803C55.4577 74.9039 55.4017 75.0407 55.4017 75.1833C55.4017 79.6683 52.0313 83.8737 43.781 89.7246C39.206 92.9068 34.8116 96.3468 30.6187 100.028C30.5604 100.083 30.5149 100.15 30.4854 100.224C30.456 100.298 30.4434 100.379 30.4485 100.459Z" fill="#2D64E3"/>
<path opacity="0.3" d="M24.9524 97.0386C24.9536 97.1415 24.9839 97.2419 25.0398 97.3279C25.0956 97.4138 25.1747 97.4818 25.2676 97.5237C25.3605 97.5656 25.4633 97.5797 25.5639 97.5642C25.6644 97.5488 25.7585 97.5044 25.8349 97.4365C29.9963 93.7851 34.355 90.3703 38.8909 87.2081C47.4708 81.142 50.9688 76.6785 50.9688 71.7956C50.966 71.6538 50.9091 71.5186 50.81 71.4184C50.7109 71.3181 50.5773 71.2606 50.4372 71.2578C50.2962 71.2578 50.1609 71.3145 50.0613 71.4153C49.9616 71.5162 49.9056 71.653 49.9056 71.7956C49.9056 76.2806 46.5352 80.486 38.2849 86.3262C33.711 89.5137 29.3167 92.9572 25.1226 96.6406C25.0679 96.691 25.0245 96.7525 24.9952 96.8211C24.9658 96.8897 24.9513 96.9638 24.9524 97.0386Z" fill="#2D64E3"/>
<path opacity="0.3" d="M19.4553 93.6178C19.454 93.6832 19.4655 93.7483 19.4892 93.8092C19.5129 93.8702 19.5484 93.9257 19.5935 93.9727C19.642 94.0228 19.6999 94.0625 19.7638 94.0897C19.8277 94.1169 19.8963 94.1309 19.9656 94.1309C20.0349 94.1309 20.1035 94.1169 20.1674 94.0897C20.2313 94.0625 20.2892 94.0228 20.3377 93.9727C24.4958 90.3171 28.8547 86.9022 33.3937 83.7443C41.9737 77.6782 45.4609 73.2147 45.4609 68.3317C45.4609 68.1891 45.4049 68.0523 45.3052 67.9515C45.2056 67.8506 45.0703 67.794 44.9293 67.794C44.7884 67.794 44.6531 67.8506 44.5535 67.9515C44.4538 68.0523 44.3977 68.1891 44.3977 68.3317C44.3977 72.8168 41.0381 77.0221 32.7877 82.8623C28.2082 86.0421 23.8136 89.486 19.6254 93.1768C19.565 93.2318 19.5182 93.3003 19.4886 93.3769C19.4591 93.4534 19.4477 93.5359 19.4553 93.6178Z" fill="#2D64E3"/>
<path opacity="0.3" d="M63.4293 72.6548V72.8377C63.4795 72.97 63.5785 73.0774 63.7053 73.1376C63.8321 73.1977 63.9771 73.2059 64.1097 73.1603C64.1629 73.1603 69.1174 71.2351 69.1174 64.556C69.1174 52.0259 71.0311 43.8948 74.2526 42.8193C74.3936 42.7736 74.5109 42.6732 74.5786 42.5401C74.6122 42.4742 74.6326 42.4022 74.6387 42.3283C74.6448 42.2544 74.6364 42.1801 74.6141 42.1094C74.5917 42.0388 74.5559 41.9733 74.5085 41.9167C74.4611 41.8601 74.4032 41.8135 74.3381 41.7796C74.2729 41.7456 74.2018 41.725 74.1287 41.7188C74.0557 41.7127 73.9822 41.7211 73.9124 41.7437C68.809 43.4538 68.0542 56.7368 68.0542 64.5022C68.0542 70.4392 63.929 72.031 63.7482 72.1278C63.648 72.1718 63.5635 72.2461 63.5065 72.3404C63.4494 72.4347 63.4224 72.5445 63.4293 72.6548Z" fill="#2D64E3"/>
<path opacity="0.3" d="M57.0916 68.8048C57.0909 68.9246 57.1281 69.0414 57.198 69.1382C57.2857 69.249 57.4131 69.3202 57.5525 69.3364C57.692 69.3525 57.832 69.3122 57.9422 69.2242C58.1123 69.0952 61.9611 65.9976 61.9611 57.6837C61.9611 48.7459 64.0343 42.1098 68.1488 37.9475C68.2462 37.8469 68.3008 37.7118 68.3008 37.571C68.3008 37.4303 68.2462 37.2951 68.1488 37.1946C68.0994 37.1442 68.0406 37.1042 67.9758 37.0769C67.9111 37.0496 67.8416 37.0355 67.7714 37.0355C67.7012 37.0355 67.6317 37.0496 67.5669 37.0769C67.5022 37.1042 67.4434 37.1442 67.394 37.1946C63.0774 41.5505 60.8447 48.4448 60.8447 57.6837C60.8447 65.4061 57.2724 68.3531 57.2405 68.3746C57.186 68.4309 57.1445 68.4986 57.1188 68.5729C57.0931 68.6473 57.0838 68.7264 57.0916 68.8048Z" fill="#2D64E3"/>
<path opacity="0.3" d="M50.7451 66.235C50.7476 66.3131 50.7657 66.39 50.7983 66.4609C50.8269 66.5251 50.8679 66.5828 50.9189 66.6307C50.9699 66.6786 51.0299 66.7157 51.0953 66.7398C51.1607 66.7638 51.2302 66.7744 51.2997 66.7708C51.3692 66.7672 51.4373 66.7496 51.5 66.719C53.3293 65.724 54.8442 64.2275 55.8709 62.4013C56.8977 60.575 57.3948 58.4928 57.305 56.3938C57.305 47.4022 59.1656 39.5293 62.2701 35.3239C62.3134 35.268 62.3451 35.2037 62.3632 35.1351C62.3813 35.0665 62.3856 34.9949 62.3756 34.9245C62.3657 34.8542 62.3418 34.7866 62.3054 34.7259C62.269 34.6651 62.2209 34.6125 62.1638 34.571C62.0501 34.4882 61.909 34.4531 61.7703 34.4731C61.6315 34.4932 61.5058 34.5668 61.4196 34.6786C56.7522 40.992 56.2418 51.9733 56.2418 56.3938C56.3295 58.2884 55.8897 60.1699 54.9725 61.8241C54.0552 63.4784 52.6974 64.8389 51.0535 65.751C50.9612 65.7927 50.8829 65.8607 50.8282 65.9466C50.7734 66.0326 50.7446 66.1328 50.7451 66.235Z" fill="#2D64E3"/>
<path opacity="0.3" d="M46.0986 63.244C46.0888 63.2937 46.0888 63.3448 46.0986 63.3946C46.1404 63.5299 46.2324 63.6435 46.3553 63.7117C46.4782 63.7799 46.6225 63.7973 46.7578 63.7602C46.9491 63.6957 51.3507 62.276 51.7866 54.7149C52.1981 46.8462 53.8975 39.101 56.8155 31.7951C56.8529 31.7297 56.8762 31.657 56.8839 31.5818C56.8916 31.5067 56.8835 31.4307 56.8603 31.3589C56.837 31.2871 56.7991 31.221 56.7489 31.165C56.6987 31.109 56.6374 31.0644 56.569 31.034C56.5007 31.0036 56.4267 30.9881 56.352 30.9885C56.2773 30.989 56.2035 31.0053 56.1355 31.0366C56.0675 31.0678 56.0067 31.1132 55.9572 31.1697C55.9076 31.2263 55.8705 31.2928 55.848 31.3649C52.8679 38.7832 51.1358 46.6537 50.7235 54.6504C50.3301 61.4156 46.6089 62.6739 46.4707 62.7277C46.3622 62.7622 46.2676 62.831 46.2006 62.9239C46.1336 63.0168 46.0979 63.129 46.0986 63.244Z" fill="#2D64E3"/>
<path opacity="0.3" d="M157.479 46.9711V47.1002L158.436 50.9937C158.456 51.0757 158.496 51.1517 158.551 51.2153C158.606 51.279 158.676 51.3285 158.753 51.36C158.831 51.3914 158.915 51.4039 158.998 51.3963C159.082 51.3887 159.162 51.3613 159.233 51.3163L187.089 33.344C187.209 33.267 187.293 33.145 187.324 33.0048C187.355 32.8646 187.33 32.7178 187.254 32.5965C187.177 32.4753 187.057 32.3896 186.918 32.3584C186.78 32.3271 186.635 32.3528 186.515 32.4298L159.286 50.0042L158.595 47.2078L184.697 29.4506C184.809 29.3737 184.889 29.2571 184.92 29.1237C184.952 28.9903 184.933 28.8498 184.867 28.7299L168.738 0.432419L171.779 -2.64363L187.727 28.2782C187.792 28.4052 187.904 28.5008 188.038 28.5442C188.173 28.5876 188.319 28.5751 188.444 28.5095C188.57 28.4438 188.664 28.3305 188.707 28.1944C188.75 28.0582 188.738 27.9104 188.673 27.7835L172.342 -3.79447C172.305 -3.87019 172.249 -3.93531 172.18 -3.98409C172.112 -4.03286 172.032 -4.06378 171.949 -4.07411C171.868 -4.08711 171.785 -4.08021 171.708 -4.054C171.63 -4.02779 171.559 -3.98305 171.502 -3.92353L167.654 -0.0408249C167.572 0.0425415 167.519 0.150784 167.504 0.267334C167.488 0.383884 167.511 0.502312 167.569 0.604488L183.655 28.8375L157.649 46.5302C157.589 46.5852 157.542 46.6537 157.512 46.7302C157.483 46.8068 157.471 46.8893 157.479 46.9711Z" fill="#2D64E3"/>
<path opacity="0.3" d="M124.349 -2.56827C124.349 -2.47818 124.371 -2.38942 124.413 -2.31014L137.862 21.4916C137.901 21.5612 137.955 21.6212 138.019 21.6677C138.083 21.7141 138.157 21.7458 138.234 21.7605L184.334 29.5367C184.475 29.5584 184.619 29.5233 184.734 29.4387C184.85 29.3542 184.927 29.2271 184.951 29.085C184.961 29.015 184.958 28.9437 184.942 28.875C184.925 28.8063 184.895 28.7416 184.853 28.6847C184.812 28.6277 184.76 28.5796 184.7 28.5431C184.64 28.5066 184.574 28.4824 184.504 28.4719L138.66 20.7387L125.837 -2.00899L165.654 1.31444C165.794 1.32081 165.931 1.27329 166.037 1.18147C166.144 1.08965 166.212 0.960365 166.228 0.819696C166.234 0.749029 166.226 0.677887 166.204 0.610384C166.183 0.542881 166.149 0.480343 166.103 0.426361C166.058 0.372381 166.002 0.328032 165.94 0.295858C165.877 0.263685 165.809 0.244322 165.739 0.238894L124.923 -3.08453C124.827 -3.09447 124.73 -3.0765 124.643 -3.0327C124.556 -2.9889 124.484 -2.92108 124.434 -2.83716C124.379 -2.75869 124.349 -2.66468 124.349 -2.56827Z" fill="#2D64E3"/>
<path opacity="0.3" d="M116.132 37.2584V37.3659C116.15 37.4684 116.199 37.563 116.271 37.6377C116.343 37.7123 116.435 37.7638 116.536 37.7854L153.992 46.0456C154.131 46.0744 154.276 46.0465 154.396 45.968C154.515 45.8895 154.599 45.7667 154.63 45.6261C154.644 45.5569 154.644 45.4856 154.631 45.4162C154.618 45.3469 154.591 45.2809 154.552 45.2219C154.514 45.163 154.464 45.1123 154.407 45.0728C154.349 45.0333 154.284 45.0057 154.215 44.9915L117.918 36.9895L138.639 21.6523C138.754 21.5681 138.83 21.4415 138.852 21.3003C138.874 21.1591 138.84 21.0149 138.756 20.8994C138.673 20.7839 138.548 20.7065 138.409 20.6843C138.269 20.6621 138.126 20.6969 138.012 20.7811L116.398 36.8174C116.319 36.8608 116.253 36.9244 116.206 37.0019C116.16 37.0793 116.134 37.1677 116.132 37.2584Z" fill="#2D64E3"/>
<path opacity="0.3" d="M116.132 37.259V37.3235L116.61 41.6902C116.623 41.8014 116.67 41.9057 116.744 41.9886C116.819 42.0715 116.917 42.1288 117.025 42.1527L158.808 51.3808C158.878 51.3957 158.95 51.3965 159.02 51.3831C159.09 51.3698 159.157 51.3426 159.217 51.3032C159.276 51.2637 159.328 51.2128 159.368 51.1532C159.408 51.0936 159.437 51.0266 159.451 50.956C159.466 50.8854 159.467 50.8125 159.454 50.7416C159.44 50.6707 159.414 50.6031 159.375 50.5427C159.336 50.4822 159.285 50.4302 159.226 50.3895C159.167 50.3487 159.101 50.3201 159.031 50.3053L117.631 41.1524L117.195 37.1729C117.195 37.0303 117.139 36.8935 117.039 36.7927C116.939 36.6918 116.804 36.6352 116.663 36.6352C116.522 36.6352 116.387 36.6918 116.287 36.7927C116.188 36.8935 116.132 37.0303 116.132 37.1729V37.259Z" fill="#2D64E3"/>
<path opacity="0.3" d="M150.759 40.6585C150.758 40.7575 150.785 40.8547 150.835 40.9395C150.886 41.0242 150.959 41.0932 151.045 41.1388C151.132 41.1844 151.23 41.2048 151.328 41.1979C151.425 41.191 151.519 41.1569 151.599 41.0995L168.886 28.4619C168.944 28.4223 168.993 28.3712 169.03 28.3118C169.067 28.2524 169.092 28.1859 169.103 28.1164C169.114 28.0469 169.111 27.9758 169.094 27.9076C169.076 27.8394 169.046 27.7755 169.003 27.7198C168.963 27.6616 168.912 27.6121 168.852 27.5741C168.793 27.5361 168.727 27.5103 168.658 27.4983C168.588 27.4863 168.518 27.4883 168.449 27.5042C168.381 27.52 168.316 27.5494 168.259 27.5907L150.971 40.2283C150.905 40.2778 150.851 40.3426 150.814 40.4175C150.777 40.4923 150.758 40.5749 150.759 40.6585Z" fill="#2D64E3"/>
<path opacity="0.3" d="M142.594 39.6909C142.594 39.8022 142.628 39.9108 142.69 40.0028C142.774 40.1162 142.899 40.192 143.038 40.2141C143.177 40.2361 143.319 40.2028 143.434 40.1211L160.721 27.4942C160.779 27.4536 160.828 27.4016 160.866 27.3412C160.903 27.2808 160.928 27.2135 160.939 27.1431C160.95 27.0727 160.947 27.0008 160.929 26.9318C160.912 26.8627 160.881 26.798 160.838 26.7413C160.756 26.6286 160.632 26.5532 160.495 26.531C160.358 26.5089 160.218 26.542 160.105 26.623L142.817 39.2499C142.747 39.2993 142.69 39.3653 142.651 39.4422C142.612 39.5191 142.593 39.6045 142.594 39.6909Z" fill="#2D64E3"/>
<path opacity="0.3" d="M134.429 38.7211C134.428 38.8343 134.466 38.9444 134.536 39.033C134.618 39.1457 134.741 39.2212 134.879 39.2433C135.016 39.2654 135.156 39.2324 135.269 39.1513L152.557 26.5244C152.614 26.4837 152.663 26.4318 152.701 26.3718C152.738 26.3118 152.764 26.2449 152.776 26.1749C152.787 26.1049 152.785 26.0332 152.77 25.964C152.754 25.8948 152.725 25.8294 152.684 25.7716C152.6 25.6581 152.475 25.5824 152.336 25.5603C152.197 25.5382 152.055 25.5715 151.94 25.6532L134.653 38.2801C134.582 38.3295 134.525 38.3955 134.486 38.4724C134.448 38.5493 134.428 38.6347 134.429 38.7211Z" fill="#2D64E3"/>
<path opacity="0.3" d="M126.265 37.7871C126.263 37.9004 126.301 38.0108 126.371 38.099C126.411 38.1571 126.463 38.2066 126.522 38.2446C126.581 38.2826 126.647 38.3084 126.716 38.3204C126.786 38.3324 126.857 38.3304 126.925 38.3146C126.993 38.2987 127.058 38.2693 127.115 38.228L144.403 25.5904C144.514 25.5066 144.589 25.3821 144.611 25.2434C144.632 25.1048 144.6 24.9629 144.52 24.8483C144.479 24.7901 144.428 24.7406 144.369 24.7026C144.309 24.6646 144.243 24.6389 144.174 24.6269C144.105 24.6149 144.034 24.6168 143.966 24.6327C143.897 24.6485 143.833 24.678 143.775 24.7192L126.488 37.3568C126.42 37.4058 126.364 37.4702 126.326 37.545C126.287 37.6197 126.266 37.7026 126.265 37.7871Z" fill="#2D64E3"/>
<path opacity="0.3" d="M157.957 5.68065C157.955 5.77573 157.981 5.86925 158.031 5.94954L167.6 22.9539C167.67 23.078 167.787 23.1686 167.923 23.2059C168.06 23.2433 168.205 23.2242 168.328 23.1529C168.451 23.0815 168.54 22.9639 168.577 22.8257C168.614 22.6875 168.595 22.5402 168.525 22.4161L158.956 5.41177C158.883 5.28893 158.765 5.19989 158.628 5.16371C158.491 5.12752 158.345 5.14708 158.222 5.21818C158.142 5.2651 158.075 5.33247 158.029 5.4136C157.982 5.49474 157.957 5.5868 157.957 5.68065Z" fill="#2D64E3"/>
<path opacity="0.3" d="M150.281 5.68197C150.281 5.77549 150.303 5.86773 150.345 5.95086L159.914 22.9552C159.944 23.0238 159.989 23.0851 160.044 23.1351C160.1 23.1852 160.165 23.2229 160.236 23.2459C160.307 23.2688 160.382 23.2765 160.456 23.2683C160.53 23.2602 160.601 23.2364 160.665 23.1986C160.73 23.1608 160.785 23.1098 160.829 23.0488C160.872 22.9878 160.903 22.9182 160.918 22.8446C160.934 22.771 160.933 22.6949 160.918 22.6213C160.902 22.5477 160.872 22.4783 160.828 22.4174L151.259 5.41308C151.188 5.29099 151.073 5.20218 150.937 5.16593C150.802 5.12968 150.658 5.14893 150.536 5.21949C150.458 5.26775 150.393 5.33572 150.349 5.41676C150.304 5.4978 150.281 5.58916 150.281 5.68197Z" fill="#2D64E3"/>
<path opacity="0.3" d="M142.116 3.26124C142.117 3.35117 142.139 3.43963 142.18 3.51938L151.748 20.5237C151.818 20.6476 151.933 20.7387 152.068 20.777C152.204 20.8153 152.349 20.7977 152.471 20.7281C152.595 20.656 152.685 20.5377 152.723 20.3989C152.761 20.26 152.743 20.1117 152.673 19.9859L143.105 2.99236C143.071 2.92993 143.026 2.87493 142.971 2.83064C142.917 2.78635 142.854 2.7537 142.786 2.73462C142.719 2.71554 142.648 2.71043 142.579 2.7196C142.509 2.72878 142.442 2.75206 142.382 2.78802C142.3 2.83585 142.232 2.90492 142.185 2.98811C142.139 3.0713 142.115 3.16558 142.116 3.26124Z" fill="#2D64E3"/>
<path opacity="0.3" d="M133.951 2.7666C133.949 2.86168 133.975 2.9552 134.025 3.03548L143.594 20.0398C143.629 20.1012 143.675 20.1551 143.731 20.1984C143.786 20.2416 143.85 20.2734 143.917 20.2919C143.985 20.3104 144.056 20.3152 144.125 20.3061C144.194 20.297 144.261 20.2741 144.322 20.2388C144.383 20.2035 144.436 20.1564 144.479 20.1003C144.522 20.0441 144.553 19.98 144.571 19.9116C144.59 19.8432 144.594 19.7718 144.585 19.7016C144.576 19.6313 144.554 19.5635 144.519 19.502L134.95 2.49771C134.891 2.39677 134.801 2.31818 134.693 2.27396C134.586 2.22973 134.467 2.22228 134.355 2.25275C134.243 2.28322 134.144 2.34992 134.073 2.4427C134.002 2.53548 133.963 2.64923 133.961 2.7666H133.951Z" fill="#2D64E3"/>
</g>
</svg>
