<svg width="156" height="138" viewBox="0 0 156 138" fill="none" xmlns="http://www.w3.org/2000/svg">
<g opacity="0.7">
<path opacity="0.3" d="M81.9077 115.676C81.9068 115.782 81.9378 115.886 81.9967 115.975C82.0555 116.063 82.1394 116.131 82.2373 116.17C82.3686 116.224 82.5156 116.224 82.6467 116.17C82.7778 116.116 82.8828 116.012 82.939 115.88L94.0281 88.0342C95.6452 87.4478 97.2919 86.9488 98.9613 86.5392C99.7056 86.4101 100.822 86.8726 102.257 87.9051C102.81 88.3031 121.831 101.478 124.893 103.608L108.838 135.659C108.805 135.721 108.785 135.789 108.778 135.859C108.772 135.929 108.779 136 108.8 136.067C108.821 136.134 108.854 136.197 108.899 136.25C108.944 136.304 109 136.348 109.062 136.38C109.124 136.413 109.193 136.433 109.263 136.439C109.334 136.446 109.405 136.437 109.472 136.415C109.54 136.393 109.602 136.358 109.656 136.311C109.709 136.264 109.753 136.207 109.785 136.143L126.051 103.673C126.108 103.556 126.122 103.423 126.091 103.297C126.06 103.171 125.986 103.06 125.881 102.984C125.658 102.823 103.448 87.4426 102.874 87.0339C101.811 86.2488 100.184 85.2378 98.7912 85.4744C97.3984 85.711 93.6135 87.0339 93.4753 87.0877C93.4017 87.1133 93.3344 87.1543 93.2776 87.2081C93.2208 87.2618 93.1758 87.3271 93.1457 87.3996L81.9715 115.471C81.9358 115.534 81.914 115.604 81.9077 115.676Z" fill="#2D64E3"/>
<path opacity="0.3" d="M81.6421 122.355C81.6429 122.442 81.6645 122.528 81.7053 122.605C81.746 122.681 81.8046 122.747 81.876 122.796L83.7047 124.065C83.8217 124.146 83.9659 124.177 84.1055 124.151C84.245 124.125 84.3686 124.044 84.4489 123.925C84.5293 123.807 84.5599 123.661 84.534 123.52C84.508 123.379 84.4278 123.254 84.3107 123.172L82.4714 121.903C82.3547 121.827 82.2135 121.799 82.077 121.825C81.9405 121.851 81.8191 121.929 81.7378 122.043C81.6759 122.135 81.6426 122.244 81.6421 122.355Z" fill="#2D64E3"/>
<path opacity="0.3" d="M85.7131 125.172C85.7138 125.259 85.7355 125.345 85.7762 125.422C85.817 125.499 85.8756 125.564 85.947 125.613L103.713 137.907C103.776 137.95 103.848 137.979 103.923 137.992C103.998 138.005 104.075 138.002 104.149 137.982C104.223 137.961 104.291 137.924 104.35 137.874C104.408 137.824 104.456 137.762 104.489 137.692L119.374 105.565C119.429 105.452 119.442 105.322 119.411 105.2C119.38 105.077 119.306 104.97 119.204 104.898L95.3562 87.6143C95.2412 87.5326 95.0993 87.4993 94.9605 87.5213C94.8216 87.5434 94.6967 87.6192 94.612 87.7326C94.5712 87.7904 94.5421 87.8558 94.5264 87.925C94.5108 87.9943 94.5088 88.0659 94.5207 88.1359C94.5325 88.2059 94.558 88.2729 94.5955 88.3329C94.6331 88.3929 94.6821 88.4447 94.7396 88.4855L118.257 105.511L103.798 136.702L86.5423 124.764C86.4251 124.686 86.2823 124.658 86.1449 124.686C86.0075 124.714 85.8867 124.796 85.8087 124.914C85.7538 124.99 85.7207 125.079 85.7131 125.172Z" fill="#2D64E3"/>
<path opacity="0.3" d="M96.0578 88.8837V88.9912C96.0884 89.1296 96.1709 89.2506 96.2879 89.3288C96.4048 89.407 96.5472 89.4364 96.6851 89.4107L99.9597 88.6793L122.744 104.156L109.316 131.905L105.956 133.056C105.823 133.105 105.715 133.204 105.653 133.333C105.592 133.461 105.582 133.609 105.626 133.745C105.672 133.878 105.768 133.988 105.894 134.05C106.019 134.113 106.164 134.123 106.296 134.078L109.869 132.852C110.002 132.806 110.113 132.71 110.177 132.583L123.903 104.167C123.961 104.05 123.974 103.915 123.941 103.788C123.908 103.662 123.83 103.551 123.722 103.479L100.332 87.5823C100.274 87.5396 100.209 87.5099 100.139 87.4951C100.069 87.4802 99.9973 87.4806 99.9278 87.4962L96.4299 88.2706C96.304 88.3083 96.1963 88.3917 96.1276 88.5049C96.0589 88.6181 96.034 88.753 96.0578 88.8837Z" fill="#2D64E3"/>
<path opacity="0.3" d="M101.481 90.4639L104.798 92.8516C104.798 92.8516 106.117 89.797 107.616 87.0759C109.115 84.3548 111.23 81.0421 111.23 81.0421L106.733 83.29L106.552 78.5253L101.481 90.4639Z" fill="#2D64E3"/>
<path opacity="0.3" d="M-0.000244141 98.9079V98.9724C0.013649 99.0581 0.0467606 99.1396 0.0965118 99.2104C0.146263 99.2812 0.211365 99.3396 0.286835 99.3811L37.4985 119.064C37.6317 119.117 37.78 119.117 37.9132 119.064C38.0466 119.018 38.1571 118.921 38.2215 118.795L39.2847 116.568C39.3363 116.443 39.3391 116.302 39.2926 116.175C39.246 116.048 39.1536 115.943 39.0338 115.882C38.914 115.82 38.7758 115.807 38.6468 115.845C38.5178 115.882 38.4076 115.968 38.3384 116.084L37.4773 117.816L1.40318 98.7465L35.5741 66.2974C35.6397 66.2363 35.6875 66.1582 35.7124 66.0715L47.7796 26.5239L78.6121 46.088L78.5058 47.5292C78.4985 47.6002 78.5055 47.6719 78.5264 47.74C78.5473 47.8081 78.5817 47.8712 78.6274 47.9256C78.6731 47.9799 78.7293 48.0242 78.7924 48.0559C78.8556 48.0876 78.9245 48.106 78.9949 48.11C79.1342 48.1189 79.2714 48.072 79.3768 47.9794C79.4823 47.8868 79.5475 47.756 79.5584 47.6152L79.6966 45.8406C79.7064 45.7431 79.6886 45.6449 79.6453 45.5573C79.602 45.4697 79.535 45.3964 79.4521 45.3458L47.7371 25.244C47.6642 25.2079 47.5842 25.1891 47.5032 25.1891C47.4221 25.1891 47.3421 25.2079 47.2692 25.244C47.1925 25.273 47.1232 25.319 47.0662 25.3785C47.0092 25.438 46.966 25.5096 46.9397 25.5881L34.7236 65.6736L0.148621 98.5099C0.0491104 98.6175 -0.00439453 98.7606 -0.000244141 98.9079Z" fill="#2D64E3"/>
<path opacity="0.3" d="M5.07099 98.4762V98.5622C5.08522 98.6423 5.11758 98.718 5.16553 98.7833C5.21349 98.8486 5.27573 98.9018 5.3474 98.9387L40.8686 117.761C40.9771 117.82 41.1029 117.839 41.2236 117.813C41.3443 117.787 41.4521 117.719 41.5278 117.621C41.6022 117.535 48.7575 108.694 58.6665 104.521C67.8099 100.67 72.3497 94.0449 70.8187 86.7958C70.8027 86.7206 70.7706 86.6498 70.7247 86.5885C70.6788 86.5272 70.6202 86.4768 70.5529 86.4409L39.2632 68.8988C39.1733 68.8482 39.0708 68.8251 38.9682 68.8323C38.8656 68.8395 38.7672 68.8767 38.685 68.9393C38.6029 69.0019 38.5404 69.0873 38.5053 69.1851C38.4702 69.2829 38.4638 69.3889 38.4871 69.4903C38.5509 69.7807 39.9649 76.6964 33.3838 78.256C26.3454 79.9338 17.2871 87.2798 12.9386 90.8076L12.4495 91.1948C9.85755 93.3047 7.43312 95.617 5.19857 98.1105C5.11344 98.2126 5.06808 98.3426 5.07099 98.4762ZM40.9962 116.621L6.46377 98.3364C8.53357 96.0831 10.7614 93.984 13.13 92.0552L13.619 91.668C17.8718 88.1832 26.8345 80.9126 33.6389 79.3315C39.5503 77.9226 39.848 72.6847 39.6779 70.383L69.8406 87.269C71.1058 93.8729 66.7999 99.9389 58.2625 103.542C49.2253 107.349 42.4315 114.932 40.9962 116.621Z" fill="#2D64E3"/>
<path opacity="0.3" d="M38.5176 69.3845C38.5163 69.4802 38.5402 69.5745 38.587 69.6576C38.6337 69.7408 38.7015 69.8099 38.7834 69.8577L70.0838 87.3998C70.2015 87.437 70.3276 87.437 70.4453 87.3998C76.2928 86.1307 78.9508 79.6344 78.9508 66.3407C78.9508 54.7356 82.5975 50.0355 82.6294 49.9925C82.6771 49.9327 82.712 49.8637 82.7322 49.7897C82.7523 49.7156 82.7571 49.6382 82.7464 49.5622C82.7329 49.4875 82.7042 49.4164 82.6621 49.3534C82.62 49.2905 82.5654 49.2371 82.5019 49.1966L50.7869 29.5141C50.6686 29.4433 50.5281 29.4206 50.3939 29.4506C50.2597 29.4805 50.1417 29.5609 50.0639 29.6755C50.0639 29.7292 49.1495 31.1167 46.6191 39.2263C44.8542 44.8514 45.0988 51.0572 45.2902 56.0585C45.4008 58.0431 45.4008 60.0324 45.2902 62.017C44.9074 66.7279 38.911 68.8037 38.911 68.8252C38.8128 68.8583 38.7262 68.9197 38.662 69.0019C38.5978 69.084 38.5587 69.1834 38.5495 69.2877L38.5176 69.3845ZM70.4134 86.3566L40.2613 69.4598C42.175 68.5778 45.9919 66.2977 46.3321 62.1568C46.4427 60.1292 46.4427 58.0969 46.3321 56.0693C46.1407 51.1648 45.9068 45.0557 47.6079 39.6027C48.4743 36.6112 49.5037 33.6705 50.6912 30.794L81.4387 49.8634C80.4712 51.3692 77.8663 56.3704 77.8663 66.3945C77.8557 78.9353 75.5167 85.1089 70.4134 86.3566Z" fill="#2D64E3"/>
<path opacity="0.3" d="M17.7652 84.7844C17.7629 84.9044 17.8003 85.0217 17.8715 85.1178C17.9611 85.2293 18.0904 85.3008 18.2316 85.3169C18.3727 85.333 18.5145 85.2924 18.6264 85.2038C21.1993 83.128 23.4745 81.4824 25.484 80.0305C27.9319 78.4289 30.1931 76.5527 32.2246 74.4376C33.7966 72.5867 35.1063 70.5233 36.1159 68.307C36.1439 68.2429 36.1589 68.1737 36.1601 68.1036C36.1613 68.0335 36.1486 67.9638 36.1229 67.8987C36.0972 67.8336 36.0588 67.7744 36.0102 67.7244C35.9615 67.6745 35.9035 67.6349 35.8395 67.6079C35.7095 67.5533 35.5636 67.5519 35.4327 67.6041C35.3017 67.6563 35.196 67.7579 35.1378 67.8876C34.1673 70.0006 32.9153 71.9693 31.4166 73.7385C29.4378 75.776 27.2371 77.5801 24.8567 79.1162C22.8366 80.579 20.6039 82.2353 17.9566 84.3326C17.8915 84.3871 17.8402 84.4565 17.8069 84.5351C17.7736 84.6136 17.7593 84.6991 17.7652 84.7844Z" fill="#2D64E3"/>
<path opacity="0.3" d="M37.6368 64.6839C37.6354 64.8023 37.677 64.9171 37.7537 65.0066C37.8399 65.119 37.9666 65.1923 38.1061 65.2105C38.2455 65.2286 38.3865 65.1901 38.4979 65.1033C40.9289 63.0721 42.5123 60.1874 42.9314 57.026L43.0803 55.1008C43.5278 46.8495 45.3241 38.7302 48.3962 31.0732C48.447 30.9391 48.443 30.7901 48.3852 30.659C48.3274 30.5279 48.2205 30.4254 48.0879 30.3741C47.9554 30.3227 47.8081 30.3268 47.6785 30.3852C47.5489 30.4437 47.4476 30.5519 47.3969 30.686C44.2983 38.4427 42.4809 46.6618 42.0171 55.0148L41.8683 56.9292C41.4721 59.7926 40.0355 62.404 37.8388 64.2537C37.7764 64.3064 37.7261 64.3722 37.6912 64.4464C37.6563 64.5207 37.6378 64.6017 37.6368 64.6839Z" fill="#2D64E3"/>
<path opacity="0.3" d="M35.9466 110.878C35.9459 110.983 35.9755 111.086 36.0319 111.174C36.0883 111.263 36.1689 111.332 36.2639 111.374C36.3588 111.417 36.4639 111.43 36.5662 111.412C36.6686 111.395 36.7636 111.348 36.8397 111.276C40.9945 107.62 45.3537 104.209 49.8957 101.059C58.465 94.982 61.9629 90.5185 61.9629 85.6463C61.9629 85.5036 61.9069 85.3668 61.8072 85.266C61.7075 85.1651 61.5723 85.1085 61.4313 85.1085C61.2903 85.1085 61.1551 85.1651 61.0554 85.266C60.9557 85.3668 60.8997 85.5036 60.8997 85.6463C60.8997 90.1205 57.5294 94.3366 49.279 100.177C44.7041 103.359 40.3097 106.799 36.1167 110.481C36.0626 110.531 36.0195 110.593 35.9903 110.661C35.961 110.73 35.9461 110.804 35.9466 110.878Z" fill="#2D64E3"/>
<path opacity="0.3" d="M30.4485 107.459C30.4476 107.594 30.4969 107.724 30.5868 107.824C30.6353 107.874 30.6931 107.914 30.757 107.941C30.8209 107.968 30.8896 107.982 30.9589 107.982C31.0282 107.982 31.0968 107.968 31.1607 107.941C31.2246 107.914 31.2825 107.874 31.331 107.824C35.4949 104.171 39.8573 100.757 44.3976 97.5958C52.9669 91.5298 56.4648 87.0663 56.4648 82.1833C56.4621 82.0415 56.4052 81.9064 56.3061 81.8061C56.207 81.7058 56.0734 81.6483 55.9332 81.6455C55.7923 81.6455 55.657 81.7022 55.5573 81.803C55.4577 81.9039 55.4017 82.0407 55.4017 82.1833C55.4017 86.6683 52.0313 90.8737 43.781 96.7246C39.206 99.9068 34.8116 103.347 30.6187 107.028C30.5604 107.083 30.5149 107.15 30.4854 107.224C30.456 107.298 30.4434 107.379 30.4485 107.459Z" fill="#2D64E3"/>
<path opacity="0.3" d="M24.9524 104.039C24.9536 104.141 24.9839 104.242 25.0398 104.328C25.0956 104.414 25.1747 104.482 25.2676 104.524C25.3605 104.566 25.4633 104.58 25.5639 104.564C25.6644 104.549 25.7585 104.504 25.8349 104.437C29.9963 100.785 34.355 97.3703 38.8909 94.2081C47.4708 88.142 50.9688 83.6785 50.9688 78.7956C50.966 78.6538 50.9091 78.5186 50.81 78.4184C50.7109 78.3181 50.5773 78.2606 50.4372 78.2578C50.2962 78.2578 50.1609 78.3145 50.0613 78.4153C49.9616 78.5162 49.9056 78.653 49.9056 78.7956C49.9056 83.2806 46.5352 87.486 38.2849 93.3262C33.711 96.5137 29.3167 99.9572 25.1226 103.641C25.0679 103.691 25.0245 103.752 24.9952 103.821C24.9658 103.89 24.9513 103.964 24.9524 104.039Z" fill="#2D64E3"/>
<path opacity="0.3" d="M19.4553 100.618C19.454 100.683 19.4655 100.748 19.4892 100.809C19.5129 100.87 19.5484 100.926 19.5935 100.973C19.642 101.023 19.6999 101.063 19.7638 101.09C19.8277 101.117 19.8963 101.131 19.9656 101.131C20.0349 101.131 20.1035 101.117 20.1674 101.09C20.2313 101.063 20.2892 101.023 20.3377 100.973C24.4958 97.3171 28.8547 93.9022 33.3937 90.7443C41.9737 84.6782 45.4609 80.2147 45.4609 75.3317C45.4609 75.1891 45.4049 75.0523 45.3052 74.9515C45.2056 74.8506 45.0703 74.794 44.9293 74.794C44.7884 74.794 44.6531 74.8506 44.5535 74.9515C44.4538 75.0523 44.3977 75.1891 44.3977 75.3317C44.3977 79.8168 41.0381 84.0221 32.7877 89.8623C28.2082 93.0421 23.8136 96.486 19.6254 100.177C19.565 100.232 19.5182 100.3 19.4886 100.377C19.4591 100.453 19.4477 100.536 19.4553 100.618Z" fill="#2D64E3"/>
<path opacity="0.3" d="M63.4293 79.6548V79.8377C63.4795 79.97 63.5785 80.0774 63.7053 80.1376C63.8321 80.1977 63.9771 80.2059 64.1097 80.1603C64.1629 80.1603 69.1174 78.2351 69.1174 71.556C69.1174 59.0259 71.0311 50.8948 74.2526 49.8193C74.3936 49.7736 74.5109 49.6732 74.5786 49.5401C74.6122 49.4742 74.6326 49.4022 74.6387 49.3283C74.6448 49.2544 74.6364 49.1801 74.6141 49.1094C74.5917 49.0388 74.5559 48.9733 74.5085 48.9167C74.4611 48.8601 74.4032 48.8135 74.3381 48.7796C74.2729 48.7456 74.2018 48.725 74.1287 48.7188C74.0557 48.7127 73.9822 48.7211 73.9124 48.7437C68.809 50.4538 68.0542 63.7368 68.0542 71.5022C68.0542 77.4392 63.929 79.031 63.7482 79.1278C63.648 79.1718 63.5635 79.2461 63.5065 79.3404C63.4494 79.4347 63.4224 79.5445 63.4293 79.6548Z" fill="#2D64E3"/>
<path opacity="0.3" d="M57.0916 75.8048C57.0909 75.9246 57.1281 76.0414 57.198 76.1382C57.2857 76.249 57.4131 76.3202 57.5525 76.3364C57.692 76.3525 57.832 76.3122 57.9422 76.2242C58.1123 76.0952 61.9611 72.9976 61.9611 64.6837C61.9611 55.7459 64.0343 49.1098 68.1488 44.9475C68.2462 44.8469 68.3008 44.7118 68.3008 44.571C68.3008 44.4303 68.2462 44.2951 68.1488 44.1946C68.0994 44.1442 68.0406 44.1042 67.9758 44.0769C67.9111 44.0496 67.8416 44.0355 67.7714 44.0355C67.7012 44.0355 67.6317 44.0496 67.5669 44.0769C67.5022 44.1042 67.4434 44.1442 67.394 44.1946C63.0774 48.5505 60.8447 55.4448 60.8447 64.6837C60.8447 72.4061 57.2724 75.3531 57.2405 75.3746C57.186 75.4309 57.1445 75.4986 57.1188 75.5729C57.0931 75.6473 57.0838 75.7264 57.0916 75.8048Z" fill="#2D64E3"/>
<path opacity="0.3" d="M50.7451 73.235C50.7476 73.3131 50.7657 73.39 50.7983 73.4609C50.8269 73.5251 50.8679 73.5828 50.9189 73.6307C50.9699 73.6786 51.0299 73.7157 51.0953 73.7398C51.1607 73.7638 51.2302 73.7744 51.2997 73.7708C51.3692 73.7672 51.4373 73.7496 51.5 73.719C53.3293 72.724 54.8442 71.2275 55.8709 69.4013C56.8977 67.575 57.3948 65.4928 57.305 63.3938C57.305 54.4022 59.1656 46.5293 62.2701 42.3239C62.3134 42.268 62.3451 42.2037 62.3632 42.1351C62.3813 42.0665 62.3856 41.9949 62.3756 41.9245C62.3657 41.8542 62.3418 41.7866 62.3054 41.7259C62.269 41.6651 62.2209 41.6125 62.1638 41.571C62.0501 41.4882 61.909 41.4531 61.7703 41.4731C61.6315 41.4932 61.5058 41.5668 61.4196 41.6786C56.7522 47.992 56.2418 58.9733 56.2418 63.3938C56.3295 65.2884 55.8897 67.1699 54.9725 68.8241C54.0552 70.4784 52.6974 71.8389 51.0535 72.751C50.9612 72.7927 50.8829 72.8607 50.8282 72.9466C50.7734 73.0326 50.7446 73.1328 50.7451 73.235Z" fill="#2D64E3"/>
<path opacity="0.3" d="M46.0986 70.244C46.0888 70.2937 46.0888 70.3448 46.0986 70.3946C46.1404 70.5299 46.2324 70.6435 46.3553 70.7117C46.4782 70.7799 46.6225 70.7973 46.7578 70.7602C46.9491 70.6957 51.3507 69.276 51.7866 61.7149C52.1981 53.8462 53.8975 46.101 56.8155 38.7951C56.8529 38.7297 56.8762 38.657 56.8839 38.5818C56.8916 38.5067 56.8835 38.4307 56.8603 38.3589C56.837 38.2871 56.7991 38.221 56.7489 38.165C56.6987 38.109 56.6374 38.0644 56.569 38.034C56.5007 38.0036 56.4267 37.9881 56.352 37.9885C56.2773 37.989 56.2035 38.0053 56.1355 38.0366C56.0675 38.0678 56.0067 38.1132 55.9572 38.1697C55.9076 38.2263 55.8705 38.2928 55.848 38.3649C52.8679 45.7832 51.1358 53.6537 50.7235 61.6504C50.3301 68.4156 46.6089 69.6739 46.4707 69.7277C46.3622 69.7622 46.2676 69.831 46.2006 69.9239C46.1336 70.0168 46.0979 70.129 46.0986 70.244Z" fill="#2D64E3"/>
<path opacity="0.3" d="M124.349 4.43173C124.349 4.52182 124.371 4.61058 124.413 4.68986L137.862 28.4916C137.901 28.5612 137.955 28.6212 138.019 28.6677C138.083 28.7141 138.157 28.7458 138.234 28.7605L184.334 36.5367C184.475 36.5584 184.619 36.5233 184.734 36.4387C184.85 36.3542 184.927 36.2271 184.951 36.085C184.961 36.015 184.958 35.9437 184.942 35.875C184.925 35.8063 184.895 35.7416 184.853 35.6847C184.812 35.6277 184.76 35.5796 184.7 35.5431C184.64 35.5066 184.574 35.4824 184.504 35.4719L138.66 27.7387L125.837 4.99101L165.654 8.31444C165.794 8.32081 165.931 8.27329 166.037 8.18147C166.144 8.08965 166.212 7.96037 166.228 7.8197C166.234 7.74903 166.226 7.67789 166.204 7.61038C166.183 7.54288 166.149 7.48034 166.103 7.42636C166.058 7.37238 166.002 7.32803 165.94 7.29586C165.877 7.26369 165.809 7.24432 165.739 7.23889L124.923 3.91547C124.827 3.90553 124.73 3.9235 124.643 3.9673C124.556 4.0111 124.484 4.07892 124.434 4.16284C124.379 4.24131 124.349 4.33532 124.349 4.43173Z" fill="#2D64E3"/>
<path opacity="0.3" d="M124.351 4.43132C124.351 4.52328 124.376 4.61352 124.421 4.69341C124.466 4.77331 124.53 4.84019 124.608 4.88766C124.686 4.93513 124.774 4.9616 124.865 4.96456C124.956 4.96753 125.046 4.94687 125.127 4.90456L132.197 1.08639L171.897 3.99036C171.966 3.99531 172.037 3.98628 172.103 3.96383C172.169 3.94137 172.231 3.90591 172.283 3.85947C172.39 3.76567 172.456 3.63285 172.465 3.49022C172.475 3.3476 172.429 3.20685 172.336 3.09894C172.243 2.99103 172.112 2.9248 171.971 2.91482L132.08 9.29832e-05C131.981 -0.0013051 131.883 0.0207901 131.793 0.0646229L124.638 3.91507C124.545 3.96324 124.469 4.03784 124.418 4.12961C124.367 4.22139 124.343 4.32629 124.351 4.43132Z" fill="#2D64E3"/>
<path opacity="0.3" d="M116.132 44.2584V44.3659C116.15 44.4684 116.199 44.563 116.271 44.6377C116.343 44.7123 116.435 44.7638 116.536 44.7854L153.992 53.0456C154.131 53.0744 154.276 53.0465 154.396 52.968C154.515 52.8895 154.599 52.7667 154.63 52.6261C154.644 52.5569 154.644 52.4856 154.631 52.4162C154.618 52.3469 154.591 52.2809 154.552 52.2219C154.514 52.163 154.464 52.1123 154.407 52.0728C154.349 52.0333 154.284 52.0057 154.215 51.9915L117.918 43.9895L138.639 28.6523C138.754 28.5681 138.83 28.4415 138.852 28.3003C138.874 28.1591 138.84 28.0149 138.756 27.8994C138.673 27.7839 138.548 27.7065 138.409 27.6843C138.269 27.6621 138.126 27.6969 138.012 27.7811L116.398 43.8174C116.319 43.8608 116.253 43.9244 116.206 44.0019C116.16 44.0793 116.134 44.1677 116.132 44.2584Z" fill="#2D64E3"/>
<path opacity="0.3" d="M116.132 44.259V44.3235L116.61 48.6902C116.623 48.8014 116.67 48.9057 116.744 48.9886C116.819 49.0715 116.917 49.1288 117.025 49.1527L158.808 58.3808C158.878 58.3957 158.95 58.3965 159.02 58.3831C159.09 58.3698 159.157 58.3426 159.217 58.3032C159.276 58.2637 159.328 58.2128 159.368 58.1532C159.408 58.0936 159.437 58.0266 159.451 57.956C159.466 57.8854 159.467 57.8125 159.454 57.7416C159.44 57.6707 159.414 57.6031 159.375 57.5427C159.336 57.4822 159.285 57.4302 159.226 57.3895C159.167 57.3487 159.101 57.3201 159.031 57.3053L117.631 48.1524L117.195 44.1729C117.195 44.0303 117.139 43.8935 117.039 43.7927C116.939 43.6918 116.804 43.6352 116.663 43.6352C116.522 43.6352 116.387 43.6918 116.287 43.7927C116.188 43.8935 116.132 44.0303 116.132 44.1729V44.259Z" fill="#2D64E3"/>
<path opacity="0.3" d="M150.759 47.6585C150.758 47.7575 150.785 47.8547 150.835 47.9395C150.886 48.0242 150.959 48.0932 151.045 48.1388C151.132 48.1844 151.23 48.2048 151.328 48.1979C151.425 48.191 151.519 48.1569 151.599 48.0995L168.886 35.4619C168.944 35.4223 168.993 35.3712 169.03 35.3118C169.067 35.2524 169.092 35.1859 169.103 35.1164C169.114 35.0469 169.111 34.9758 169.094 34.9076C169.076 34.8394 169.046 34.7755 169.003 34.7198C168.963 34.6616 168.912 34.6121 168.852 34.5741C168.793 34.5361 168.727 34.5103 168.658 34.4983C168.588 34.4863 168.518 34.4883 168.449 34.5042C168.381 34.52 168.316 34.5494 168.259 34.5907L150.971 47.2283C150.905 47.2778 150.851 47.3426 150.814 47.4175C150.777 47.4923 150.758 47.5749 150.759 47.6585Z" fill="#2D64E3"/>
<path opacity="0.3" d="M142.594 46.6909C142.594 46.8022 142.628 46.9108 142.69 47.0028C142.774 47.1162 142.899 47.192 143.038 47.2141C143.177 47.2361 143.319 47.2028 143.434 47.1211L160.721 34.4942C160.779 34.4536 160.828 34.4016 160.866 34.3412C160.903 34.2808 160.928 34.2135 160.939 34.1431C160.95 34.0727 160.947 34.0008 160.929 33.9318C160.912 33.8627 160.881 33.798 160.838 33.7413C160.756 33.6286 160.632 33.5532 160.495 33.531C160.358 33.5089 160.218 33.542 160.105 33.623L142.817 46.2499C142.747 46.2993 142.69 46.3653 142.651 46.4422C142.612 46.5191 142.593 46.6045 142.594 46.6909Z" fill="#2D64E3"/>
<path opacity="0.3" d="M134.429 45.7211C134.428 45.8343 134.466 45.9444 134.536 46.033C134.618 46.1457 134.741 46.2212 134.879 46.2433C135.016 46.2654 135.156 46.2324 135.269 46.1513L152.557 33.5244C152.614 33.4837 152.663 33.4318 152.701 33.3718C152.738 33.3118 152.764 33.2449 152.776 33.1749C152.787 33.1049 152.785 33.0332 152.77 32.964C152.754 32.8948 152.725 32.8294 152.684 32.7716C152.6 32.6581 152.475 32.5824 152.336 32.5603C152.197 32.5382 152.055 32.5715 151.94 32.6532L134.653 45.2801C134.582 45.3295 134.525 45.3955 134.486 45.4724C134.448 45.5493 134.428 45.6347 134.429 45.7211Z" fill="#2D64E3"/>
<path opacity="0.3" d="M126.265 44.7871C126.263 44.9004 126.301 45.0108 126.371 45.099C126.411 45.1571 126.463 45.2066 126.522 45.2446C126.581 45.2826 126.647 45.3084 126.716 45.3204C126.786 45.3324 126.857 45.3304 126.925 45.3146C126.993 45.2987 127.058 45.2693 127.115 45.228L144.403 32.5904C144.514 32.5066 144.589 32.3821 144.611 32.2434C144.632 32.1048 144.6 31.9629 144.52 31.8483C144.479 31.7901 144.428 31.7406 144.369 31.7026C144.309 31.6646 144.243 31.6389 144.174 31.6269C144.105 31.6149 144.034 31.6168 143.966 31.6327C143.897 31.6485 143.833 31.678 143.775 31.7192L126.488 44.3568C126.42 44.4058 126.364 44.4702 126.326 44.545C126.287 44.6197 126.266 44.7026 126.265 44.7871Z" fill="#2D64E3"/>
<path opacity="0.3" d="M150.281 12.682C150.281 12.7755 150.303 12.8677 150.345 12.9509L159.914 29.9552C159.944 30.0238 159.989 30.0851 160.044 30.1351C160.1 30.1852 160.165 30.2229 160.236 30.2459C160.307 30.2688 160.382 30.2765 160.456 30.2683C160.53 30.2602 160.601 30.2364 160.665 30.1986C160.73 30.1608 160.785 30.1098 160.829 30.0488C160.872 29.9878 160.903 29.9182 160.918 29.8446C160.934 29.771 160.933 29.6949 160.918 29.6213C160.902 29.5477 160.872 29.4783 160.828 29.4174L151.259 12.4131C151.188 12.291 151.073 12.2022 150.937 12.1659C150.802 12.1297 150.658 12.1489 150.536 12.2195C150.458 12.2678 150.393 12.3357 150.349 12.4168C150.304 12.4978 150.281 12.5892 150.281 12.682Z" fill="#2D64E3"/>
<path opacity="0.3" d="M142.116 10.2612C142.117 10.3512 142.139 10.4396 142.18 10.5194L151.748 27.5237C151.818 27.6476 151.933 27.7387 152.068 27.777C152.204 27.8153 152.349 27.7977 152.471 27.7281C152.595 27.656 152.685 27.5377 152.723 27.3989C152.761 27.26 152.743 27.1117 152.673 26.9859L143.105 9.99236C143.071 9.92993 143.026 9.87493 142.971 9.83064C142.917 9.78635 142.854 9.7537 142.786 9.73462C142.719 9.71554 142.648 9.71043 142.579 9.7196C142.509 9.72878 142.442 9.75206 142.382 9.78802C142.3 9.83585 142.232 9.90492 142.185 9.98811C142.139 10.0713 142.115 10.1656 142.116 10.2612Z" fill="#2D64E3"/>
<path opacity="0.3" d="M133.951 9.7666C133.949 9.86168 133.975 9.9552 134.025 10.0355L143.594 27.0398C143.629 27.1012 143.675 27.1551 143.731 27.1984C143.786 27.2416 143.85 27.2734 143.917 27.2919C143.985 27.3104 144.056 27.3152 144.125 27.3061C144.194 27.297 144.261 27.2741 144.322 27.2388C144.383 27.2035 144.436 27.1564 144.479 27.1003C144.522 27.0441 144.553 26.98 144.571 26.9116C144.59 26.8432 144.594 26.7718 144.585 26.7016C144.576 26.6313 144.554 26.5635 144.519 26.502L134.95 9.49771C134.891 9.39677 134.801 9.31818 134.693 9.27396C134.586 9.22973 134.467 9.22228 134.355 9.25275C134.243 9.28322 134.144 9.34992 134.073 9.4427C134.002 9.53548 133.963 9.64923 133.961 9.7666H133.951Z" fill="#2D64E3"/>
</g>
</svg>
